<?xml version="1.0" encoding="UTF-8" standalone="no"?>
<!-- Created with Inkscape (http://www.inkscape.org/) -->

<svg
   version="1.1"
   id="svg1822"
   width="2375.313"
   height="400"
   viewBox="0 0 2375.313 400"
   sodipodi:docname="substack.svg"
   inkscape:version="1.2.2 (b0a8486541, 2022-12-01)"
   xmlns:inkscape="http://www.inkscape.org/namespaces/inkscape"
   xmlns:sodipodi="http://sodipodi.sourceforge.net/DTD/sodipodi-0.dtd"
   xmlns="http://www.w3.org/2000/svg"
   xmlns:svg="http://www.w3.org/2000/svg">
  <defs
     id="defs1826" />
  <sodipodi:namedview
     id="namedview1824"
     pagecolor="#ffffff"
     bordercolor="#cccccc"
     borderopacity="1"
     inkscape:showpageshadow="0"
     inkscape:pageopacity="1"
     inkscape:pagecheckerboard="0"
     inkscape:deskcolor="#d1d1d1"
     showgrid="false"
     inkscape:zoom="0.41177228"
     inkscape:cx="1590.685"
     inkscape:cy="-297.49453"
     inkscape:window-width="2238"
     inkscape:window-height="1358"
     inkscape:window-x="0"
     inkscape:window-y="20"
     inkscape:window-maximized="1"
     inkscape:current-layer="g1828" />
  <g
     inkscape:groupmode="layer"
     inkscape:label="Image"
     id="g1828"
     transform="translate(-702.66667,-686.79709)">
    <g
       id="g243"
       style="fill:#999999">
      <path
         style="fill:#999999;stroke-width:1.29853"
         d="m 1130.0958,1082.735 c 7.5413,1.9765 14.1836,2.4671 34.1899,2.5246 22.1867,0.064 26.1599,-0.2658 37.3182,-3.0963 17.2582,-4.378 29.3092,-10.9412 40.5796,-22.1008 15.0221,-14.8742 21.2369,-30.6599 21.2369,-53.9421 0,-22.41033 -5.6411,-37.81844 -19.0494,-52.03194 -13.9887,-14.82879 -31.3546,-24.77064 -71.3115,-40.82519 -36.8589,-14.80979 -50.3521,-23.05624 -55.2052,-33.73884 -7.043,-15.50324 1.2633,-30.57753 20.2905,-36.82374 10.346,-3.39635 29.9867,-3.80618 41.2917,-0.86159 10.5252,2.74148 24.045,9.87656 33.2853,17.56643 4.8487,4.03508 8.5556,6.22834 9.5355,5.64167 4.3509,-2.60515 31.0753,-25.59229 31.7268,-27.29005 2.0041,-5.2226 -25.9109,-26.88429 -43.9577,-34.11054 -18.086,-7.24199 -25.4748,-8.47221 -50.4437,-8.39897 -26.4493,0.0776 -36.3934,2.10219 -54.193,11.03362 -29.0581,14.58067 -43.3608,40.82192 -39.4125,72.31062 4.4727,35.67029 25.3435,54.22801 89.7099,79.76758 29.5134,11.71043 36.6448,15.5889 46.2249,25.13959 20.0392,19.97785 14.7159,44.59475 -11.645,53.85105 -11.0964,3.8963 -31.1,4.8557 -42.3793,2.0325 -13.3156,-3.3329 -28.3025,-11.4105 -40.1243,-21.626 -5.8602,-5.064 -11.2111,-9.022 -11.8909,-8.7953 -2.8573,0.9524 -33.5372,27.8251 -33.6053,29.435 -0.1013,2.393 4.4425,7.602 14.3166,16.4124 13.9958,12.4884 33.5559,22.6961 53.512,27.9263 z"
         id="path1968" />
      <path
         style="fill:#999999;stroke-width:1.29853"
         d="m 1192.4792,1080.8683 c -8.9627,1.7148 -43.5822,2.4268 -50.4267,1.0371 -26.6218,-5.4055 -52.6039,-18.8629 -69.214,-35.8495 l -6.8845,-7.0404 15.2391,-13.0165 15.2391,-13.0164 10.0094,8.6494 c 21.7984,18.8367 46.2488,26.3306 72.6192,22.2572 19.5037,-3.0126 32.79,-12.203 37.0024,-25.5952 4.3287,-13.7621 -0.2821,-27.71462 -12.9111,-39.06914 -9.1118,-8.19224 -16.542,-12.17592 -39.6738,-21.27058 -41.1324,-16.17197 -68.2686,-31.74732 -79.7733,-45.78728 -2.4931,-3.04253 -6.305,-9.31852 -8.4707,-13.94667 -10.0895,-21.56055 -8.1528,-47.43554 4.9788,-66.52177 9.5749,-13.91662 28.7641,-25.73377 50.1526,-30.88517 15.0878,-3.63387 41.669,-3.90622 57.1356,-0.58539 21.2013,4.55214 43.1602,16.24471 56.891,30.29293 l 6.2481,6.39269 -14.874,12.46622 c -14.7643,12.37425 -14.8916,12.44681 -17.2555,9.83461 -5.2133,-5.76061 -21.6939,-15.43157 -31.6655,-18.58156 -18.8109,-5.94239 -41.0987,-5.63998 -55.9747,0.7595 -11.3373,4.8772 -19.3193,16.33516 -19.3193,27.73263 0,18.31886 14.1239,29.33457 61.666,48.09532 36.5699,14.43104 54.2839,24.54438 67.9887,38.81645 12.7771,13.30613 18.3638,28.54254 18.3638,50.08361 0,20.5524 -5.0582,35.0638 -16.8199,48.2543 -11.2668,12.6351 -30.3192,22.6762 -50.2708,26.4936 z"
         id="path1966" />
      <path
         style="fill:#999999;stroke-width:1.29853"
         d="m 1374.2585,1082.7448 c 12.5356,3.2857 49.1586,3.6022 61.0754,0.5278 11.1768,-2.8835 23.9353,-9.9035 33.1426,-18.2357 l 7.8417,-7.0962 0.3781,10.7735 0.3781,10.7735 h 24.6721 24.6723 V 940.54441 801.60122 l -24.9415,-0.35247 -24.9416,-0.35249 -0.4133,95.14551 c -0.4528,104.26333 -0.1026,99.40075 -8.3281,115.64413 -6.8562,13.5396 -19.5763,22.7092 -36.4675,26.2886 -29.6877,6.2909 -56.044,-4.4964 -66.7236,-27.3092 -8.3778,-17.89569 -8.1112,-14.29363 -8.6271,-116.5435 l -0.4702,-93.16984 h -24.5944 -24.5943 v 88.89868 c 0,56.06673 0.5306,93.83311 1.4371,102.25959 5.4707,50.86157 27.0701,80.29817 66.5042,90.63457 z"
         id="path1964" />
      <path
         style="fill:#999999;stroke-width:1.29853"
         d="m 1431.6775,1080.775 c -10.0214,2.5366 -39.5576,2.4479 -51.9932,-0.1563 -10.4251,-2.183 -25.7343,-9.0031 -33.5795,-14.959 -12.8812,-9.7793 -22.0882,-23.2064 -27.9882,-40.8165 -8.1043,-24.1896 -8.3004,-27.03803 -8.869,-128.7736 l -0.5171,-92.52058 h 22.1114 22.1113 l 0.3864,94.46838 0.3865,94.46839 3.5335,10.38831 c 9.4215,27.6986 27.3754,40.0627 58.1345,40.0354 31.5916,-0.028 50.2509,-12.2859 59.9561,-39.3861 l 3.0227,-8.44054 0.6493,-95.44228 0.6493,-95.44229 21.7504,-0.35603 21.7505,-0.35603 v 137.05818 137.05819 l -21.7505,-0.356 -21.7504,-0.356 -0.3716,-12.6608 c -0.2044,-6.9633 -0.7904,-12.6607 -1.3023,-12.6607 -0.5119,0 -5.0349,3.9443 -10.051,8.7651 -10.0436,9.6527 -23.4101,17.1858 -36.2691,20.4408 z"
         id="path1962" />
      <path
         id="path1958"
         style="fill:#999999;stroke-width:1.29853"
         d="m 1636.6534,691.87443 c -0.4343,0 -7.2998,3.71119 -15.2571,8.24582 -7.9575,4.53463 -17.5363,9.93852 -21.2851,12.01017 l -6.8154,3.76816 v 180.82029 180.82033 h 22.0725 22.0745 v -11.6868 c 0,-8.8855 0.4157,-11.6868 1.7348,-11.6868 0.9543,0 5.3473,2.8996 9.7618,6.4425 10.9684,8.8028 23.617,15.6565 35.2488,19.1014 13.4154,3.9732 38.6893,4.1593 54.3653,0.4014 16.0619,-3.8506 32.1543,-12.6632 43.5744,-23.8644 26.7365,-26.2238 38.6422,-61.63482 38.684,-115.05345 0.032,-42.123 -7.487,-71.80914 -24.8648,-98.16427 -6.4465,-9.77659 -23.0529,-25.67071 -32.9244,-31.51292 -17.393,-10.29357 -44.8601,-15.9048 -65.1981,-13.31885 -20.3703,2.59004 -34.9655,9.07934 -50.2148,22.32744 -4.0502,3.51871 -7.9945,6.39883 -8.7651,6.39883 -0.9845,0 -1.4019,-20.08016 -1.4019,-67.52443 0,-37.13804 -0.355,-67.52442 -0.7894,-67.52442 z m 68.5801,145.4517 c 17.82,0.13999 35.0166,6.60357 47.2266,19.79188 16.1261,17.41805 23.9158,44.38246 23.9158,82.77776 0,28.6499 -4.7767,52.25705 -14.0455,69.40383 -4.5392,8.3971 -16.0174,20.7434 -23.193,24.9485 -11.9425,6.9988 -32.1201,10.5931 -46.5056,8.2839 -8.5216,-1.3679 -20.1555,-5.555 -27.7011,-9.9711 -7.4741,-4.3741 -18.7516,-14.8835 -23.7464,-22.1295 l -3.7415,-5.4288 v -65.55002 -65.54999 l 5.2347,-6.62139 c 15.7012,-19.86354 39.6445,-30.13503 62.556,-29.95507 z" />
      <path
         style="fill:#999999;stroke-width:1.29853"
         d="m 1925.4607,1082.2168 c 9.8479,2.6071 14.4704,2.9977 36.0839,3.0522 29.2739,0.073 38.3491,-1.6691 57.3122,-11.0038 20.1849,-9.9359 33.9453,-26.3978 38.6108,-46.1905 2.5074,-10.637 2.5289,-33.18088 0.042,-43.72963 -6.9184,-29.34303 -29.1512,-47.83611 -83.2599,-69.25445 -44.3935,-17.57273 -58.5065,-26.81236 -61.5196,-40.27633 -3.0339,-13.55725 2.0685,-22.83521 16.453,-29.91663 7.6833,-3.78257 9.8888,-4.23707 22.9935,-4.73869 10.7516,-0.41154 16.6681,9.5e-4 22.9106,1.5973 12.0169,3.07304 25.6732,10.19864 34.3258,17.91054 8.8042,7.84715 6.5328,8.57679 27.0862,-8.70089 7.6331,-6.41653 13.8783,-12.6375 13.8783,-13.82435 0,-3.13865 -18.9809,-20.44087 -28.6879,-26.15066 -20.6725,-12.15993 -43.7483,-17.35343 -71.8227,-16.16459 -20.3446,0.86151 -33.1212,3.90563 -47.2453,11.2566 -22.0914,11.49744 -34.3462,26.28129 -38.6614,46.64022 -5.2284,24.66654 1.495,49.98607 17.5022,65.91321 14.3413,14.26938 32.6813,24.69007 67.9746,38.6229 28.9214,11.41745 38.9157,16.60956 47.3793,24.61407 10.3999,9.83567 13.9809,16.61045 13.8468,26.19488 -0.1968,14.0648 -7.331,22.9223 -23.7258,29.4574 -6.3172,2.5181 -9.7519,2.9254 -24.8602,2.9449 -16.6043,0.021 -18.0542,-0.1887 -27.4522,-3.9843 -11.6132,-4.6903 -25.1819,-13.4617 -33.9733,-21.9618 -3.5503,-3.4327 -7.0128,-5.7338 -8.0367,-5.3409 -0.9894,0.3796 -8.8465,6.6875 -17.4604,14.0176 -11.2232,9.5504 -15.6616,14.136 -15.6616,16.1812 0,3.3103 14.3908,17.2107 25.346,24.4824 10.9291,7.2542 28.2358,15.0731 40.6219,18.3521 z"
         id="path1952" />
      <path
         style="fill:#999999;stroke-width:1.29853"
         d="m 1998.436,1078.9202 c -8.1346,2.3859 -13.5895,2.9175 -33.1127,3.2268 -12.8554,0.2036 -24.8344,0.093 -26.6199,-0.2439 -17.0221,-3.2207 -37.9887,-11.7692 -51.6962,-21.0777 -10.0834,-6.8475 -23.8484,-19.5703 -23.3521,-21.5839 0.2104,-0.8538 6.9236,-7.1948 14.9181,-14.0911 l 14.5356,-12.5386 4.9424,4.647 c 27.834,26.1696 61.7546,34.2933 93.5382,22.4015 9.159,-3.4268 18.6019,-12.5138 20.8418,-20.056 2.3787,-8.0096 1.9199,-18.4629 -1.1045,-25.17074 -3.3206,-7.36459 -13.9854,-18.33752 -23.2789,-23.95175 -3.9282,-2.37292 -17.6602,-8.53043 -30.5157,-13.68337 -43.1135,-17.28143 -60.1662,-26.9314 -74.3103,-42.05145 -12.5504,-13.41645 -17.1946,-25.77141 -17.2209,-45.80982 -0.042,-32.34948 19.0824,-55.56166 54.7855,-66.49559 31.1925,-9.5526 71.5278,-4.80918 99.3585,11.68451 7.5844,4.49494 26.6998,21.55381 26.0526,23.24998 -0.2007,0.52623 -6.7331,6.24772 -14.5165,12.71442 l -14.1515,11.75764 -6.597,-5.77099 c -7.8401,-6.85829 -20.5493,-13.7438 -31.3252,-16.97108 -10.6756,-3.19723 -34.8209,-3.28783 -44.9604,-0.16869 -10.6269,3.26908 -19.4067,9.59978 -22.8881,16.50354 -5.4996,10.90615 -3.0789,27.03283 5.2295,34.83817 6.641,6.23883 25.7237,16.16744 48.0207,24.9849 69.4706,27.47236 88.8227,45.75034 91.3842,86.31162 2.3712,37.5473 -18.8565,65.8758 -57.9572,77.3446 z"
         id="path1950" />
      <path
         style="fill:#999999;stroke-width:1.29853"
         d="m 2167.6348,1082.9131 c 10.2061,3.5265 44.6996,3.4044 58.4874,-0.207 12.6062,-3.3018 24.0102,-7.9161 24.8274,-10.0455 0.3445,-0.898 -2.3607,-10.1538 -6.0116,-20.5684 -6.0362,-17.218 -6.8867,-18.8735 -9.3774,-18.2518 -1.5066,0.3761 -6.8169,1.8894 -11.8008,3.3628 -19.3357,5.7166 -32.5149,1.3329 -37.8703,-12.5965 -2.1864,-5.6867 -2.3946,-12.6805 -2.765,-92.80574 l -0.4004,-86.65551 34.1384,-0.34629 34.1385,-0.3463 v -21.42582 -21.42582 l -34.0865,-0.34618 -34.0866,-0.3462 v -56.46469 c 0,-64.53103 1.18,-59.54432 -12.3361,-52.13421 -27.8221,15.2534 -35.2434,19.58128 -36.6836,21.39314 -1.224,1.53989 -1.6231,12.51742 -1.6231,44.64543 v 42.60345 h -22.1066 -22.1065 l 0.3561,21.75045 0.356,21.75045 21.6609,0.35563 21.6607,0.35562 0.4885,95.08666 c 0.4744,92.34923 0.5683,95.37423 3.2635,105.07473 5.8012,20.8796 15.0356,31.7682 31.8771,37.5876 z"
         id="path1948" />
      <path
         style="fill:#999999;stroke-width:1.29853"
         d="m 2227.3531,1078.9468 c -12.7828,4.1193 -45.7051,4.9119 -56.4662,1.3593 -12.835,-4.2372 -23.9258,-14.2974 -28.5135,-25.864 -5.5652,-14.0317 -5.4636,-12.1616 -6.2189,-114.54696 l -0.7231,-98.03934 -21.7504,-0.35604 -21.7505,-0.35603 v -18.79735 -18.79736 h 22.0751 22.0751 v -43.87128 -43.87128 l 21.2084,-11.9657 c 11.6646,-6.58113 21.5984,-11.96569 22.0751,-11.96569 0.4767,0 0.8666,25.12664 0.8666,55.83697 v 55.83698 h 33.762 33.7618 v 18.80684 18.80683 l -33.4372,0.34655 -33.4373,0.34656 v 90.24813 c 0,89.36197 0.027,90.30687 2.7675,96.23237 1.522,3.2914 4.7873,7.5251 7.2561,9.4082 8.3535,6.3715 23.2538,7.1703 38.2348,2.0497 l 6.7052,-2.292 5.7616,16.9018 5.7616,16.9016 -5.5992,2.4001 c -3.0795,1.3201 -9.5661,3.6785 -14.4146,5.2411 z"
         id="path1946" />
      <path
         id="path1944"
         style="fill:#999999;stroke-width:1.29853"
         d="m 2409.4228,795.27531 c -28.8913,-0.0308 -42.4729,2.03523 -63.3035,9.63249 -15.2581,5.56479 -36.5546,16.98419 -37.1167,19.90219 -0.6352,3.29857 11.7379,39.91642 13.7564,40.71172 0.9001,0.3546 3.5296,-0.77386 5.8434,-2.50894 7.2319,-5.42304 18.2097,-11.15987 30.2594,-15.81067 34.0864,-13.15623 69.3999,-11.13873 88.6553,5.06353 5.0924,4.28492 11.2407,17.04267 13.0888,27.1608 1.6128,8.82979 1.9121,35.79656 0.3975,35.79656 -0.5553,0 -2.1654,-0.80996 -3.578,-1.79944 -4.7757,-3.34503 -25.2984,-9.83459 -37.8832,-11.97974 -16.9759,-2.89361 -48.6888,-1.93337 -62.729,1.90025 -26.9875,7.36869 -48.4556,23.02772 -58.9477,42.9943 -7.2256,13.75018 -9.857,25.96026 -9.857,45.76003 0,20.85971 2.4425,33.36171 9.3073,47.65261 9.7839,20.3677 30.4636,36.6346 54.6202,42.964 12.6516,3.3148 49.1913,3.6414 61.9474,0.5534 11.0349,-2.6713 29.8047,-11.8148 39.6883,-19.3334 l 7.7912,-5.9271 0.6506,10.7396 0.6486,10.7395 h 23.3736 23.3736 V 978.20128 c 0,-92.87641 -0.197,-102.256 -2.3681,-112.9725 -7.2888,-35.97694 -27.226,-57.6797 -61.7229,-67.18965 -8.5412,-2.35459 -13.5466,-2.74006 -35.8955,-2.76382 z m -12.8433,144.83921 c 12.1565,-0.0564 25.7387,1.20298 34.3985,3.54181 10.9007,2.94409 25.3433,9.06702 31.1648,13.21233 l 3.7663,2.68203 v 24.21818 24.22013 l -10.0643,9.8436 c -11.5548,11.3024 -22.1412,18.1217 -35.652,22.9666 -7.915,2.8382 -12.1406,3.4637 -25.7038,3.8005 -10.2481,0.2544 -18.645,-0.2107 -22.7783,-1.2612 -16.2404,-4.1277 -28.0559,-13.184 -34.6343,-26.5464 -4.1073,-8.3434 -4.2684,-9.2564 -4.2684,-24.27905 0,-13.25826 0.4242,-16.52381 2.8075,-21.6807 6.445,-13.94545 22.3992,-25.01935 41.9919,-29.14475 4.8964,-1.03098 11.6782,-1.53925 18.9721,-1.57308 z" />
      <path
         style="fill:#999999;stroke-width:1.29853"
         d="m 2638.6135,1082.2407 v -10e-5 c 8.5333,2.5859 12.6472,2.9595 33.2295,3.0208 27.517,0.082 37.2518,-1.7797 55.0708,-10.5288 8.9764,-4.4075 13.2294,-7.6219 22.7751,-17.2132 9.7532,-9.8001 12.775,-13.879 17.8767,-24.1298 3.3767,-6.7849 6.4811,-14.1668 6.8987,-16.4045 l 0.7592,-4.0684 -21.8835,-7.2938 c -12.0358,-4.0116 -22.4833,-7.29373 -23.2166,-7.29373 -0.7333,0 -3.0382,3.94433 -5.1221,8.76513 -5.1159,11.8341 -16.5934,23.4838 -26.9487,27.353 -16.0626,6.0016 -32.6014,6.2213 -46.8383,0.622 -30.0805,-11.8304 -45.6677,-48.82809 -43.3794,-102.96542 1.305,-30.87143 7.1219,-51.66911 18.9075,-67.60162 6.8448,-9.25315 14.6576,-15.14708 26.0182,-19.62803 10.7471,-4.23888 32.7373,-4.20792 43.4138,0.0612 9.6279,3.84968 21.1514,14.95324 26.1155,25.16353 1.9966,4.10661 4.3345,7.46657 5.1954,7.46657 0.8609,0 11.1218,-3.50605 22.8021,-7.79121 11.6804,-4.28516 21.4254,-7.79121 21.656,-7.79121 1.8335,0 -0.5716,-7.37161 -5.6525,-17.32394 -8.0484,-15.76543 -23.596,-31.6337 -38.0785,-38.86386 -17.0207,-8.49727 -27.1581,-10.49578 -53.2399,-10.49578 -19.3965,0 -24.2458,0.41824 -33.1127,2.85595 -41.9709,11.5387 -68.8987,42.33753 -80.7823,92.3954 -2.7558,11.60833 -3.3371,17.83524 -3.9117,41.90035 -0.7474,31.29554 0.5131,45.89317 5.6876,65.87794 3.4246,13.22653 11.8901,32.41433 18.6103,42.18173 6.8866,10.0094 19.2819,22.4057 28.5936,28.5961 10.2329,6.8028 15.1936,9.0844 28.5562,13.1337 z"
         id="path1936" />
      <path
         style="fill:#999999;stroke-width:1.29853"
         d="m 2702.0856,1080.1072 v 3e-4 c -14.909,3.5738 -44.0438,3.543 -58.7166,-0.062 -16.8379,-4.1373 -32.1365,-12.8974 -45.0966,-25.8225 -19.7064,-19.6531 -30.8201,-43.5963 -36.4917,-78.61776 -2.5463,-15.72414 -2.1026,-57.96298 0.7778,-74.01646 9.8256,-54.76238 37.3653,-88.79346 81.1335,-100.25804 17.2034,-4.5062 43.2965,-4.74235 60.445,-0.54705 20.7608,5.07909 36.157,14.35199 48.455,29.18379 5.9031,7.11937 16.9997,27.42845 15.6978,28.73032 -0.6038,0.60382 -38.6292,14.94887 -39.6767,14.96795 -0.1366,0.003 -2.1131,-3.49391 -4.3921,-7.76979 -10.9127,-20.47435 -33.5034,-30.91278 -59.1741,-27.34234 -30.078,4.18347 -47.1475,22.12352 -56.6565,59.5463 -2.5831,10.16545 -2.8593,14.4237 -2.7999,43.09416 0.063,30.15793 0.2439,32.47141 3.4758,44.44082 10.2419,37.9286 31.718,56.8742 64.4197,56.8294 25.6286,-0.035 42.7412,-9.9893 53.0833,-30.8778 2.5781,-5.207 5.3172,-9.2373 6.087,-8.9561 0.7697,0.2812 9.748,3.2826 19.9517,6.6695 21.3916,7.1006 20.3137,4.9923 11.6529,22.7916 -4.3991,9.0409 -7.4995,13.1521 -17.1387,22.7267 -9.5095,9.4457 -13.916,12.7438 -22.9615,17.1849 -6.1566,3.0227 -16.0904,6.6698 -22.0751,8.1045 z"
         id="path1934" />
      <path
         style="fill:#999999;stroke-width:1.29853"
         d="m 2820.7284,897.3943 -0.3291,182.7426 h 24.6766 24.6767 v -62.3727 -62.37272 l 18.9109,-19.75962 c 10.4011,-10.86778 19.3123,-19.89123 19.8028,-20.05211 0.4904,-0.16086 6.471,10.64944 13.2903,24.02289 6.8192,13.37346 25.7777,50.46462 42.1299,82.42476 l 29.7314,58.1095 h 26.291 c 15.579,0 26.6082,-0.5131 27.0694,-1.2592 0.6149,-0.9951 -61.1434,-122.56437 -95.7783,-188.53617 l -6.5861,-12.54539 35.2873,-36.52146 c 19.408,-20.08681 35.2872,-37.37676 35.2872,-38.4221 0,-1.61193 -4.3887,-1.89811 -28.8923,-1.88769 l -28.8924,0.013 -37.0082,39.14865 c -20.3546,21.53176 -40.0761,42.58428 -43.8256,46.78337 l -6.8173,7.63474 V 791.9113 c 0,-87.00182 -0.2763,-102.63331 -1.8141,-102.63331 -0.9977,0 -11.9541,5.7091 -24.3475,12.68688 l -22.5334,12.68689 z"
         id="path1932" />
      <path
         style="fill:#999999;stroke-width:1.29853"
         d="m 2867.219,1014.8855 h -2e-4 l -0.063,62.6544 h -21.2093 c -11.6653,0 -21.5991,-0.3896 -22.0751,-0.8657 -1.216,-1.2161 -1.0477,-356.53168 0.1697,-358.44724 0.5477,-0.86162 10.3264,-6.83234 21.7306,-13.26828 l 20.7349,-11.70169 0.3324,102.54253 c 0.2786,85.95282 0.6213,102.54252 2.117,102.54252 1.4502,0 44.0943,-44.3141 83.2539,-86.51409 l 7.7912,-8.39615 25.3214,0.38325 25.3214,0.38324 -34.4116,35.4614 c -18.9261,19.50375 -34.6007,36.30712 -34.8325,37.34081 -0.4311,1.92303 14.5244,31.46476 70.2972,138.8589 l 31.6953,61.0312 -22.7896,0.3555 c -17.1756,0.268 -23.1633,-0.052 -24.3057,-1.2985 -0.8336,-0.9098 -9.7006,-17.7235 -19.7045,-37.3638 -37.3637,-73.35579 -64.3836,-125.36634 -66.0647,-127.16786 -1.4795,-1.58556 -4.7899,1.28154 -22.4901,19.47802 l -20.7551,21.33726 z"
         id="path1930" />
    </g>
    <g
       id="g251"
       style="fill:#cccccc">
      <path
         style="fill:#cccccc;stroke-width:1.29853"
         d="m 734.52915,1084.4654 c 0.47612,0.4761 1.38967,0.8657 2.0301,0.8657 0.64042,0 17.05065,-8.8681 36.46718,-19.7068 19.41651,-10.8388 46.67249,-26.0476 60.56882,-33.7975 13.89634,-7.7499 25.9767,-13.8181 26.84526,-13.4847 0.86857,0.3332 26.60446,14.5878 57.19088,31.6769 30.58642,17.089 57.56353,32.0675 59.94912,33.2855 8.49021,4.3347 8.05318,8.7039 7.68423,-76.8226 l -0.33487,-77.6243 -125.6332,-0.33109 -125.63321,-0.33109 v 77.70218 c 0,42.7361 0.38956,78.0916 0.86569,78.5678 z"
         id="path1972" />
      <path
         style="fill:#cccccc;stroke-width:1.29853"
         d="m 769.37315,1063.9113 c -9.28452,5.1915 -20.53307,11.5187 -24.99678,14.0604 l -8.11585,4.6212 v -75.8937 -75.8938 h 122.71151 122.7115 v 75.315 c 0,41.4233 -0.43825,75.3102 -0.9739,75.3102 -0.53564,0 -3.01909,-1.2626 -5.51876,-2.7997 -4.17159,-2.5652 -29.80986,-16.9528 -91.87277,-51.5565 l -23.69972,-13.214 -4.86804,2.4888 c -2.67743,1.3688 -19.18439,10.5065 -36.68215,20.3058 -17.49774,9.7994 -39.41051,22.0647 -48.69504,27.2563 z"
         id="path1970" />
      <path
         style="fill:#cccccc;stroke-width:1.29853"
         d="m 734.53561,900.07987 c 0.47967,0.47961 57.01461,0.72316 125.6332,0.54106 l 124.76106,-0.33108 v -17.53022 -17.53021 l -125.6332,-0.33109 -125.63321,-0.33111 v 17.32026 c 0,9.52614 0.39246,17.71271 0.87215,18.19239 z"
         id="path1928" />
      <path
         style="fill:#cccccc;stroke-width:1.29853"
         d="m 981.40012,882.43499 -0.36585,15.25778 -122.38687,0.33126 -122.38688,0.33126 v -15.58904 -15.58903 h 122.75272 122.75271 z"
         id="path1926" />
      <path
         style="fill:#cccccc;stroke-width:1.29853"
         d="m 734.53561,836.45168 c 0.47967,0.47961 57.01461,0.72317 125.6332,0.54106 l 124.76106,-0.33109 v -17.53021 -17.53022 l -125.6332,-0.33109 -125.63321,-0.33109 v 17.32025 c 0,9.52614 0.39246,17.71271 0.87215,18.19239 z"
         id="path1924" />
      <path
         style="fill:#cccccc;stroke-width:1.29853"
         d="m 981.68353,818.48218 v 14.93314 H 858.97203 736.26052 v -14.93314 -14.93316 h 122.71151 122.7115 z"
         id="path1860" />
    </g>
  </g>
</svg>
