<?xml version="1.0" encoding="UTF-8" standalone="no"?>
<!-- Created with Inkscape (http://www.inkscape.org/) -->

<svg
   width="400mm"
   height="65mm"
   viewBox="0 0 400 65"
   version="1.1"
   id="svg5"
   xml:space="preserve"
   inkscape:version="1.2.2 (b0a8486541, 2022-12-01)"
   sodipodi:docname="wordpress.svg"
   xmlns:inkscape="http://www.inkscape.org/namespaces/inkscape"
   xmlns:sodipodi="http://sodipodi.sourceforge.net/DTD/sodipodi-0.dtd"
   xmlns="http://www.w3.org/2000/svg"
   xmlns:svg="http://www.w3.org/2000/svg"><sodipodi:namedview
     id="namedview7"
     pagecolor="#ffffff"
     bordercolor="#cccccc"
     borderopacity="1"
     inkscape:showpageshadow="0"
     inkscape:pageopacity="1"
     inkscape:pagecheckerboard="0"
     inkscape:deskcolor="#d1d1d1"
     inkscape:document-units="mm"
     showgrid="false"
     inkscape:zoom="1.1789552"
     inkscape:cx="802.40538"
     inkscape:cy="302.38638"
     inkscape:window-width="2238"
     inkscape:window-height="1358"
     inkscape:window-x="0"
     inkscape:window-y="20"
     inkscape:window-maximized="1"
     inkscape:current-layer="layer1" /><defs
     id="defs2" /><g
     inkscape:label="Layer 1"
     inkscape:groupmode="layer"
     id="layer1"
     transform="translate(203.11279,-43.492474)"><g
       id="g209"
       style="fill:#cccccc"><path
         id="path235"
         style="fill:#cccccc;stroke-width:0.184378"
         d="m -169.08877,43.697133 c -3.8548,0 -5.08072,0.148247 -8.40426,1.016633 -8.94702,2.337697 -16.71634,8.808271 -20.80083,17.323671 -5.91719,12.336207 -3.40433,27.124226 6.24979,36.778331 5.04245,5.042442 11.86443,8.433442 18.71453,9.301962 1.75154,0.22212 6.49664,0.22787 8.302,0.0103 1.99484,-0.24049 5.58282,-1.12578 7.3937,-1.82418 6.97963,-2.69188 12.73078,-7.560564 16.50362,-13.971132 4.13424,-7.024704 5.43258,-15.405796 3.63548,-23.470059 -2.5885,-11.615642 -11.75338,-21.160731 -23.18635,-24.148066 -3.32697,-0.86931 -4.55198,-1.017391 -8.40768,-1.017391 z m 0,3.328299 c 3.22084,0 4.05925,0.06081 5.66951,0.410971 4.92575,1.071122 8.97693,2.99193 12.75943,6.049422 l 1.1136,0.89997 -0.80907,0.120072 c -1.70314,0.252967 -3.14493,1.336872 -3.8654,2.905586 -0.29524,0.64286 -0.38766,1.200922 -0.3818,2.321514 0.009,1.826016 0.32575,2.67738 2.16167,5.807763 3.12029,5.320313 3.62135,8.198173 2.29576,13.182899 -0.52799,1.985414 -3.97101,13.544558 -4.31122,14.473764 -0.0557,0.152111 -2.44879,-6.693005 -5.31764,-15.21124 -3.50778,-10.415415 -5.14736,-15.524997 -5.00665,-15.601379 0.11509,-0.06247 0.89429,-0.163432 1.73177,-0.224614 0.83746,-0.06118 1.68705,-0.199366 1.88781,-0.306808 0.70308,-0.376297 0.69574,-1.656151 -0.0117,-2.034781 -0.2465,-0.131902 -1.36392,-0.12459 -3.62905,0.02387 -3.10452,0.203469 -8.73272,0.139708 -11.77574,-0.133328 -1.1814,-0.106 -1.351,-0.0785 -1.70525,0.275748 -0.47738,0.477342 -0.5056,1.139449 -0.0708,1.662066 0.25666,0.308507 0.6057,0.409486 1.70563,0.493166 0.76055,0.05786 1.55625,0.139585 1.7685,0.181812 0.32355,0.06435 0.75083,1.074705 2.64461,6.251687 l 2.25902,6.174418 -3.08285,9.270906 h 7.3e-4 c -1.6954,5.098879 -3.1395,9.333595 -3.20899,9.410675 -0.15405,0.170904 -10.58358,-30.773589 -10.44662,-30.99519 0.0534,-0.08646 0.85554,-0.206211 1.78252,-0.266279 1.21621,-0.07879 1.78257,-0.197071 2.0344,-0.424986 0.45749,-0.414457 0.45522,-1.395595 -0.004,-1.811683 -0.32401,-0.293224 -0.59932,-0.302904 -3.36466,-0.120829 -3.49319,0.229982 -6.97732,0.260248 -6.97439,0.0606 7.3e-4,-0.07606 0.36262,-0.618573 0.80338,-1.205642 4.38794,-5.844358 10.35988,-9.637611 17.67896,-11.229175 1.61027,-0.350154 2.44829,-0.410971 5.66913,-0.410971 z m 25.72075,15.391917 0.5352,1.054889 c 0.77737,1.532036 1.55134,3.73742 2.05145,5.846398 1.87384,7.901944 0.38322,16.041919 -4.1938,22.90379 -1.56619,2.348036 -4.97223,5.855746 -7.25166,7.467935 -0.81612,0.577229 -1.62491,1.103689 -1.79691,1.169659 -0.35205,0.13509 -0.15265,-0.45852 8.97736,-26.745709 1.22553,-3.528575 1.62978,-5.719929 1.65638,-8.982658 z m -52.32328,1.786304 0.19053,0.530285 c 0.1048,0.291685 3.18889,8.736872 6.85356,18.767184 3.66467,10.030312 6.63957,18.307458 6.61076,18.393708 -0.0834,0.2502 -2.84347,-1.40429 -4.69491,-2.814297 -5.3349,-4.062885 -9.19837,-10.072363 -10.7167,-16.669148 -1.29946,-5.64583 -0.81914,-11.905729 1.31397,-17.124434 z m 27.176,14.752544 c 0.14487,0.15581 9.02057,24.437103 8.95614,24.501463 -0.17288,0.17289 -3.66564,1.04928 -5.01006,1.25715 -1.82963,0.28292 -4.88594,0.45669 -6.17896,0.35151 -2.42402,-0.1972 -5.96798,-0.85532 -6.32631,-1.17496 -0.0824,-0.0735 1.78104,-5.744799 4.14115,-12.602615 2.36007,-6.857823 4.34834,-12.407503 4.41804,-12.332548 z" /></g><g
       id="g206"
       style="fill:#999999"><path
         id="path2320"
         style="fill:#999999;stroke-width:0.184378"
         d="m -70.638607,70.242848 c -1.425799,0.0026 -2.851395,0.118602 -3.680181,0.346579 -2.976548,0.818769 -5.196339,2.593601 -6.453954,5.160057 -1.114382,2.274152 -1.365484,3.469423 -1.36094,6.477438 0.0045,3.019603 0.296698,4.46742 1.321169,6.545238 1.274624,2.585182 3.881975,4.59353 6.678188,5.14377 0.557743,0.109756 1.180094,0.232408 1.382909,0.27234 0.202816,0.03992 1.139834,0.08216 2.082128,0.09394 5.772917,0.07207 9.788955,-2.76419 11.21857,-7.922844 0.464732,-1.676965 0.475505,-6.409084 0.01856,-8.096703 -1.091623,-4.031652 -3.639067,-6.633836 -7.524752,-7.686868 -0.829791,-0.224893 -2.255897,-0.335604 -3.681697,-0.332943 z m 0.143935,4.631665 c 1.64507,0.0146 2.623462,0.412282 3.676394,1.463209 1.348894,1.346333 1.804107,2.831903 1.804107,5.8892 0,3.647146 -0.874253,5.729784 -2.858239,6.808488 -0.798617,0.434212 -1.264824,0.551396 -2.382876,0.598086 -2.943594,0.12287 -4.703264,-1.082332 -5.54906,-3.799875 -1.032075,-3.316068 -0.381832,-7.880063 1.363213,-9.568623 0.884494,-0.855869 2.194012,-1.359807 3.608593,-1.388591 0.115817,-0.0023 0.228197,-0.0029 0.337868,-0.0019 z" /><path
         id="path2338"
         style="fill:#999999;stroke-width:0.184378"
         d="m 143.66114,70.168608 c -0.31614,0.0017 -0.63656,0.01272 -0.96058,0.03371 -4.58083,0.296778 -7.5922,2.154491 -9.40044,5.799052 -0.91471,1.843618 -1.18537,3.292834 -1.17951,6.317594 0.006,3.05297 0.35491,4.72892 1.39579,6.695234 1.26044,2.381057 3.9521,4.381463 6.59599,4.901732 0.55774,0.109748 1.1801,0.232028 1.38291,0.271961 0.20282,0.03992 1.13983,0.08254 2.08213,0.09432 4.71727,0.05889 8.3826,-1.88524 10.21558,-5.418004 1.08808,-2.097129 1.32972,-3.278145 1.33858,-6.545238 0.009,-3.136348 -0.2097,-4.320874 -1.17155,-6.361154 -1.7386,-3.687943 -5.55677,-5.814515 -10.2989,-5.789203 z m 0.0909,4.705526 c 1.64506,0.0146 2.62383,0.412654 3.67677,1.463588 1.3489,1.346325 1.80372,2.831518 1.80372,5.888821 0,3.636673 -0.88748,5.735797 -2.88551,6.82326 -0.7988,0.43477 -1.24226,0.540952 -2.45256,0.588617 -1.83003,0.07213 -3.11857,-0.377768 -4.16274,-1.45374 -2.41467,-2.488144 -2.37087,-9.554468 0.0738,-11.920061 0.8845,-0.855869 2.19402,-1.359428 3.6086,-1.388212 0.11582,-0.0023 0.2282,-0.0032 0.33787,-0.0023 z" /><path
         id="path2328"
         style="fill:#999999;stroke-width:0.184378"
         d="m 44.621986,70.181865 c -1.82738,0.01221 -3.67521,0.409269 -5.249069,1.201854 -2.671438,1.345315 -4.890432,4.351084 -5.554361,7.524373 -0.356629,1.704603 -0.351351,5.266099 0.01019,7.060373 0.925652,4.593321 3.978266,7.430485 8.840237,8.216396 0.304221,0.0492 1.880389,0.05618 3.502917,0.01591 2.841107,-0.07055 4.602886,-0.311609 6.676289,-0.914364 L 53.823917,93.0027 v -2.411663 c 0,-1.922851 -0.0497,-2.392269 -0.243934,-2.317726 -4.622588,1.773862 -9.545161,1.833081 -11.878016,0.143177 -0.937489,-0.679118 -1.83704,-2.441728 -2.005991,-3.930931 L 39.5759,83.425364 h 7.383852 7.383844 l 0.130675,-1.565479 c 0.379058,-4.550526 -1.000584,-8.161903 -3.843428,-10.060273 -1.627711,-1.086948 -3.803437,-1.632488 -6.008893,-1.61775 z m -0.05226,4.356675 c 2.376313,0 3.907073,1.7233 3.907073,4.398718 v 0.800731 h -4.302132 c -2.36619,0 -4.347561,-0.04583 -4.403267,-0.101512 -0.129451,-0.129463 0.155831,-1.40609 0.496195,-2.22076 0.743413,-1.779208 2.385189,-2.877177 4.302131,-2.877177 z" /><path
         id="path2346"
         style="fill:#999999;stroke-width:0.184378"
         d="m -8.8645085,61.299961 v 16.225222 16.225222 h 3.0423239 3.0419448 v -5.599436 -5.599815 l 3.54950454,-0.09621 C 4.8422329,82.344673 6.3321961,82.045352 8.5159789,80.897799 c 3.2571571,-1.711591 5.1134671,-4.976027 5.1134671,-8.991748 0,-4.902079 -2.211548,-8.183725 -6.5649345,-9.741346 C 5.0467,61.442745 3.3901785,61.299961 -2.9779605,61.299961 Z m 6.0842687,4.756661 3.08853503,0.08598 c 3.49509797,0.09737 4.13204747,0.251709 5.30399107,1.283291 1.0969683,0.965589 1.5639636,2.239345 1.5639636,4.265011 0,2.818483 -0.8789368,4.566541 -2.7324857,5.435427 -0.9807595,0.459745 -1.2436213,0.494933 -4.13546897,0.552633 l -3.08853503,0.06174 v -5.841853 z" /><path
         id="path2324"
         style="fill:#999999;stroke-width:0.184378"
         d="m -21.586816,61.299961 v 4.578637 c 0,2.51829 -0.04097,4.619989 -0.09129,4.6703 -0.05028,0.05029 -0.776165,-0.02405 -1.613205,-0.165146 -1.782579,-0.300486 -4.866094,-0.193976 -6.407743,0.221205 -4.017478,1.081923 -6.813813,4.001325 -7.952767,8.303135 -0.520094,1.964357 -0.574187,6.220149 -0.101891,8.020569 0.977812,3.727459 3.237669,6.214958 6.395244,7.040298 2.864761,0.748804 6.151864,0.151791 8.988339,-1.632901 l 0.967772,-0.609071 v 1.011709 1.011709 h 2.765817 2.76544 V 77.525183 61.299961 h -2.857861 z m -3.852145,13.49463 c 0.850202,-0.0087 1.717556,0.08137 2.469615,0.276128 l 1.290487,0.33408 0.04886,5.852458 0.04849,5.852459 -1.154887,0.854517 c -0.635215,0.4699 -1.528451,1.020145 -1.984783,1.222686 -1.08733,0.482618 -3.165381,0.597452 -4.131681,0.228402 -1.862985,-0.711528 -2.915722,-2.362001 -3.271484,-5.129376 -0.533438,-4.149428 0.992457,-7.783177 3.770709,-8.979628 0.756517,-0.325802 1.82156,-0.500495 2.914677,-0.511726 z" /><path
         style="fill:#999999;stroke-width:0.184378"
         d="M 159.84089,82.226899 V 70.703306 h 2.67348 2.67348 v 1.106265 c 0,0.608443 0.0738,1.106266 0.16392,1.106266 0.0902,0 0.72819,-0.329734 1.41786,-0.732742 0.68964,-0.403008 1.96413,-0.998433 2.83218,-1.323176 1.41344,-0.528764 1.79018,-0.591516 3.60646,-0.60075 1.84278,-0.0093 2.12927,0.03658 3.13442,0.503119 1.17257,0.544192 2.34672,1.547817 2.78285,2.378711 l 0.26336,0.501733 1.15037,-0.746435 c 1.68258,-1.091771 3.99303,-2.151409 5.42659,-2.488788 4.391,-1.033394 8.29922,1.383624 9.09018,5.621815 0.10689,0.572777 0.18535,4.533403 0.18535,9.357159 v 8.364015 h -2.84895 -2.84894 l -0.055,-8.158706 c -0.0537,-7.965341 -0.0647,-8.179591 -0.4619,-9.039955 -0.32129,-0.695849 -0.57342,-0.956824 -1.19846,-1.240495 -0.43536,-0.197594 -1.02848,-0.361078 -1.31808,-0.363308 -0.96704,-0.0075 -2.77612,0.573029 -4.40557,1.413588 l -1.6133,0.832225 v 8.278329 8.278322 h -2.84569 -2.84568 l -0.0712,-8.066519 c -0.0548,-6.205643 -0.12931,-8.228566 -0.32305,-8.768966 -0.31759,-0.885863 -1.26821,-1.731356 -2.12792,-1.892645 -1.2258,-0.229963 -3.72037,0.49213 -5.61866,1.626416 l -1.01018,0.603592 -0.048,8.249061 -0.048,8.249061 h -2.85595 -2.85595 z"
         id="path2354" /><path
         style="fill:#999999;stroke-width:0.184378"
         d="M 100.47132,90.800459 V 87.85042 h 2.85785 2.85786 v 2.950039 2.950039 h -2.85786 -2.85785 z"
         id="path2352" /><path
         style="fill:#999999;stroke-width:0.184378"
         d="M 17.132664,82.226899 V 70.703306 h 2.673475 2.673476 v 1.843773 c 0,1.922456 0.154064,2.240629 0.634808,1.310983 0.455742,-0.881319 1.883731,-2.175034 3.008599,-2.725706 0.916893,-0.448862 1.32291,-0.52714 3.040278,-0.586136 l 1.982052,-0.06809 v 2.469428 2.469421 l -1.743689,0.207316 c -2.834312,0.336988 -4.449621,1.290055 -5.848416,3.450677 l -0.70488,1.088754 v 6.793389 6.793382 h -2.857855 -2.857848 z"
         id="path2350" /><path
         style="fill:#999999;stroke-width:0.184378"
         d="M -54.405828,82.226899 V 70.703306 h 2.667233 2.667231 l 0.05233,1.960288 0.05233,1.960295 0.601091,-0.928754 c 0.77293,-1.194257 1.7056,-2.005661 2.985864,-2.597623 0.831857,-0.384631 1.374808,-0.486533 2.912354,-0.546589 l 1.889871,-0.07382 v 2.469944 2.469937 l -1.705496,0.206682 c -0.938017,0.113672 -2.100338,0.377984 -2.582941,0.587355 -1.05492,0.457677 -2.495554,1.765168 -3.263465,2.961844 l -0.560715,0.873793 v 6.851926 6.851919 h -2.857851 -2.857852 z"
         id="path2344" /><path
         style="fill:#999999;stroke-width:0.184378"
         d="m -114.78452,93.243462 c -0.07,-0.278869 -2.02875,-7.499483 -4.35286,-16.04581 -2.32411,-8.54632 -4.22566,-15.619506 -4.22566,-15.718188 0,-0.109269 1.22546,-0.179421 3.13442,-0.179421 1.72393,0 3.13442,0.04341 3.13442,0.09656 0,0.125067 5.87967,24.586982 6.02439,25.064038 0.0661,0.217811 1.23166,-3.654132 2.92878,-9.729073 l 2.81901,-10.090876 -0.72352,-2.531749 c -0.39794,-1.392458 -0.72352,-2.596019 -0.72352,-2.674577 0,-0.07855 1.46711,-0.120166 3.26025,-0.09247 l 3.26025,0.05038 3.148898,12.109485 c 1.731894,6.66022 3.189594,12.150188 3.239334,12.199923 0.04974,0.04975 1.452762,-5.150619 3.117827,-11.556352 1.665064,-6.405733 3.100072,-11.916447 3.188905,-12.24602 l 0.161514,-0.59923 h 2.961362 2.961364 l -0.110273,0.414855 c -0.06065,0.228166 -2.131275,7.508772 -4.601395,16.179133 l -4.491123,15.764279 h -3.466655 -3.466652 l -2.406806,-8.435276 c -1.32375,-4.639401 -2.45215,-8.433979 -2.50756,-8.432397 -0.0554,0.0014 -1.25744,3.818201 -2.67118,8.481373 l -2.57044,8.478487 h -3.44794 -3.44794 z"
         id="path2342" /><path
         style="fill:#999999;stroke-width:0.184378"
         d="m 118.63251,94.183847 c -4.68363,-0.748999 -7.62937,-3.285124 -8.78823,-7.566186 -0.52216,-1.928979 -0.575,-6.189526 -0.0991,-7.986122 1.0929,-4.125453 3.87906,-6.907514 8.05759,-8.045752 1.9079,-0.519711 6.39342,-0.445712 8.57356,0.141449 l 1.6594,0.446917 0.0516,2.460997 0.0515,2.460996 -0.42036,-0.123714 c -2.85596,-0.840518 -4.05695,-1.065081 -5.76731,-1.078397 -1.47957,-0.0115 -2.04409,0.06453 -2.85785,0.384994 -2.46624,0.971221 -3.73784,3.276671 -3.73784,6.776832 0,5.772663 3.11328,8.384015 8.80822,7.388167 0.91267,-0.159595 2.26331,-0.496346 3.00143,-0.74833 l 1.34203,-0.458151 -0.0514,2.43115 -0.0514,2.431156 -2.02816,0.527447 c -1.66154,0.432095 -2.49475,0.538066 -4.60943,0.58622 -1.41971,0.03233 -2.8302,0.01895 -3.13442,-0.02969 z"
         id="path2336" /><path
         style="fill:#999999;stroke-width:0.184378"
         d="M 82.678889,93.940497 C 81.766218,93.741808 80.687608,93.464353 80.28198,93.323929 l -0.737505,-0.255323 -0.05138,-2.40701 -0.05131,-2.407011 1.12659,0.350632 c 1.792205,0.557795 4.652545,1.088976 5.864014,1.088976 2.65732,0 4.044586,-0.730887 4.210795,-2.21851 0.167104,-1.495426 -0.569947,-2.051904 -4.402732,-3.324022 -3.899362,-1.294215 -5.313908,-2.238196 -6.272852,-4.186073 -0.554247,-1.12582 -0.606831,-1.380049 -0.599266,-2.897385 0.0073,-1.372612 0.08634,-1.824373 0.455038,-2.585163 0.901669,-1.860456 2.969627,-3.35228 5.528956,-3.988569 1.959953,-0.487272 8.022874,-0.230459 9.725912,0.411969 0.400564,0.151101 0.41485,0.238041 0.41485,2.525296 v 2.368809 l -1.277715,-0.324479 c -4.021849,-1.02136 -6.95891,-0.914894 -8.284935,0.300319 -0.549167,0.503265 -0.661913,0.732804 -0.661913,1.347399 0,1.313756 0.900643,1.913878 4.601046,3.065711 3.626768,1.128907 5.394711,2.298587 6.240762,4.128925 0.327911,0.709403 0.395983,1.194787 0.391929,2.794485 -0.0044,1.735607 -0.0579,2.044999 -0.517289,2.989481 -0.8743,1.797704 -2.734393,3.109697 -5.318189,3.751115 -0.653396,0.162208 -2.300736,0.324353 -3.747247,0.368855 -2.093429,0.06439 -2.894915,0.01115 -4.240687,-0.281859 z"
         id="path2334" /><path
         style="fill:#999999;stroke-width:0.184378"
         d="M 62.366764,94.043458 C 61.6401,93.904546 60.499261,93.609098 59.831571,93.386904 l -1.213953,-0.403977 v -2.364976 -2.364976 l 1.152354,0.353434 c 5.933163,1.819732 10.094673,1.262445 10.094673,-1.351818 0,-0.630318 -0.112893,-0.859312 -0.69813,-1.416034 -0.561811,-0.534436 -1.254846,-0.855821 -3.549263,-1.6459 -1.568134,-0.539983 -3.282182,-1.2274 -3.808986,-1.527601 -1.278675,-0.72863 -2.535815,-2.157123 -2.922254,-3.320581 -0.44356,-1.335441 -0.308224,-4.007732 0.258256,-5.099552 0.992749,-1.91339 3.300323,-3.339709 6.234195,-3.853378 1.928956,-0.337727 5.171924,-0.239797 7.666693,0.231518 l 1.613307,0.304785 v 2.399868 2.399875 L 74.15142,75.619124 c -0.278868,-0.05965 -1.129309,-0.247942 -1.889866,-0.418429 -0.810246,-0.181616 -2.260796,-0.318027 -3.503174,-0.329427 -1.864586,-0.01714 -2.213394,0.03024 -2.891763,0.392911 -0.42429,0.226807 -0.901361,0.597891 -1.060168,0.824629 -0.328592,0.469126 -0.379497,1.475511 -0.100982,1.995933 0.303929,0.567913 1.591715,1.196328 4.099024,2.000274 3.917738,1.256181 5.513468,2.255701 6.413166,4.01705 0.405621,0.794037 0.454884,1.120175 0.454833,3.01084 -5.9e-5,1.939892 -0.04185,2.19943 -0.490543,3.049634 -1.400775,2.653964 -4.171281,3.914911 -8.912663,4.056437 -1.725071,0.0515 -3.019534,-0.007 -3.90252,-0.175518 z"
         id="path2332" /></g></g></svg>
