<?xml version="1.0" encoding="UTF-8" standalone="no"?>
<svg
   height="90"
   width="400"
   xml:space="preserve"
   y="0"
   x="0"
   id="Layer_1"
   version="1.1"
   viewBox="-57.15 -21.25 165.1 14.34375"
   sodipodi:docname="youtube.svg"
   inkscape:version="1.2.2 (b0a8486541, 2022-12-01)"
   xmlns:inkscape="http://www.inkscape.org/namespaces/inkscape"
   xmlns:sodipodi="http://sodipodi.sourceforge.net/DTD/sodipodi-0.dtd"
   xmlns="http://www.w3.org/2000/svg"
   xmlns:svg="http://www.w3.org/2000/svg"><defs
     id="defs321" /><sodipodi:namedview
     id="namedview319"
     pagecolor="#ffffff"
     bordercolor="#cccccc"
     borderopacity="1"
     inkscape:showpageshadow="0"
     inkscape:pageopacity="1"
     inkscape:pagecheckerboard="0"
     inkscape:deskcolor="#d1d1d1"
     showgrid="false"
     inkscape:zoom="3.7864066"
     inkscape:cx="202.56673"
     inkscape:cy="-7.2628228"
     inkscape:window-width="2238"
     inkscape:window-height="1358"
     inkscape:window-x="0"
     inkscape:window-y="20"
     inkscape:window-maximized="1"
     inkscape:current-layer="Layer_1" /><style
     id="style7427"
     type="text/css">.st2{fill:#282828}</style><g
     id="g7433"
     style="fill:#cccccc"
     transform="matrix(0.43097184,0,0,0.43097184,-56.700083,-32.394428)"><path
       id="path7429"
       d="m 60.699799,-3.515625e-4 c 0,0 -38.000118,6.8707031e-4 -47.500109,2.5006845625 C 8.0996955,3.9003316 3.899629,8.1003612 2.4996304,13.300356 -3.6712891e-4,22.800346 -2.4804688e-4,42.5 -2.4804688e-4,42.5 c 0,0 -1.1908203e-4,19.799653 2.49987844688,29.199644 1.3999986,5.199995 5.5000652,9.300062 10.7000596,10.70006 9.599991,2.599998 47.500109,2.600648 47.500109,2.600648 0,0 38.000118,-6.88e-4 47.500111,-2.500685 5.19999,-1.399999 9.30006,-5.500065 10.70006,-10.70006 2.49999,-9.499991 2.49988,-29.199644 2.49988,-29.199644 0,0 0.10011,-19.799617 -2.49988,-29.299607 -1.4,-5.1999948 -5.50007,-9.3000615 -10.70006,-10.7000601 C 98.699917,2.9849844e-4 60.699799,-3.515625e-4 60.699799,-3.515625e-4 Z M 48.600258,24.300305 80.199818,42.5 48.600258,60.699695 Z"
       style="fill:#cccccc" /></g><g
     id="g7451"
     style="fill:#999999"
     transform="matrix(0.43097184,0,0,0.43097184,-56.700083,-32.394428)"><g
       id="g7449"
       style="fill:#999999"><path
         id="path7435"
         d="m 176.3,77.4 c -2.4,-1.6 -4.1,-4.1 -5.1,-7.6 -1,-3.4 -1.5,-8 -1.5,-13.6 v -7.7 c 0,-5.7 0.6,-10.3 1.7,-13.8 1.2,-3.5 3,-6 5.4,-7.6 2.5,-1.6 5.7,-2.4 9.7,-2.4 3.9,0 7.1,0.8 9.5,2.4 2.4,1.6 4.1,4.2 5.2,7.6 1.1,3.4 1.7,8 1.7,13.8 v 7.7 c 0,5.7 -0.5,10.2 -1.6,13.7 -1.1,3.4 -2.8,6 -5.2,7.6 -2.4,1.6 -5.7,2.4 -9.8,2.4 -4.2,-0.1 -7.6,-0.9 -10,-2.5 z M 189.8,69 c 0.7,-1.7 1,-4.6 1,-8.5 V 43.9 c 0,-3.8 -0.3,-6.6 -1,-8.4 -0.7,-1.8 -1.8,-2.6 -3.5,-2.6 -1.6,0 -2.8,0.9 -3.4,2.6 -0.7,1.8 -1,4.6 -1,8.4 v 16.6 c 0,3.9 0.3,6.8 1,8.5 0.6,1.7 1.8,2.6 3.5,2.6 1.6,0 2.7,-0.8 3.4,-2.6 z"
         class="st2"
         style="fill:#999999" /><path
         id="path7437"
         d="M 360.9,56.3 V 59 c 0,3.4 0.1,6 0.3,7.7 0.2,1.7 0.6,3 1.3,3.7 0.6,0.8 1.6,1.2 3,1.2 1.8,0 3,-0.7 3.7,-2.1 0.7,-1.4 1,-3.7 1.1,-7 l 10.3,0.6 c 0.1,0.5 0.1,1.1 0.1,1.9 0,4.9 -1.3,8.6 -4,11 -2.7,2.4 -6.5,3.6 -11.4,3.6 -5.9,0 -10,-1.9 -12.4,-5.6 -2.4,-3.7 -3.6,-9.4 -3.6,-17.2 v -9.3 c 0,-8 1.2,-13.8 3.7,-17.5 2.5,-3.7 6.7,-5.5 12.6,-5.5 4.1,0 7.3,0.8 9.5,2.3 2.2,1.5 3.7,3.9 4.6,7 0.9,3.2 1.3,7.6 1.3,13.2 v 9.1 h -20.1 z m 1.5,-22.4 c -0.6,0.8 -1,2 -1.2,3.7 -0.2,1.7 -0.3,4.3 -0.3,7.8 v 3.8 h 8.8 v -3.8 c 0,-3.4 -0.1,-6 -0.3,-7.8 -0.2,-1.8 -0.7,-3 -1.3,-3.7 -0.6,-0.7 -1.6,-1.1 -2.8,-1.1 -1.4,-0.1 -2.3,0.3 -2.9,1.1 z"
         class="st2"
         style="fill:#999999" /><path
         id="path7439"
         d="M 147.1,55.3 133.5,6 h 11.9 l 4.8,22.3 c 1.2,5.5 2.1,10.2 2.7,14.1 h 0.3 c 0.4,-2.8 1.3,-7.4 2.7,-14 l 5,-22.4 h 11.9 L 159,55.3 V 78.9 H 147.2 V 55.3 Z"
         class="st2"
         style="fill:#999999" /><path
         id="path7441"
         d="M 241.6,25.7 V 79 h -9.4 l -1,-6.5 h -0.3 c -2.5,4.9 -6.4,7.4 -11.5,7.4 -3.5,0 -6.1,-1.2 -7.8,-3.5 -1.7,-2.3 -2.5,-5.9 -2.5,-10.9 V 25.7 h 12 v 39.1 c 0,2.4 0.3,4.1 0.8,5.1 0.5,1 1.4,1.5 2.6,1.5 1,0 2,-0.3 3,-1 1,-0.6 1.7,-1.4 2.1,-2.4 V 25.7 Z"
         class="st2"
         style="fill:#999999" /><path
         id="path7443"
         d="M 303.1,25.7 V 79 h -9.4 l -1,-6.5 h -0.3 c -2.5,4.9 -6.4,7.4 -11.5,7.4 -3.5,0 -6.1,-1.2 -7.8,-3.5 -1.7,-2.3 -2.5,-5.9 -2.5,-10.9 V 25.7 h 12 v 39.1 c 0,2.4 0.3,4.1 0.8,5.1 0.5,1 1.4,1.5 2.6,1.5 1,0 2,-0.3 3,-1 1,-0.6 1.7,-1.4 2.1,-2.4 V 25.7 Z"
         class="st2"
         style="fill:#999999" /><path
         id="path7445"
         d="M 274.2,15.7 H 262.3 V 78.9 H 250.6 V 15.7 H 238.7 V 6 h 35.5 z"
         class="st2"
         style="fill:#999999" /><path
         id="path7447"
         d="m 342.8,34.2 c -0.7,-3.4 -1.9,-5.8 -3.5,-7.3 -1.6,-1.5 -3.9,-2.3 -6.7,-2.3 -2.2,0 -4.3,0.6 -6.2,1.9 -1.9,1.2 -3.4,2.9 -4.4,4.9 h -0.1 V 3.3 h -11.6 v 75.6 h 9.9 l 1.2,-5 h 0.3 c 0.9,1.8 2.3,3.2 4.2,4.3 1.9,1 3.9,1.6 6.2,1.6 4.1,0 7,-1.9 8.9,-5.6 1.9,-3.7 2.9,-9.6 2.9,-17.5 v -8.4 c -0.1,-6.1 -0.4,-10.8 -1.1,-14.1 z m -11,21.7 c 0,3.9 -0.2,6.9 -0.5,9.1 -0.3,2.2 -0.9,3.8 -1.6,4.7 -0.8,0.9 -1.8,1.4 -3,1.4 -1,0 -1.9,-0.2 -2.7,-0.7 -0.8,-0.5 -1.5,-1.2 -2,-2.1 V 38.1 c 0.4,-1.4 1.1,-2.6 2.1,-3.6 1,-0.9 2.1,-1.4 3.2,-1.4 1.2,0 2.2,0.5 2.8,1.4 0.7,1 1.1,2.6 1.4,4.8 0.3,2.3 0.4,5.5 0.4,9.6 v 7 z"
         class="st2"
         style="fill:#999999" /></g></g></svg>
