<?xml version="1.0" encoding="UTF-8" standalone="no"?>
<svg
   width="180mm"
   height="24.872274mm"
   viewBox="0 0 179.99999 24.872274"
   version="1.1"
   id="svg8"
   inkscape:version="1.2.2 (b0a8486541, 2022-12-01)"
   sodipodi:docname="digin-full.svg"
   xmlns:inkscape="http://www.inkscape.org/namespaces/inkscape"
   xmlns:sodipodi="http://sodipodi.sourceforge.net/DTD/sodipodi-0.dtd"
   xmlns="http://www.w3.org/2000/svg"
   xmlns:svg="http://www.w3.org/2000/svg"
   xmlns:rdf="http://www.w3.org/1999/02/22-rdf-syntax-ns#"
   xmlns:cc="http://creativecommons.org/ns#"
   xmlns:dc="http://purl.org/dc/elements/1.1/">
  <defs
     id="defs2" />
  <sodipodi:namedview
     id="base"
     pagecolor="#ffffff"
     bordercolor="#666666"
     borderopacity="1.0"
     inkscape:pageopacity="0.0"
     inkscape:pageshadow="2"
     inkscape:zoom="1.8732448"
     inkscape:cx="340.31857"
     inkscape:cy="53.116389"
     inkscape:document-units="mm"
     inkscape:current-layer="text166"
     inkscape:document-rotation="0"
     showgrid="false"
     inkscape:window-width="2238"
     inkscape:window-height="1358"
     inkscape:window-x="0"
     inkscape:window-y="20"
     inkscape:window-maximized="1"
     inkscape:snap-global="false"
     inkscape:showpageshadow="0"
     inkscape:pagecheckerboard="0"
     inkscape:deskcolor="#d1d1d1" />
  <metadata
     id="metadata5">
    <rdf:RDF>
      <cc:Work
         rdf:about="">
        <dc:format>image/svg+xml</dc:format>
        <dc:type
           rdf:resource="http://purl.org/dc/dcmitype/StillImage" />
      </cc:Work>
    </rdf:RDF>
  </metadata>
  <g
     inkscape:label="Layer 1"
     inkscape:groupmode="layer"
     id="layer1"
     transform="translate(-100.6936,-158.46247)">
    <path
       style="color:#000000;overflow:visible;fill:#6e8bff;fill-opacity:1;stroke:#6e8bff;stroke-width:1.26905;stroke-miterlimit:4;stroke-dasharray:none;stroke-opacity:1;stop-color:#000000"
       id="path1111"
       d="m 102.9171,165.85653 c -0.0838,-1.7058 -0.28814,-3.40111 -0.53305,-5.09016 -0.0449,-0.30828 -0.0917,-0.61633 -0.1303,-0.92549 -0.0139,-0.11134 -0.0327,-0.21903 -0.0164,-0.33028 1.37912,-0.0314 2.75221,0.20709 4.10819,0.429 2.17348,0.43143 4.29955,1.13882 6.20603,2.28503 0.36876,0.2217 0.7177,0.47481 1.07651,0.71223 1.24463,0.90684 2.37484,1.98125 3.28093,3.2309 0.5134,0.70807 0.62383,0.9656 1.03714,1.72158 0.6224,1.33325 0.98359,2.79229 0.88802,4.27161 -0.0194,0.28975 -0.0709,0.57644 -0.10637,0.86466 -0.26342,1.38736 -0.79635,2.72758 -1.62253,3.8789 -0.14992,0.20893 -0.31975,0.40284 -0.4796,0.60428 -0.87133,0.97387 -1.92535,1.77023 -3.05561,2.42088 -0.2192,0.12622 -0.44552,0.23959 -0.66827,0.35938 -1.11647,0.58921 -2.33282,0.90552 -3.56704,1.12685 -0.89019,0.14423 -1.78937,0.21822 -2.68447,0.32371 -0.45988,0.0595 -0.91958,0.12289 -1.3826,0.1516 -0.25877,0.008 -0.23429,0.0669 -0.24213,-0.18836 -0.0979,-0.96233 -0.13085,-1.92895 -0.16202,-2.89524 -0.0502,-1.70378 -0.0733,-3.40815 -0.0782,-5.11264 0.005,-1.50103 0.0634,-3.00111 0.0967,-4.50162 0.0257,-1.17067 0.0363,-2.3416 0.0214,-3.51247 -0.007,-0.62192 -0.035,-1.24295 -0.0676,-1.86392 -0.0184,-0.35995 -0.0269,-0.72046 -0.0287,-1.08092 -4.8e-4,-0.17955 0.004,-0.35909 0.0126,-0.53839 0.004,-0.01 0.006,-0.0383 0.0183,-0.0446 0.0617,-0.0281 0.4249,0.0791 0.45861,0.087 0.8741,0.21668 1.71156,0.54238 2.52995,0.9136 0.72313,0.34492 1.42101,0.7461 2.07307,1.21255 0.52068,0.37247 0.71842,0.55016 1.21862,0.96219 0.9995,0.8694 1.96693,1.77724 2.88023,2.73702 0.49338,0.50667 0.83188,1.12145 1.13842,1.7513 0.27102,0.55191 0.37548,1.14763 0.40791,1.75546 0.0242,0.80273 -0.0709,1.60016 -0.20752,2.38935 -0.107,0.67149 -0.362,1.29771 -0.66241,1.90266 -0.26154,0.51836 -0.6386,0.95006 -1.06835,1.33371 -0.44605,0.39174 -0.97184,0.6668 -1.50186,0.92494 -0.60848,0.28945 -1.24133,0.51713 -1.88584,0.71052 -0.4822,0.14337 -0.96959,0.26773 -1.46698,0.34442 -0.21814,0.0364 -0.43867,0.0352 -0.65883,0.0374 -0.22249,0.0158 -0.43857,0.0786 -0.65794,0.11706 -0.29636,0.0566 -0.29793,-0.0978 -0.31369,-0.3524 8.2e-4,-0.0775 6e-4,-0.15514 0.005,-0.23261 0.005,-0.10679 0.0143,-0.21331 0.0214,-0.31995 0.01,-0.13039 0.0174,-0.2608 0.0233,-0.39132 0.0228,-0.51089 0.0196,-1.02182 0.0164,-1.53302 -0.01,-1.22473 -1.2e-4,-2.44961 0.0144,-3.67426 0.0279,-1.14856 0.0701,-2.29635 0.0794,-3.44532 0.01,-0.76491 0.013,-1.52971 0.005,-2.29463 -0.0106,-0.41204 -0.0371,-0.82332 -0.0447,-1.23545 -0.002,-0.29228 0.0179,-0.23093 0.23099,-0.11053 0.58776,0.35296 1.15394,0.74001 1.70627,1.14574 0.70589,0.52106 1.35154,1.11525 1.95831,1.74737 0.56091,0.61437 0.99321,1.32389 1.3432,2.07484 0.33327,0.74951 0.49425,1.55523 0.58053,2.36655 0.0418,0.51032 -0.0735,1.00044 -0.25624,1.47246 -0.18899,0.43938 -0.48106,0.81366 -0.8173,1.14868 -0.39909,0.38701 -0.88941,0.64742 -1.37541,0.90623 -0.42702,0.23387 -0.8696,0.4374 -1.31838,0.62555 -0.11045,0.0267 -0.32522,0.19295 -0.40182,0.0411 -0.0551,-0.27323 -0.002,-0.55958 0.0248,-0.83396 0.0586,-0.63663 0.12482,-1.27252 0.18633,-1.90887 0.0546,-0.56575 0.0985,-1.13241 0.13915,-1.6993 0.0329,-0.45568 0.0632,-0.9115 0.091,-1.36755 0.0131,-0.19548 0.026,-0.39098 0.039,-0.58646 l -0.0877,-0.007 v 0 c -0.0131,0.19549 -0.026,0.391 -0.0389,0.58647 -0.0302,0.4557 -0.0607,0.91138 -0.0909,1.36707 -0.0403,0.56619 -0.0848,1.13205 -0.139,1.69711 -0.0614,0.63636 -0.12768,1.27226 -0.18635,1.9089 -0.0281,0.29234 -0.0908,0.60293 -0.0106,0.8908 0.0166,0.022 0.0288,0.0488 0.05,0.0669 0.12757,0.10849 0.33487,-0.0424 0.45932,-0.0753 0.45126,-0.18922 0.89632,-0.39388 1.32575,-0.62902 0.4936,-0.26292 0.99115,-0.52815 1.39616,-0.92162 0.34455,-0.34409 0.64408,-0.72813 0.83721,-1.17923 0.18727,-0.48533 0.30511,-0.98907 0.2617,-1.5135 -0.0876,-0.82093 -0.25075,-1.63609 -0.5883,-2.39441 -0.3544,-0.75956 -0.79164,-1.47735 -1.35944,-2.09859 -0.61037,-0.6357 -1.2597,-1.23334 -1.96972,-1.75734 -0.55526,-0.40783 -1.12442,-0.797 -1.71539,-1.15159 -0.28447,-0.15768 -0.36626,-0.15152 -0.36192,0.18891 0.009,0.41188 0.034,0.82296 0.0447,1.23477 0.01,0.76435 0.006,1.52857 -0.005,2.29296 -0.01,1.14885 -0.0519,2.29651 -0.0795,3.445 -0.0145,1.22517 -0.0239,2.45061 -0.0143,3.67584 0.004,0.50921 0.008,1.01818 -0.0162,1.52704 -0.0106,0.23863 -0.0342,0.47655 -0.045,0.71519 -0.003,0.08 -0.003,0.16001 -0.005,0.24006 0.0222,0.3055 0.0672,0.49905 0.41669,0.43312 0.21463,-0.0379 0.42617,-0.0985 0.64361,-0.11576 0.22434,-0.003 0.44906,-8.5e-4 0.67134,-0.0384 0.50138,-0.0774 0.99279,-0.20242 1.47885,-0.34706 0.64905,-0.19485 1.28632,-0.42415 1.89906,-0.71572 0.5373,-0.26177 1.06995,-0.54109 1.52195,-0.9384 0.43784,-0.39139 0.8221,-0.8317 1.08852,-1.36019 0.30405,-0.61264 0.56194,-1.24689 0.67031,-1.92678 0.13773,-0.79572 0.23335,-1.59976 0.20867,-2.4091 -0.0335,-0.61952 -0.14034,-1.22674 -0.41666,-1.78923 -0.31058,-0.63793 -0.65412,-1.26024 -1.15376,-1.77343 -0.91584,-0.9623 -1.88577,-1.87269 -2.88805,-2.74428 -0.50362,-0.41474 -0.70113,-0.59234 -1.22547,-0.96729 -0.65608,-0.46919 -1.35826,-0.87271 -2.08581,-1.21966 -0.8236,-0.37345 -1.66634,-0.70118 -2.54591,-0.91909 -0.0793,-0.0189 -0.15802,-0.0394 -0.23761,-0.0565 -0.12444,-0.0269 -0.32278,-0.0831 -0.34755,0.0954 -0.008,0.18095 -0.0131,0.36194 -0.0126,0.54307 0.002,0.3618 0.0104,0.72371 0.0288,1.08509 0.0326,0.61979 0.0611,1.23965 0.0675,1.86042 0.0148,1.16983 0.005,2.33975 -0.0214,3.5094 -0.0334,1.50125 -0.0926,3.00204 -0.0968,4.50382 0.006,1.70532 0.028,3.41056 0.0782,5.11523 0.0312,0.96643 0.0639,1.93326 0.16207,2.89575 0.0141,0.3149 0.0606,0.28661 0.33545,0.27281 0.46464,-0.0288 0.92599,-0.0922 1.38746,-0.15203 0.89687,-0.10572 1.79782,-0.17982 2.68973,-0.32451 1.24332,-0.22312 2.46853,-0.54222 3.59317,-1.13596 0.22421,-0.12062 0.45197,-0.2348 0.67258,-0.36184 1.13906,-0.656 2.20095,-1.4591 3.07854,-2.44122 0.16151,-0.20371 0.33306,-0.39986 0.48451,-0.61113 0.83347,-1.16251 1.37088,-2.51542 1.63602,-3.91602 0.0357,-0.29166 0.0882,-0.58179 0.10699,-0.87502 0.095,-1.49428 -0.2695,-2.96777 -0.8988,-4.31416 -0.41694,-0.76213 -0.5276,-1.02027 -1.04547,-1.73412 -0.91185,-1.25692 -2.049,-2.33752 -3.30128,-3.24953 -0.36098,-0.23872 -0.71201,-0.49321 -1.08299,-0.71614 -1.91514,-1.15092 -4.05066,-1.86146 -6.23385,-2.29457 -1.0916,-0.17867 -1.30828,-0.23124 -2.37798,-0.34326 -0.28145,-0.0294 -0.56393,-0.0486 -0.84629,-0.0682 -0.0362,-0.003 -0.68467,-0.0507 -0.84733,-0.0181 -0.0512,0.0107 -0.0921,0.0503 -0.13799,0.0753 -0.015,0.12079 8.7e-4,0.23225 0.0165,0.35332 0.0388,0.30957 0.0854,0.61805 0.13047,0.92671 0.2445,1.68635 0.44851,3.37894 0.53225,5.082 0.14726,2.91637 -0.11615,5.98865 -0.0499,8.89009 0.064,2.44059 0.13106,5.27084 0.0407,7.71433 -0.0351,-4.92299 0.32552,-12.02635 0.0969,-16.60786 z"
       sodipodi:nodetypes="cccccccccccccccccccccccccccccccccccccccccccccccccccccccccccccccccccsccccccccccccccccccccccccccccccccccccccccccccccccccccccccccccccccccccccc" />
    <g
       aria-label="Dig In there"
       id="text166"
       style="font-size:20.5856px;line-height:6.03092px;letter-spacing:0px;word-spacing:0px;fill:#666666;stroke-width:0.241236px">
      <g
         id="g187"
         style="fill:#666666">
        <path
           d="m 128.56679,175.92964 q 2.24383,-0.94693 4.15829,-2.30558 1.66743,-1.17338 2.5732,-2.34676 0.90577,-1.19397 0.94694,-2.26442 0.0618,-2.07914 -2.07915,-2.79964 -1.00869,-0.32937 -2.36734,-0.32937 -1.35865,-0.0206 -2.40852,0.22644 -0.69991,0.1441 -1.07045,0.22644 -0.0206,6.2992 0.24703,9.59289 z m -0.4323,-12.0014 0.76167,-0.16469 q 1.19396,-0.30878 2.92315,-0.2882 1.72919,0.0206 3.10843,0.47347 1.7086,0.5764 2.73788,1.85271 1.02928,1.2763 0.96753,3.29369 -0.10293,3.35546 -4.52884,6.48447 -1.62626,1.15279 -3.49955,2.03797 -1.8527,0.90577 -3.35545,1.33807 -0.47347,0.12351 -0.90577,-0.12352 -0.43229,-0.22644 -0.57639,-0.69991 -0.10293,-0.37054 0.0206,-0.72049 0.1441,-0.37054 0.45289,-0.59699 -0.30879,-3.52013 -0.30879,-9.59289 l -0.2882,0.12352 q -0.45288,0.18527 -0.90576,0 -0.45289,-0.20586 -0.63816,-0.65874 -0.20585,-0.45288 0,-0.90577 0.18527,-0.45288 0.63816,-0.65874 l 1.19396,-0.49405 v -0.0412 q 0,-0.49406 0.34996,-0.84401 0.34995,-0.34996 0.84401,-0.34996 0.63815,0 1.00869,0.53523 z"
           style="font-family:'The Urban Way';-inkscape-font-specification:'The Urban Way';fill:#666666"
           id="path270" />
        <path
           d="m 140.89757,163.98999 q 0.65874,-0.0412 1.2969,-0.0823 0.63815,-0.0617 1.37923,-0.1441 0.74108,-0.10292 1.23514,-0.1441 0.49405,-0.0617 1.37923,-0.16468 l 1.21455,-0.20586 1.37924,-0.18527 q 1.02928,-0.1441 1.27631,-0.18527 0.49405,-0.0823 0.88518,0.22644 0.41171,0.2882 0.47347,0.76167 0.0823,0.47347 -0.22645,0.8646 -0.28819,0.39112 -0.76166,0.45288 l -3.56131,0.53523 q 0.0206,0.57639 0.0618,4.1377 0.0206,1.11162 0.0823,3.21135 0.0823,2.07915 0.10293,3.0055 2.09973,-0.18527 4.46707,-0.22644 0.49406,0 0.84401,0.32937 0.37054,0.32937 0.37054,0.82342 0,0.47347 -0.34995,0.84401 -0.32937,0.34996 -0.82343,0.34996 -5.16698,0.10293 -9.69582,1.09104 -0.49405,0.10292 -0.90576,-0.16469 -0.41171,-0.26761 -0.53523,-0.74108 -0.10293,-0.47347 0.16469,-0.8646 0.26761,-0.41171 0.74108,-0.53522 1.66743,-0.37054 3.33487,-0.61757 -0.0206,-1.02928 -0.10293,-3.19077 -0.0618,-2.16149 -0.0823,-3.27311 -0.0412,-3.54072 -0.0618,-3.87009 -1.85271,0.22644 -3.41721,0.30878 -0.49406,0.0206 -0.8646,-0.2882 -0.37054,-0.30878 -0.41171,-0.78225 -0.0206,-0.49405 0.2882,-0.86459 0.32937,-0.37054 0.82342,-0.41172 z"
           style="font-family:'The Urban Way';-inkscape-font-specification:'The Urban Way';fill:#666666"
           id="path272" />
        <path
           d="m 162.49185,165.9868 q -1.89387,-1.68802 -3.47897,-0.65874 -0.80283,0.49405 -1.46157,1.54392 -0.65874,1.07045 -1.02928,2.44969 -0.37054,1.35864 -0.34996,2.75847 0.0412,1.39982 0.47347,2.44968 0.92635,2.285 3.47897,2.36735 1.68802,0.0618 2.94374,-0.65874 1.33806,-0.78226 2.22324,-2.01739 -3.02608,0.16468 -5.1464,0.16468 -0.49405,0 -0.84401,-0.34995 -0.34995,-0.34996 -0.34995,-0.84401 0,-0.49406 0.34995,-0.84401 0.34996,-0.34996 0.84401,-0.34996 2.44969,0 7.08145,-0.2882 0.49405,-0.0206 0.86459,0.30879 0.37054,0.30878 0.41172,0.80284 v 0.16468 q 0.0206,0.2882 -0.10293,0.55581 -1.39982,3.17019 -4.13771,4.75528 -1.8527,1.07045 -4.22005,0.98811 -2.07914,-0.0823 -3.49955,-1.11163 -1.39982,-1.02928 -2.09973,-2.73788 -0.61757,-1.50275 -0.65874,-3.33487 -0.0206,-1.83212 0.4323,-3.39662 0.47347,-1.72919 1.35865,-3.17019 0.90577,-1.44099 2.1409,-2.22324 1.39982,-0.94694 3.08784,-0.7205 1.68802,0.20586 3.2937,1.62627 0.37054,0.32937 0.39112,0.82342 0.0206,0.49405 -0.30878,0.8646 -0.32937,0.37054 -0.82342,0.39112 -0.49406,0.0206 -0.8646,-0.30878 z"
           style="font-family:'The Urban Way';-inkscape-font-specification:'The Urban Way';fill:#666666"
           id="path274" />
        <path
           d="m 177.10762,163.98999 q 0.65874,-0.0412 1.29689,-0.0823 0.63816,-0.0617 1.37924,-0.1441 0.74108,-0.10292 1.23514,-0.1441 0.49405,-0.0617 1.37923,-0.16468 l 1.21455,-0.20586 1.37924,-0.18527 q 1.02928,-0.1441 1.2763,-0.18527 0.49406,-0.0823 0.88518,0.22644 0.41172,0.2882 0.47347,0.76167 0.0824,0.47347 -0.22644,0.8646 -0.2882,0.39112 -0.76167,0.45288 l -3.5613,0.53523 q 0.0206,0.57639 0.0617,4.1377 0.0206,1.11162 0.0824,3.21135 0.0823,2.07915 0.10292,3.0055 2.09973,-0.18527 4.46708,-0.22644 0.49405,0 0.84401,0.32937 0.37054,0.32937 0.37054,0.82342 0,0.47347 -0.34996,0.84401 -0.32937,0.34996 -0.82342,0.34996 -5.16699,0.10293 -9.69582,1.09104 -0.49405,0.10292 -0.90576,-0.16469 -0.41172,-0.26761 -0.53523,-0.74108 -0.10293,-0.47347 0.16468,-0.8646 0.26762,-0.41171 0.74109,-0.53522 1.66743,-0.37054 3.33486,-0.61757 -0.0206,-1.02928 -0.10292,-3.19077 -0.0618,-2.16149 -0.0823,-3.27311 -0.0412,-3.54072 -0.0618,-3.87009 -1.85271,0.22644 -3.41721,0.30878 -0.49406,0.0206 -0.8646,-0.2882 -0.37054,-0.30878 -0.41171,-0.78225 -0.0206,-0.49405 0.2882,-0.86459 0.32937,-0.37054 0.82342,-0.41172 z"
           style="font-family:'The Urban Way';-inkscape-font-specification:'The Urban Way';fill:#666666"
           id="path276" />
        <path
           d="m 200.96631,174.67392 q -0.0823,-1.15279 -0.10293,-1.46158 -0.0618,-1.5645 0.1441,-3.33486 0.22644,-1.77037 0.49406,-2.96433 0.20585,-0.96752 0.76166,-3.12901 0.12352,-0.49406 0.53523,-0.74108 0.4323,-0.24703 0.90577,-0.12352 0.49405,0.12352 0.74108,0.55581 0.24703,0.41172 0.12351,0.88519 -0.72049,2.84081 -1.04986,4.81703 -0.32937,1.95563 -0.26762,3.95243 0,0.20586 0.0206,0.59698 0.0412,0.37054 0.0823,0.94694 0.0412,0.55581 0.0618,0.88518 0.0823,1.27631 0.0823,1.33807 v 0.51464 q -0.0206,0.16468 -0.0412,0.28819 -0.0823,0.4323 -0.37054,0.69991 -0.49406,0.47347 -1.1528,0.2882 -0.10292,-0.0412 -0.22644,-0.0823 l -0.12351,-0.0823 q -0.0412,-0.0412 -0.10293,-0.0823 -0.10293,-0.0618 -0.22644,-0.16469 -0.2882,-0.24703 -0.63815,-0.5764 -1.0087,-0.92635 -1.89388,-1.93504 -1.64685,-1.89388 -3.56131,-5.2905 l -0.69991,-1.31748 q -0.10293,5.18757 -1.50275,8.87239 -0.16468,0.47347 -0.61756,0.67933 -0.45289,0.20585 -0.92636,0.0206 -0.45288,-0.16468 -0.65874,-0.61756 -0.20585,-0.45289 -0.0206,-0.90577 0.67932,-1.83212 1.00869,-4.03478 0.32937,-2.22324 0.32937,-4.2818 -0.0206,-1.87329 -0.12351,-4.36415 -0.0206,-0.49405 0.30878,-0.84401 0.32937,-0.37054 0.82343,-0.41171 0.39112,-0.0206 0.72049,0.20585 0.32937,0.20586 0.45289,0.5764 0.49405,0.74108 0.94693,1.54392 l 1.1528,2.09973 q 0.69991,1.25572 0.90576,1.60568 1.77037,3.19077 3.27311,4.89937 z"
           style="font-family:'The Urban Way';-inkscape-font-specification:'The Urban Way';fill:#666666"
           id="path278" />
        <path
           d="m 212.57658,165.76036 q 3.21135,-1.2969 6.01099,-1.91446 2.79964,-0.63816 5.78456,-0.51464 0.49405,0.0206 0.82342,0.39112 0.34996,0.37054 0.32937,0.88518 -0.0206,0.51464 -0.39113,0.88518 -0.34995,0.37054 -0.84401,0.34996 -2.32617,-0.12351 -4.63176,0.32937 v 0.0412 q 0,1.9968 -0.0206,5.96982 -0.0206,3.95244 -0.0206,5.92866 0,0.53522 -0.34995,0.88518 -0.34996,0.37054 -0.84401,0.37054 -0.49406,0 -0.84401,-0.37054 -0.34996,-0.34996 -0.34996,-0.88518 0,-1.97622 0.0206,-5.76397 0.0206,-3.80834 0.0206,-5.59928 -1.7086,0.51464 -3.82892,1.33806 -0.47347,0.20586 -0.92635,0 -0.45288,-0.22644 -0.63815,-0.69991 -0.16469,-0.49406 0.0412,-0.96752 0.20585,-0.47347 0.65874,-0.65874 z"
           style="font-family:'The Urban Way';-inkscape-font-specification:'The Urban Way';fill:#666666"
           id="path280" />
        <path
           d="m 234.99428,171.11261 q -3.64365,0.80284 -6.71091,2.79964 0.0206,2.09974 0.0618,3.89068 0.0206,0.49406 -0.32937,0.8646 -0.32937,0.39112 -0.82343,0.41171 -0.49405,0.0206 -0.86459,-0.32937 -0.34996,-0.34996 -0.37054,-0.8646 -0.0412,-1.48216 -0.0618,-3.27311 -0.0206,-1.79094 -0.0206,-3.04666 0,-1.25573 0,-3.33487 0.0206,-2.09973 0.0206,-3.12901 0,-0.49406 0.34996,-0.8646 0.34995,-0.37054 0.84401,-0.37054 0.49405,0 0.84401,0.37054 0.34995,0.37054 0.34995,0.8646 0,1.02928 -0.0206,3.00549 0,1.97622 0,2.92316 3.10842,-1.74978 6.75207,-2.44969 v -3.47896 q 0,-0.49406 0.34996,-0.8646 0.34995,-0.37054 0.84401,-0.37054 0.49405,0 0.84401,0.37054 0.34995,0.37054 0.34995,0.8646 v 3.14959 q 0.2882,-0.0412 0.59698,-0.0617 0.49406,-0.0412 0.8646,0.30878 0.37054,0.32937 0.41171,0.8646 0.0412,0.51464 -0.2882,0.90576 -0.32937,0.39113 -0.82342,0.4323 -0.39113,0.0206 -0.78225,0.0412 0,4.22005 0.0823,7.06086 0.0206,0.49406 -0.32937,0.8646 -0.32937,0.39112 -0.82342,0.41171 -0.49406,0.0206 -0.8646,-0.32937 -0.34995,-0.34996 -0.37054,-0.8646 -0.0823,-2.79964 -0.0823,-6.77266 z"
           style="font-family:'The Urban Way';-inkscape-font-specification:'The Urban Way';fill:#666666"
           id="path282" />
        <path
           d="m 241.04645,164.40171 2.92316,-0.80284 q 1.04986,-0.26761 2.73788,-0.55581 1.7086,-0.30879 3.1496,-0.32937 0.49405,0 0.84401,0.34995 0.37054,0.34996 0.37054,0.8646 0,0.49405 -0.34996,0.86459 -0.32937,0.37054 -0.82342,0.37054 -1.64685,0.0206 -3.35545,0.37054 -1.68802,0.32937 -3.91127,0.96753 0.0206,1.07045 0.0206,3.06725 1.72919,-0.63815 3.21135,-0.90576 1.50275,-0.2882 3.37604,-0.24703 0.49405,0.0206 0.84401,0.39113 0.34995,0.34995 0.32937,0.86459 -0.0206,0.49405 -0.37054,0.8646 -0.34996,0.34995 -0.84401,0.32937 -1.81154,-0.0412 -3.21136,0.26761 -1.39982,0.2882 -3.33486,1.07045 0.0206,2.53203 0.16468,4.34356 3.70541,-0.98811 7.74019,-1.33806 0.49405,-0.0412 0.86459,0.30878 0.39113,0.32937 0.4323,0.84401 0.0412,0.49405 -0.2882,0.88518 -0.32937,0.39113 -0.80284,0.4323 -4.30239,0.32937 -8.37834,1.54392 h -0.0412 q -0.18527,0.10293 -0.41171,0.1441 -0.49405,0.0618 -0.88518,-0.26761 -0.39113,-0.30879 -0.45288,-0.80284 -0.30879,-2.5732 -0.32937,-6.31978 v -2.69672 q 0,-2.18207 -0.0412,-3.35545 -0.12352,-0.47347 0.12351,-0.90577 0.22644,-0.45288 0.69991,-0.61756 z"
           style="font-family:'The Urban Way';-inkscape-font-specification:'The Urban Way';fill:#666666"
           id="path284" />
        <path
           d="m 256.93853,171.23613 q 0.0618,-0.0412 0.0823,-0.0412 0.0412,-0.0206 0.0823,-0.0618 l 0.22645,-0.10293 0.72049,-0.34996 q 1.1528,-0.59698 1.87329,-1.07045 0.55581,-0.34995 1.23514,-1.04986 0.69991,-0.69991 0.86459,-1.07045 0.2882,-0.5764 0.12352,-0.8646 -0.1441,-0.30878 -0.76167,-0.5764 -0.65874,-0.28819 -1.58509,-0.41171 -0.90577,-0.10293 -1.60568,-0.0412 -0.59698,0.0412 -1.25572,0.22644 -0.0206,2.12032 0,5.41402 z m -4.07595,-6.27861 q 3.0055,-1.54392 5.12582,-1.74978 0.94693,-0.0823 2.16148,0.0823 1.21455,0.1441 2.20266,0.59699 1.39982,0.63815 1.93505,1.72919 0.67932,1.35865 -0.0823,3.04667 -0.34996,0.74108 -1.2969,1.72919 -0.92635,0.96752 -1.66743,1.46157 -0.76167,0.49406 -1.83212,1.07046 l 0.12352,0.0823 q 0.844,0.65874 2.38792,1.48216 2.40852,1.27631 4.63176,2.16149 0.47347,0.16468 0.67933,0.63815 0.20586,0.45289 0.0206,0.92635 -0.16469,0.47347 -0.61757,0.67933 -0.45289,0.22644 -0.90577,0.0412 -2.47027,-0.96752 -4.91996,-2.26442 -1.68802,-0.90576 -2.7173,-1.68801 -0.72049,-0.55582 -1.1322,-1.09104 0.0206,2.47027 0.0206,4.03478 0,0.51464 -0.34995,0.86459 -0.34996,0.37054 -0.84401,0.37054 -0.49406,0 -0.84401,-0.37054 -0.34996,-0.34995 -0.34996,-0.86459 0,-1.60568 -0.0412,-5.33167 -0.0206,-3.74658 0,-5.74339 l -0.61757,0.30879 q -0.4323,0.24702 -0.90576,0.0823 -0.47347,-0.16469 -0.69991,-0.61757 -0.22645,-0.45288 -0.0618,-0.92635 0.1441,-0.49405 0.59698,-0.74108 z"
           style="font-family:'The Urban Way';-inkscape-font-specification:'The Urban Way';fill:#666666"
           id="path286" />
        <path
           d="m 268.93993,164.40171 2.92315,-0.80284 q 1.04987,-0.26761 2.73789,-0.55581 1.7086,-0.30879 3.1496,-0.32937 0.49405,0 0.844,0.34995 0.37055,0.34996 0.37055,0.8646 0,0.49405 -0.34996,0.86459 -0.32937,0.37054 -0.82342,0.37054 -1.64685,0.0206 -3.35546,0.37054 -1.68802,0.32937 -3.91126,0.96753 0.0206,1.07045 0.0206,3.06725 1.72919,-0.63815 3.21135,-0.90576 1.50275,-0.2882 3.37604,-0.24703 0.49405,0.0206 0.84401,0.39113 0.34995,0.34995 0.32937,0.86459 -0.0206,0.49405 -0.37054,0.8646 -0.34996,0.34995 -0.84401,0.32937 -1.81154,-0.0412 -3.21136,0.26761 -1.39982,0.2882 -3.33486,1.07045 0.0206,2.53203 0.16468,4.34356 3.70541,-0.98811 7.74019,-1.33806 0.49405,-0.0412 0.86459,0.30878 0.39113,0.32937 0.4323,0.84401 0.0412,0.49405 -0.2882,0.88518 -0.32937,0.39113 -0.80284,0.4323 -4.30239,0.32937 -8.37834,1.54392 h -0.0412 q -0.18527,0.10293 -0.41171,0.1441 -0.49406,0.0618 -0.88518,-0.26761 -0.39113,-0.30879 -0.45288,-0.80284 -0.30879,-2.5732 -0.32937,-6.31978 v -2.69672 q 0,-2.18207 -0.0412,-3.35545 -0.12351,-0.47347 0.12352,-0.90577 0.22644,-0.45288 0.69991,-0.61756 z"
           style="font-family:'The Urban Way';-inkscape-font-specification:'The Urban Way';fill:#666666"
           id="path288" />
      </g>
    </g>
  </g>
</svg>
