<?xml version="1.0" encoding="UTF-8" standalone="no"?>
<svg
   width="180mm"
   height="24.872274mm"
   viewBox="0 0 179.99999 24.872274"
   version="1.1"
   id="svg8"
   inkscape:version="1.2.2 (b0a8486541, 2022-12-01)"
   sodipodi:docname="digin-full.svg"
   inkscape:export-filename="others/digin-full.png"
   inkscape:export-xdpi="90"
   inkscape:export-ydpi="90"
   xml:space="preserve"
   xmlns:inkscape="http://www.inkscape.org/namespaces/inkscape"
   xmlns:sodipodi="http://sodipodi.sourceforge.net/DTD/sodipodi-0.dtd"
   xmlns="http://www.w3.org/2000/svg"
   xmlns:svg="http://www.w3.org/2000/svg"
   xmlns:rdf="http://www.w3.org/1999/02/22-rdf-syntax-ns#"
   xmlns:cc="http://creativecommons.org/ns#"
   xmlns:dc="http://purl.org/dc/elements/1.1/"><defs
     id="defs2" /><sodipodi:namedview
     id="base"
     pagecolor="#ffffff"
     bordercolor="#666666"
     borderopacity="1.0"
     inkscape:pageopacity="0.0"
     inkscape:pageshadow="2"
     inkscape:zoom="1.9756952"
     inkscape:cx="325.20198"
     inkscape:cy="63.521944"
     inkscape:document-units="mm"
     inkscape:current-layer="layer1"
     inkscape:document-rotation="0"
     showgrid="false"
     inkscape:window-width="2238"
     inkscape:window-height="1358"
     inkscape:window-x="0"
     inkscape:window-y="20"
     inkscape:window-maximized="1"
     inkscape:snap-global="false"
     inkscape:showpageshadow="0"
     inkscape:pagecheckerboard="0"
     inkscape:deskcolor="#d1d1d1" /><metadata
     id="metadata5"><rdf:RDF><cc:Work
         rdf:about=""><dc:format>image/svg+xml</dc:format><dc:type
           rdf:resource="http://purl.org/dc/dcmitype/StillImage" /></cc:Work></rdf:RDF></metadata><g
     inkscape:label="Layer 1"
     inkscape:groupmode="layer"
     id="layer1"
     transform="translate(-100.6936,-158.46247)"><g
       id="g187"
       style="font-size:20.5856px;line-height:6.03092px;letter-spacing:0px;word-spacing:0px;fill:#666666;stroke-width:0.241236px"><path
         d="m 128.56679,175.92964 q 2.24383,-0.94693 4.15829,-2.30558 1.66743,-1.17338 2.5732,-2.34676 0.90577,-1.19397 0.94694,-2.26442 0.0618,-2.07914 -2.07915,-2.79964 -1.00869,-0.32937 -2.36734,-0.32937 -1.35865,-0.0206 -2.40852,0.22644 -0.69991,0.1441 -1.07045,0.22644 -0.0206,6.2992 0.24703,9.59289 z m -0.4323,-12.0014 0.76167,-0.16469 q 1.19396,-0.30878 2.92315,-0.2882 1.72919,0.0206 3.10843,0.47347 1.7086,0.5764 2.73788,1.85271 1.02928,1.2763 0.96753,3.29369 -0.10293,3.35546 -4.52884,6.48447 -1.62626,1.15279 -3.49955,2.03797 -1.8527,0.90577 -3.35545,1.33807 -0.47347,0.12351 -0.90577,-0.12352 -0.43229,-0.22644 -0.57639,-0.69991 -0.10293,-0.37054 0.0206,-0.72049 0.1441,-0.37054 0.45289,-0.59699 -0.30879,-3.52013 -0.30879,-9.59289 l -0.2882,0.12352 q -0.45288,0.18527 -0.90576,0 -0.45289,-0.20586 -0.63816,-0.65874 -0.20585,-0.45288 0,-0.90577 0.18527,-0.45288 0.63816,-0.65874 l 1.19396,-0.49405 v -0.0412 q 0,-0.49406 0.34996,-0.84401 0.34995,-0.34996 0.84401,-0.34996 0.63815,0 1.00869,0.53523 z"
         style="font-family:'The Urban Way';-inkscape-font-specification:'The Urban Way';fill:#666666"
         id="path270" /><path
         d="m 140.89757,163.98999 q 0.65874,-0.0412 1.2969,-0.0823 0.63815,-0.0617 1.37923,-0.1441 0.74108,-0.10292 1.23514,-0.1441 0.49405,-0.0617 1.37923,-0.16468 l 1.21455,-0.20586 1.37924,-0.18527 q 1.02928,-0.1441 1.27631,-0.18527 0.49405,-0.0823 0.88518,0.22644 0.41171,0.2882 0.47347,0.76167 0.0823,0.47347 -0.22645,0.8646 -0.28819,0.39112 -0.76166,0.45288 l -3.56131,0.53523 q 0.0206,0.57639 0.0618,4.1377 0.0206,1.11162 0.0823,3.21135 0.0823,2.07915 0.10293,3.0055 2.09973,-0.18527 4.46707,-0.22644 0.49406,0 0.84401,0.32937 0.37054,0.32937 0.37054,0.82342 0,0.47347 -0.34995,0.84401 -0.32937,0.34996 -0.82343,0.34996 -5.16698,0.10293 -9.69582,1.09104 -0.49405,0.10292 -0.90576,-0.16469 -0.41171,-0.26761 -0.53523,-0.74108 -0.10293,-0.47347 0.16469,-0.8646 0.26761,-0.41171 0.74108,-0.53522 1.66743,-0.37054 3.33487,-0.61757 -0.0206,-1.02928 -0.10293,-3.19077 -0.0618,-2.16149 -0.0823,-3.27311 -0.0412,-3.54072 -0.0618,-3.87009 -1.85271,0.22644 -3.41721,0.30878 -0.49406,0.0206 -0.8646,-0.2882 -0.37054,-0.30878 -0.41171,-0.78225 -0.0206,-0.49405 0.2882,-0.86459 0.32937,-0.37054 0.82342,-0.41172 z"
         style="font-family:'The Urban Way';-inkscape-font-specification:'The Urban Way';fill:#666666"
         id="path272" /><path
         d="m 162.49185,165.9868 q -1.89387,-1.68802 -3.47897,-0.65874 -0.80283,0.49405 -1.46157,1.54392 -0.65874,1.07045 -1.02928,2.44969 -0.37054,1.35864 -0.34996,2.75847 0.0412,1.39982 0.47347,2.44968 0.92635,2.285 3.47897,2.36735 1.68802,0.0618 2.94374,-0.65874 1.33806,-0.78226 2.22324,-2.01739 -3.02608,0.16468 -5.1464,0.16468 -0.49405,0 -0.84401,-0.34995 -0.34995,-0.34996 -0.34995,-0.84401 0,-0.49406 0.34995,-0.84401 0.34996,-0.34996 0.84401,-0.34996 2.44969,0 7.08145,-0.2882 0.49405,-0.0206 0.86459,0.30879 0.37054,0.30878 0.41172,0.80284 v 0.16468 q 0.0206,0.2882 -0.10293,0.55581 -1.39982,3.17019 -4.13771,4.75528 -1.8527,1.07045 -4.22005,0.98811 -2.07914,-0.0823 -3.49955,-1.11163 -1.39982,-1.02928 -2.09973,-2.73788 -0.61757,-1.50275 -0.65874,-3.33487 -0.0206,-1.83212 0.4323,-3.39662 0.47347,-1.72919 1.35865,-3.17019 0.90577,-1.44099 2.1409,-2.22324 1.39982,-0.94694 3.08784,-0.7205 1.68802,0.20586 3.2937,1.62627 0.37054,0.32937 0.39112,0.82342 0.0206,0.49405 -0.30878,0.8646 -0.32937,0.37054 -0.82342,0.39112 -0.49406,0.0206 -0.8646,-0.30878 z"
         style="font-family:'The Urban Way';-inkscape-font-specification:'The Urban Way';fill:#666666"
         id="path274" /><path
         d="m 177.10762,163.98999 q 0.65874,-0.0412 1.29689,-0.0823 0.63816,-0.0617 1.37924,-0.1441 0.74108,-0.10292 1.23514,-0.1441 0.49405,-0.0617 1.37923,-0.16468 l 1.21455,-0.20586 1.37924,-0.18527 q 1.02928,-0.1441 1.2763,-0.18527 0.49406,-0.0823 0.88518,0.22644 0.41172,0.2882 0.47347,0.76167 0.0824,0.47347 -0.22644,0.8646 -0.2882,0.39112 -0.76167,0.45288 l -3.5613,0.53523 q 0.0206,0.57639 0.0617,4.1377 0.0206,1.11162 0.0824,3.21135 0.0823,2.07915 0.10292,3.0055 2.09973,-0.18527 4.46708,-0.22644 0.49405,0 0.84401,0.32937 0.37054,0.32937 0.37054,0.82342 0,0.47347 -0.34996,0.84401 -0.32937,0.34996 -0.82342,0.34996 -5.16699,0.10293 -9.69582,1.09104 -0.49405,0.10292 -0.90576,-0.16469 -0.41172,-0.26761 -0.53523,-0.74108 -0.10293,-0.47347 0.16468,-0.8646 0.26762,-0.41171 0.74109,-0.53522 1.66743,-0.37054 3.33486,-0.61757 -0.0206,-1.02928 -0.10292,-3.19077 -0.0618,-2.16149 -0.0823,-3.27311 -0.0412,-3.54072 -0.0618,-3.87009 -1.85271,0.22644 -3.41721,0.30878 -0.49406,0.0206 -0.8646,-0.2882 -0.37054,-0.30878 -0.41171,-0.78225 -0.0206,-0.49405 0.2882,-0.86459 0.32937,-0.37054 0.82342,-0.41172 z"
         style="font-family:'The Urban Way';-inkscape-font-specification:'The Urban Way';fill:#666666"
         id="path276" /><path
         d="m 200.96631,174.67392 q -0.0823,-1.15279 -0.10293,-1.46158 -0.0618,-1.5645 0.1441,-3.33486 0.22644,-1.77037 0.49406,-2.96433 0.20585,-0.96752 0.76166,-3.12901 0.12352,-0.49406 0.53523,-0.74108 0.4323,-0.24703 0.90577,-0.12352 0.49405,0.12352 0.74108,0.55581 0.24703,0.41172 0.12351,0.88519 -0.72049,2.84081 -1.04986,4.81703 -0.32937,1.95563 -0.26762,3.95243 0,0.20586 0.0206,0.59698 0.0412,0.37054 0.0823,0.94694 0.0412,0.55581 0.0618,0.88518 0.0823,1.27631 0.0823,1.33807 v 0.51464 q -0.0206,0.16468 -0.0412,0.28819 -0.0823,0.4323 -0.37054,0.69991 -0.49406,0.47347 -1.1528,0.2882 -0.10292,-0.0412 -0.22644,-0.0823 l -0.12351,-0.0823 q -0.0412,-0.0412 -0.10293,-0.0823 -0.10293,-0.0618 -0.22644,-0.16469 -0.2882,-0.24703 -0.63815,-0.5764 -1.0087,-0.92635 -1.89388,-1.93504 -1.64685,-1.89388 -3.56131,-5.2905 l -0.69991,-1.31748 q -0.10293,5.18757 -1.50275,8.87239 -0.16468,0.47347 -0.61756,0.67933 -0.45289,0.20585 -0.92636,0.0206 -0.45288,-0.16468 -0.65874,-0.61756 -0.20585,-0.45289 -0.0206,-0.90577 0.67932,-1.83212 1.00869,-4.03478 0.32937,-2.22324 0.32937,-4.2818 -0.0206,-1.87329 -0.12351,-4.36415 -0.0206,-0.49405 0.30878,-0.84401 0.32937,-0.37054 0.82343,-0.41171 0.39112,-0.0206 0.72049,0.20585 0.32937,0.20586 0.45289,0.5764 0.49405,0.74108 0.94693,1.54392 l 1.1528,2.09973 q 0.69991,1.25572 0.90576,1.60568 1.77037,3.19077 3.27311,4.89937 z"
         style="font-family:'The Urban Way';-inkscape-font-specification:'The Urban Way';fill:#666666"
         id="path278" /><path
         d="m 212.57658,165.76036 q 3.21135,-1.2969 6.01099,-1.91446 2.79964,-0.63816 5.78456,-0.51464 0.49405,0.0206 0.82342,0.39112 0.34996,0.37054 0.32937,0.88518 -0.0206,0.51464 -0.39113,0.88518 -0.34995,0.37054 -0.84401,0.34996 -2.32617,-0.12351 -4.63176,0.32937 v 0.0412 q 0,1.9968 -0.0206,5.96982 -0.0206,3.95244 -0.0206,5.92866 0,0.53522 -0.34995,0.88518 -0.34996,0.37054 -0.84401,0.37054 -0.49406,0 -0.84401,-0.37054 -0.34996,-0.34996 -0.34996,-0.88518 0,-1.97622 0.0206,-5.76397 0.0206,-3.80834 0.0206,-5.59928 -1.7086,0.51464 -3.82892,1.33806 -0.47347,0.20586 -0.92635,0 -0.45288,-0.22644 -0.63815,-0.69991 -0.16469,-0.49406 0.0412,-0.96752 0.20585,-0.47347 0.65874,-0.65874 z"
         style="font-family:'The Urban Way';-inkscape-font-specification:'The Urban Way';fill:#666666"
         id="path280" /><path
         d="m 234.99428,171.11261 q -3.64365,0.80284 -6.71091,2.79964 0.0206,2.09974 0.0618,3.89068 0.0206,0.49406 -0.32937,0.8646 -0.32937,0.39112 -0.82343,0.41171 -0.49405,0.0206 -0.86459,-0.32937 -0.34996,-0.34996 -0.37054,-0.8646 -0.0412,-1.48216 -0.0618,-3.27311 -0.0206,-1.79094 -0.0206,-3.04666 0,-1.25573 0,-3.33487 0.0206,-2.09973 0.0206,-3.12901 0,-0.49406 0.34996,-0.8646 0.34995,-0.37054 0.84401,-0.37054 0.49405,0 0.84401,0.37054 0.34995,0.37054 0.34995,0.8646 0,1.02928 -0.0206,3.00549 0,1.97622 0,2.92316 3.10842,-1.74978 6.75207,-2.44969 v -3.47896 q 0,-0.49406 0.34996,-0.8646 0.34995,-0.37054 0.84401,-0.37054 0.49405,0 0.84401,0.37054 0.34995,0.37054 0.34995,0.8646 v 3.14959 q 0.2882,-0.0412 0.59698,-0.0617 0.49406,-0.0412 0.8646,0.30878 0.37054,0.32937 0.41171,0.8646 0.0412,0.51464 -0.2882,0.90576 -0.32937,0.39113 -0.82342,0.4323 -0.39113,0.0206 -0.78225,0.0412 0,4.22005 0.0823,7.06086 0.0206,0.49406 -0.32937,0.8646 -0.32937,0.39112 -0.82342,0.41171 -0.49406,0.0206 -0.8646,-0.32937 -0.34995,-0.34996 -0.37054,-0.8646 -0.0823,-2.79964 -0.0823,-6.77266 z"
         style="font-family:'The Urban Way';-inkscape-font-specification:'The Urban Way';fill:#666666"
         id="path282" /><path
         d="m 241.04645,164.40171 2.92316,-0.80284 q 1.04986,-0.26761 2.73788,-0.55581 1.7086,-0.30879 3.1496,-0.32937 0.49405,0 0.84401,0.34995 0.37054,0.34996 0.37054,0.8646 0,0.49405 -0.34996,0.86459 -0.32937,0.37054 -0.82342,0.37054 -1.64685,0.0206 -3.35545,0.37054 -1.68802,0.32937 -3.91127,0.96753 0.0206,1.07045 0.0206,3.06725 1.72919,-0.63815 3.21135,-0.90576 1.50275,-0.2882 3.37604,-0.24703 0.49405,0.0206 0.84401,0.39113 0.34995,0.34995 0.32937,0.86459 -0.0206,0.49405 -0.37054,0.8646 -0.34996,0.34995 -0.84401,0.32937 -1.81154,-0.0412 -3.21136,0.26761 -1.39982,0.2882 -3.33486,1.07045 0.0206,2.53203 0.16468,4.34356 3.70541,-0.98811 7.74019,-1.33806 0.49405,-0.0412 0.86459,0.30878 0.39113,0.32937 0.4323,0.84401 0.0412,0.49405 -0.2882,0.88518 -0.32937,0.39113 -0.80284,0.4323 -4.30239,0.32937 -8.37834,1.54392 h -0.0412 q -0.18527,0.10293 -0.41171,0.1441 -0.49405,0.0618 -0.88518,-0.26761 -0.39113,-0.30879 -0.45288,-0.80284 -0.30879,-2.5732 -0.32937,-6.31978 v -2.69672 q 0,-2.18207 -0.0412,-3.35545 -0.12352,-0.47347 0.12351,-0.90577 0.22644,-0.45288 0.69991,-0.61756 z"
         style="font-family:'The Urban Way';-inkscape-font-specification:'The Urban Way';fill:#666666"
         id="path284" /><path
         d="m 256.93853,171.23613 q 0.0618,-0.0412 0.0823,-0.0412 0.0412,-0.0206 0.0823,-0.0618 l 0.22645,-0.10293 0.72049,-0.34996 q 1.1528,-0.59698 1.87329,-1.07045 0.55581,-0.34995 1.23514,-1.04986 0.69991,-0.69991 0.86459,-1.07045 0.2882,-0.5764 0.12352,-0.8646 -0.1441,-0.30878 -0.76167,-0.5764 -0.65874,-0.28819 -1.58509,-0.41171 -0.90577,-0.10293 -1.60568,-0.0412 -0.59698,0.0412 -1.25572,0.22644 -0.0206,2.12032 0,5.41402 z m -4.07595,-6.27861 q 3.0055,-1.54392 5.12582,-1.74978 0.94693,-0.0823 2.16148,0.0823 1.21455,0.1441 2.20266,0.59699 1.39982,0.63815 1.93505,1.72919 0.67932,1.35865 -0.0823,3.04667 -0.34996,0.74108 -1.2969,1.72919 -0.92635,0.96752 -1.66743,1.46157 -0.76167,0.49406 -1.83212,1.07046 l 0.12352,0.0823 q 0.844,0.65874 2.38792,1.48216 2.40852,1.27631 4.63176,2.16149 0.47347,0.16468 0.67933,0.63815 0.20586,0.45289 0.0206,0.92635 -0.16469,0.47347 -0.61757,0.67933 -0.45289,0.22644 -0.90577,0.0412 -2.47027,-0.96752 -4.91996,-2.26442 -1.68802,-0.90576 -2.7173,-1.68801 -0.72049,-0.55582 -1.1322,-1.09104 0.0206,2.47027 0.0206,4.03478 0,0.51464 -0.34995,0.86459 -0.34996,0.37054 -0.84401,0.37054 -0.49406,0 -0.84401,-0.37054 -0.34996,-0.34995 -0.34996,-0.86459 0,-1.60568 -0.0412,-5.33167 -0.0206,-3.74658 0,-5.74339 l -0.61757,0.30879 q -0.4323,0.24702 -0.90576,0.0823 -0.47347,-0.16469 -0.69991,-0.61757 -0.22645,-0.45288 -0.0618,-0.92635 0.1441,-0.49405 0.59698,-0.74108 z"
         style="font-family:'The Urban Way';-inkscape-font-specification:'The Urban Way';fill:#666666"
         id="path286" /><path
         d="m 268.93993,164.40171 2.92315,-0.80284 q 1.04987,-0.26761 2.73789,-0.55581 1.7086,-0.30879 3.1496,-0.32937 0.49405,0 0.844,0.34995 0.37055,0.34996 0.37055,0.8646 0,0.49405 -0.34996,0.86459 -0.32937,0.37054 -0.82342,0.37054 -1.64685,0.0206 -3.35546,0.37054 -1.68802,0.32937 -3.91126,0.96753 0.0206,1.07045 0.0206,3.06725 1.72919,-0.63815 3.21135,-0.90576 1.50275,-0.2882 3.37604,-0.24703 0.49405,0.0206 0.84401,0.39113 0.34995,0.34995 0.32937,0.86459 -0.0206,0.49405 -0.37054,0.8646 -0.34996,0.34995 -0.84401,0.32937 -1.81154,-0.0412 -3.21136,0.26761 -1.39982,0.2882 -3.33486,1.07045 0.0206,2.53203 0.16468,4.34356 3.70541,-0.98811 7.74019,-1.33806 0.49405,-0.0412 0.86459,0.30878 0.39113,0.32937 0.4323,0.84401 0.0412,0.49405 -0.2882,0.88518 -0.32937,0.39113 -0.80284,0.4323 -4.30239,0.32937 -8.37834,1.54392 h -0.0412 q -0.18527,0.10293 -0.41171,0.1441 -0.49406,0.0618 -0.88518,-0.26761 -0.39113,-0.30879 -0.45288,-0.80284 -0.30879,-2.5732 -0.32937,-6.31978 v -2.69672 q 0,-2.18207 -0.0412,-3.35545 -0.12351,-0.47347 0.12352,-0.90577 0.22644,-0.45288 0.69991,-0.61756 z"
         style="font-family:'The Urban Way';-inkscape-font-specification:'The Urban Way';fill:#666666"
         id="path288" /></g><path
       style="font-size:20.5856px;line-height:6.03092px;letter-spacing:0px;word-spacing:0px;fill:none;fill-rule:evenodd;stroke:#846eff;stroke-width:2.59915;stroke-linecap:round;stroke-linejoin:round;stroke-dasharray:none;stroke-opacity:1"
       d="m 103.18446,181.02712 0.12181,-20.07674 17.209,11.44697 -13.70157,7.06705 0.0823,-11.78733 6.54669,4.29937 -2.75684,1.54282"
       id="path2749"
       sodipodi:nodetypes="ccccccc" /></g></svg>
