<?xml version="1.0" encoding="UTF-8" standalone="no"?>
<svg
   width="28mm"
   height="28mm"
   viewBox="0 0 28 28"
   version="1.1"
   id="svg8"
   inkscape:version="1.2.2 (b0a8486541, 2022-12-01)"
   sodipodi:docname="digin.svg"
   inkscape:export-filename="digin.png"
   inkscape:export-xdpi="160"
   inkscape:export-ydpi="160"
   xmlns:inkscape="http://www.inkscape.org/namespaces/inkscape"
   xmlns:sodipodi="http://sodipodi.sourceforge.net/DTD/sodipodi-0.dtd"
   xmlns="http://www.w3.org/2000/svg"
   xmlns:svg="http://www.w3.org/2000/svg"
   xmlns:rdf="http://www.w3.org/1999/02/22-rdf-syntax-ns#"
   xmlns:cc="http://creativecommons.org/ns#"
   xmlns:dc="http://purl.org/dc/elements/1.1/">
  <defs
     id="defs2" />
  <sodipodi:namedview
     id="base"
     pagecolor="#ffffff"
     bordercolor="#666666"
     borderopacity="1.0"
     inkscape:pageopacity="0.0"
     inkscape:pageshadow="2"
     inkscape:zoom="1.6393947"
     inkscape:cx="-123.5212"
     inkscape:cy="41.783714"
     inkscape:document-units="mm"
     inkscape:current-layer="layer1"
     inkscape:document-rotation="0"
     showgrid="false"
     inkscape:window-width="2238"
     inkscape:window-height="1358"
     inkscape:window-x="0"
     inkscape:window-y="20"
     inkscape:window-maximized="1"
     inkscape:snap-global="false"
     inkscape:showpageshadow="0"
     inkscape:pagecheckerboard="0"
     inkscape:deskcolor="#d1d1d1" />
  <metadata
     id="metadata5">
    <rdf:RDF>
      <cc:Work
         rdf:about="">
        <dc:format>image/svg+xml</dc:format>
        <dc:type
           rdf:resource="http://purl.org/dc/dcmitype/StillImage" />
      </cc:Work>
    </rdf:RDF>
  </metadata>
  <g
     inkscape:label="Layer 1"
     inkscape:groupmode="layer"
     id="layer1"
     transform="translate(-95.475801,-156.85928)">
    <path
       style="color:#000000;overflow:visible;fill:#6e8bff;fill-opacity:1;stroke:#6e8bff;stroke-width:1.55727;stroke-miterlimit:4;stroke-dasharray:none;stroke-opacity:1;stop-color:#000000"
       id="path1111"
       d="m 99.370061,165.62176 c -0.115772,-1.86108 -0.397676,-3.71072 -0.735692,-5.55351 -0.06204,-0.33633 -0.126493,-0.67243 -0.179836,-1.00973 -0.01925,-0.12147 -0.04518,-0.23897 -0.02265,-0.36035 1.903427,-0.0342 3.798517,0.22595 5.670017,0.46805 2.99978,0.47071 5.93413,1.24249 8.5654,2.49302 0.50895,0.24189 0.99053,0.51804 1.48577,0.77707 1.71779,0.98938 3.27768,2.1616 4.52824,3.525 0.70858,0.77251 0.86101,1.05349 1.43143,1.87829 0.85904,1.4546 1.35753,3.04646 1.22563,4.66043 -0.0267,0.31612 -0.0979,0.62892 -0.14682,0.94337 -0.36357,1.51364 -1.09909,2.97586 -2.23937,4.23197 -0.20691,0.22796 -0.44129,0.43952 -0.66192,0.6593 -1.20259,1.0625 -2.65731,1.93136 -4.21726,2.64125 -0.30256,0.13769 -0.61491,0.26138 -0.92234,0.39208 -1.54093,0.64285 -3.21971,0.98794 -4.92314,1.22942 -1.22861,0.15736 -2.46963,0.23808 -3.70504,0.35318 -0.63472,0.065 -1.26918,0.13408 -1.90822,0.1654 -0.35714,0.008 -0.32335,0.0729 -0.33418,-0.20551 -0.13516,-1.04993 -0.1806,-2.10453 -0.22361,-3.15879 -0.0692,-1.85886 -0.10105,-3.71837 -0.10797,-5.57801 0.006,-1.63766 0.0876,-3.27429 0.1335,-4.91139 0.0355,-1.27723 0.0501,-2.55475 0.0295,-3.83219 -0.009,-0.67853 -0.0483,-1.3561 -0.0934,-2.03358 -0.0254,-0.39273 -0.0371,-0.78605 -0.0396,-1.17932 -6.5e-4,-0.19591 0.005,-0.39178 0.0174,-0.5874 0.005,-0.01 0.008,-0.0419 0.0253,-0.0487 0.0851,-0.0306 0.58645,0.0863 0.63298,0.0949 1.20639,0.2364 2.36225,0.59174 3.49176,0.99678 0.99806,0.3763 1.96125,0.814 2.8612,1.3229 0.71863,0.40638 0.99155,0.60025 1.68191,1.04978 1.37948,0.94853 2.71471,1.93902 3.97522,2.98617 0.68094,0.55278 1.14813,1.22353 1.57121,1.9107 0.37407,0.60215 0.51825,1.2521 0.56299,1.91525 0.0335,0.8758 -0.0979,1.74582 -0.28642,2.60685 -0.14767,0.73262 -0.4996,1.41584 -0.91424,2.07586 -0.36096,0.56553 -0.88138,1.03653 -1.47451,1.4551 -0.61562,0.4274 -1.3413,0.7275 -2.07282,1.00913 -0.8398,0.3158 -1.71325,0.5642 -2.60278,0.77522 -0.66552,0.1564 -1.33821,0.29209 -2.02469,0.37576 -0.30109,0.0397 -0.60545,0.0384 -0.90931,0.0408 -0.30706,0.0173 -0.6053,0.0857 -0.90807,0.12773 -0.40901,0.0618 -0.41119,-0.10667 -0.43294,-0.3845 0.001,-0.0846 8.2e-4,-0.16924 0.006,-0.25377 0.006,-0.11651 0.0196,-0.23273 0.0294,-0.34907 0.0126,-0.14226 0.0239,-0.28455 0.0322,-0.42695 0.0315,-0.55739 0.0272,-1.11482 0.0226,-1.67256 -0.0131,-1.33621 -1.5e-4,-2.67259 0.0199,-4.00871 0.0384,-1.25311 0.0966,-2.50538 0.10973,-3.75893 0.0136,-0.83454 0.0179,-1.66896 0.006,-2.50351 -0.0147,-0.44954 -0.0512,-0.89827 -0.0617,-1.3479 -0.003,-0.31888 0.0248,-0.25196 0.3188,-0.1206 0.81122,0.38509 1.59266,0.80737 2.35496,1.25004 0.97425,0.56849 1.86536,1.21676 2.70279,1.90643 0.77418,0.67029 1.37082,1.4444 1.85387,2.26371 0.45997,0.81774 0.68215,1.69679 0.80122,2.58196 0.0576,0.55678 -0.10143,1.0915 -0.35365,1.60649 -0.26084,0.47936 -0.66395,0.88773 -1.12802,1.25324 -0.5508,0.42225 -1.22754,0.70635 -1.8983,0.98872 -0.58936,0.25515 -1.20021,0.47721 -1.8196,0.68249 -0.15244,0.0292 -0.44886,0.21052 -0.55457,0.0449 -0.0761,-0.29808 -0.003,-0.61052 0.0342,-0.90986 0.0809,-0.69458 0.17228,-1.38836 0.25718,-2.08264 0.0755,-0.61723 0.13593,-1.23547 0.19204,-1.85397 0.0454,-0.49715 0.0873,-0.99447 0.12559,-1.49202 0.018,-0.21329 0.0359,-0.42657 0.0539,-0.63985 l -0.12106,-0.007 v 0 c -0.018,0.21329 -0.0359,0.42658 -0.0537,0.63986 -0.0418,0.49716 -0.0837,0.99433 -0.12546,1.49151 -0.0556,0.61772 -0.11703,1.23509 -0.19185,1.85159 -0.0847,0.69429 -0.17622,1.38807 -0.25718,2.08265 -0.0389,0.31896 -0.12534,0.65782 -0.0147,0.97189 0.0229,0.0241 0.0398,0.0532 0.0691,0.0729 0.17607,0.11837 0.46219,-0.0463 0.63396,-0.0822 0.62281,-0.20644 1.23706,-0.42974 1.82975,-0.68628 0.68127,-0.28685 1.36797,-0.57622 1.92696,-1.0055 0.47554,-0.37541 0.88893,-0.79442 1.15549,-1.28659 0.25846,-0.52948 0.4211,-1.07909 0.36118,-1.65126 -0.12081,-0.89565 -0.34607,-1.78502 -0.81196,-2.61236 -0.48913,-0.82869 -1.09257,-1.61182 -1.87625,-2.28961 -0.84241,-0.69356 -1.73862,-1.34561 -2.71856,-1.91731 -0.76635,-0.44495 -1.55189,-0.86954 -2.36753,-1.25641 -0.39263,-0.17204 -0.5055,-0.16532 -0.49951,0.2061 0.0113,0.44938 0.0469,0.89788 0.0617,1.34717 0.0126,0.83393 0.008,1.66771 -0.006,2.50167 -0.0132,1.25343 -0.0716,2.50556 -0.10986,3.75859 -0.02,1.3367 -0.0329,2.67368 -0.0198,4.01045 0.005,0.55555 0.0101,1.11085 -0.0224,1.66604 -0.0147,0.26034 -0.0473,0.51992 -0.062,0.78027 -0.004,0.0873 -0.004,0.17459 -0.006,0.26192 0.0307,0.33331 0.0929,0.54447 0.5751,0.47255 0.29624,-0.0413 0.58819,-0.10751 0.88829,-0.12629 0.30963,-0.003 0.61977,-9.5e-4 0.92658,-0.042 0.69197,-0.0845 1.37021,-0.22086 2.04105,-0.37866 0.8958,-0.21258 1.77536,-0.46276 2.62104,-0.78087 0.74157,-0.2856 1.47673,-0.59034 2.10055,-1.02382 0.6043,-0.42702 1.13465,-0.9074 1.50235,-1.484 0.41965,-0.66842 0.77558,-1.36039 0.92515,-2.10218 0.1901,-0.86814 0.32208,-1.74537 0.288,-2.62838 -0.0462,-0.67591 -0.19369,-1.33841 -0.57507,-1.9521 -0.42865,-0.696 -0.90278,-1.37495 -1.59239,-1.93486 -1.26401,-1.04989 -2.60267,-2.04315 -3.98601,-2.99408 -0.69508,-0.45248 -0.96767,-0.64625 -1.69135,-1.05533 -0.90552,-0.51191 -1.87463,-0.95215 -2.87878,-1.33069 -1.13672,-0.40743 -2.29983,-0.76499 -3.51381,-1.00274 -0.10936,-0.0206 -0.21809,-0.043 -0.32795,-0.0616 -0.17173,-0.0294 -0.44548,-0.0906 -0.47967,0.10409 -0.0101,0.19741 -0.018,0.39488 -0.0174,0.59248 0.003,0.39475 0.0142,0.7896 0.0398,1.18388 0.0451,0.6762 0.0843,1.35249 0.0932,2.02976 0.0205,1.27632 0.006,2.55273 -0.0294,3.82884 -0.0461,1.63792 -0.12788,3.27531 -0.13356,4.91379 0.008,1.86055 0.0388,3.72101 0.10797,5.58084 0.043,1.05441 0.0882,2.10924 0.22368,3.15935 0.0195,0.34356 0.0836,0.31269 0.46299,0.29763 0.64127,-0.0314 1.27803,-0.10054 1.91492,-0.16586 1.23785,-0.11534 2.48132,-0.19618 3.71232,-0.35404 1.71599,-0.24344 3.40699,-0.59158 4.95918,-1.23938 0.30945,-0.13159 0.6238,-0.25616 0.92829,-0.39477 1.5721,-0.71571 3.0377,-1.59191 4.24892,-2.66343 0.22291,-0.22225 0.45967,-0.43626 0.6687,-0.66677 1.15034,-1.26832 1.89206,-2.74437 2.258,-4.27247 0.0492,-0.31821 0.12181,-0.63475 0.14766,-0.95467 0.13118,-1.6303 -0.37195,-3.23791 -1.2405,-4.70686 -0.57546,-0.83151 -0.72819,-1.11314 -1.44293,-1.89196 -1.25851,-1.37134 -2.82797,-2.55031 -4.55633,-3.54533 -0.49822,-0.26046 -0.98271,-0.5381 -1.49473,-0.78133 -2.64323,-1.25568 -5.59061,-2.0309 -8.60379,-2.50344 -1.5066,-0.19493 -1.80566,-0.25228 -3.28204,-0.37449 -0.38844,-0.032 -0.77833,-0.053 -1.168012,-0.0744 -0.04983,-0.003 -0.944974,-0.0554 -1.169458,-0.0197 -0.07072,0.0117 -0.127034,0.055 -0.190457,0.0823 -0.02064,0.13179 0.0012,0.2534 0.02265,0.38548 0.05361,0.33776 0.117911,0.6743 0.180075,1.01108 0.337462,1.83983 0.619039,3.68651 0.734584,5.54458 0.203255,3.18184 -0.160281,6.53377 -0.06871,9.69932 0.08846,2.66275 0.180906,5.75061 0.056,8.41655 -0.04845,-5.37113 0.449283,-13.12108 0.133742,-18.11962 z"
       sodipodi:nodetypes="cccccccccccccccccccccccccccccccccccccccccccccccccccccccccccccccccccsccccccccccccccccccccccccccccccccccccccccccccccccccccccccccccccccccccccc" />
  </g>
</svg>
