<?xml version="1.0" encoding="UTF-8" standalone="no"?>
<svg
   width="180mm"
   height="24.872274mm"
   viewBox="0 0 179.99999 24.872274"
   version="1.1"
   id="svg8"
   inkscape:version="1.3 (0e150ed6c4, 2023-07-21)"
   sodipodi:docname="digin-full.svg"
   inkscape:export-filename="others/digin-full.png"
   inkscape:export-xdpi="90"
   inkscape:export-ydpi="90"
   xml:space="preserve"
   xmlns:inkscape="http://www.inkscape.org/namespaces/inkscape"
   xmlns:sodipodi="http://sodipodi.sourceforge.net/DTD/sodipodi-0.dtd"
   xmlns="http://www.w3.org/2000/svg"
   xmlns:svg="http://www.w3.org/2000/svg"
   xmlns:rdf="http://www.w3.org/1999/02/22-rdf-syntax-ns#"
   xmlns:cc="http://creativecommons.org/ns#"
   xmlns:dc="http://purl.org/dc/elements/1.1/"><defs
     id="defs2" /><sodipodi:namedview
     id="base"
     pagecolor="#ffffff"
     bordercolor="#666666"
     borderopacity="1.0"
     inkscape:pageopacity="0.0"
     inkscape:pageshadow="2"
     inkscape:zoom="2.2140064"
     inkscape:cx="240.28837"
     inkscape:cy="23.035164"
     inkscape:document-units="mm"
     inkscape:current-layer="g187"
     inkscape:document-rotation="0"
     showgrid="false"
     inkscape:window-width="2238"
     inkscape:window-height="1358"
     inkscape:window-x="0"
     inkscape:window-y="20"
     inkscape:window-maximized="1"
     inkscape:snap-global="false"
     inkscape:showpageshadow="0"
     inkscape:pagecheckerboard="0"
     inkscape:deskcolor="#d1d1d1" /><metadata
     id="metadata5"><rdf:RDF><cc:Work
         rdf:about=""><dc:format>image/svg+xml</dc:format><dc:type
           rdf:resource="http://purl.org/dc/dcmitype/StillImage" /></cc:Work></rdf:RDF></metadata><g
     inkscape:label="Layer 1"
     inkscape:groupmode="layer"
     id="layer1"
     transform="translate(-100.6936,-158.46247)"><g
       id="g187"
       style="font-size:20.5856px;line-height:6.03092px;letter-spacing:0px;word-spacing:0px;fill:#666666;stroke-width:0.241236px"><path
         style="-inkscape-font-specification:'Source Sans 3, ';stroke-width:0.458742px"
         d="m 128.74652,178.15378 h 3.75802 c 3.73844,0 6.24379,-2.05517 6.24379,-6.43952 0,-4.38435 -2.50535,-6.32208 -6.40037,-6.32208 h -3.60144 z m 2.87723,-2.32919 v -8.10322 h 0.54805 c 2.1726,0 3.621,0.9395 3.621,3.99289 0,3.05339 -1.4484,4.11033 -3.621,4.11033 z m 9.55163,2.32919 h 2.87723 v -12.7616 h -2.87723 z m 11.52851,0.23487 c 1.78115,0 3.32741,-0.68505 4.2082,-1.54626 v -5.8719 h -4.65838 v 2.34876 h 2.11389 v 2.19217 c -0.31317,0.25445 -0.84164,0.39146 -1.37011,0.39146 -2.38791,0 -3.58186,-1.52669 -3.58186,-4.14947 0,-2.56407 1.38968,-4.11033 3.36655,-4.11033 1.09609,0 1.76157,0.35231 2.40748,0.91993 l 1.50712,-1.742 c -0.84163,-0.90036 -2.1726,-1.6637 -4.01246,-1.6637 -3.4057,0 -6.22421,2.46619 -6.22421,6.69396 0,4.28649 2.74022,6.53738 6.24378,6.53738 z m 10.76518,-0.23487 h 2.87723 v -12.7616 h -2.87723 z m 5.89148,0 h 2.7598 v -4.52136 c 0,-1.50713 -0.23488,-3.22955 -0.39146,-4.63881 h 0.0783 c 0.39146,0.99823 0.82206,2.01602 1.27224,2.87724 l 3.26869,6.28293 h 3.01425 v -12.7616 h -2.7598 v 4.52137 c 0,1.50712 0.23488,3.26869 0.37189,4.6388 h -0.0783 c -0.39146,-0.99823 -0.8025,-2.01602 -1.25267,-2.87723 l -3.2687,-6.28294 h -3.01424 z m 19.41645,0 h 2.8968 v -10.33455 h 3.50357 v -2.42705 h -9.90394 v 2.42705 h 3.50357 z m 8.39682,0 h 2.87723 v -5.32386 h 4.40392 v 5.32386 h 2.89681 v -12.7616 h -2.89681 v 4.91283 h -4.40392 v -4.91283 h -2.87723 z m 13.19219,0 h 8.18151 v -2.42705 h -5.30428 v -2.93595 h 4.3452 v -2.40748 h -4.3452 v -2.56407 h 5.10855 v -2.42705 h -7.98578 z m 10.72601,0 h 2.87723 v -4.59966 h 1.58541 l 2.44663,4.59966 h 3.22954 l -2.8968,-5.10855 c 1.37011,-0.60677 2.27047,-1.80072 2.27047,-3.67973 0,-3.03381 -2.21175,-3.97332 -4.91282,-3.97332 h -4.59966 z m 2.87723,-6.8897 v -3.58186 h 1.48755 c 1.50712,0 2.32919,0.43061 2.32919,1.68328 0,1.25267 -0.82207,1.89858 -2.32919,1.89858 z m 9.12104,6.8897 h 8.18151 v -2.42705 h -5.30428 v -2.93595 h 4.34521 v -2.40748 h -4.34521 v -2.56407 h 5.10855 v -2.42705 h -7.98578 z"
         id="text1"
         aria-label="DIG IN THERE" /></g><path
       style="font-size:20.5856px;line-height:6.03092px;letter-spacing:0px;word-spacing:0px;fill:none;fill-rule:evenodd;stroke:#846eff;stroke-width:2.59915;stroke-linecap:round;stroke-linejoin:round;stroke-dasharray:none;stroke-opacity:1"
       d="m 103.18446,181.02712 0.12181,-20.07674 17.209,11.44697 -13.70157,7.06705 0.0823,-11.78733 6.54669,4.29937 -2.75684,1.54282"
       id="path2749"
       sodipodi:nodetypes="ccccccc" /></g></svg>
