<?xml version="1.0" encoding="UTF-8" standalone="no"?>
<!-- Created with Inkscape (http://www.inkscape.org/) -->

<svg
   width="600"
   height="400"
   viewBox="0 0 158.75 105.83333"
   version="1.1"
   id="svg1"
   inkscape:version="1.4.1 (93de688d07, 2025-03-30)"
   sodipodi:docname="explainer.svg"
   xmlns:inkscape="http://www.inkscape.org/namespaces/inkscape"
   xmlns:sodipodi="http://sodipodi.sourceforge.net/DTD/sodipodi-0.dtd"
   xmlns="http://www.w3.org/2000/svg"
   xmlns:svg="http://www.w3.org/2000/svg">
  <sodipodi:namedview
     id="namedview1"
     pagecolor="#ffffff"
     bordercolor="#cccccc"
     borderopacity="1"
     inkscape:showpageshadow="0"
     inkscape:pageopacity="1"
     inkscape:pagecheckerboard="0"
     inkscape:deskcolor="#d1d1d1"
     inkscape:document-units="mm"
     inkscape:zoom="1.1455103"
     inkscape:cx="450.45426"
     inkscape:cy="288.08121"
     inkscape:window-width="2238"
     inkscape:window-height="1358"
     inkscape:window-x="0"
     inkscape:window-y="20"
     inkscape:window-maximized="1"
     inkscape:current-layer="layer1" />
  <defs
     id="defs1" />
  <g
     inkscape:label="Layer 1"
     inkscape:groupmode="layer"
     id="layer1">
    <path
       style="fill:none;fill-rule:evenodd;stroke:#000000;stroke-width:0.264583px;stroke-linecap:butt;stroke-linejoin:miter;stroke-opacity:1"
       d="m 36.955872,71.832977 c -1.354267,-0.270854 -1.207685,-0.136197 -2.540717,-0.923896 -1.250643,-0.739018 -2.56124,-1.402268 -3.695586,-2.309743 -0.808834,-0.647068 -1.497835,-1.452174 -2.078767,-2.309742 -2.25247,-3.325074 -3.122552,-5.049334 -3.926562,-8.77702 -0.837698,-3.883871 -1.711192,-7.413577 -1.385846,-11.317737 0.114449,-1.373388 1.083562,-4.063394 1.61682,-5.081431 0.357245,-0.682014 0.876453,-1.270484 1.385845,-1.847795 2.120346,-2.403056 3.336866,-3.142961 6.467278,-4.850458 2.257674,-1.231458 5.835639,-2.398291 8.315071,-2.309741 2.656461,0.09487 5.277588,0.728263 7.853121,1.385846 3.976291,1.015222 7.166785,5.198194 9.700919,7.622148 4.84419,4.633574 4.357124,4.982771 10.855788,9.469943 0.823627,0.568695 1.834528,0.803436 2.77169,1.154871 0.911866,0.341948 1.811068,0.763792 2.771691,0.923896 2.323782,0.387297 4.656986,0.388729 6.929225,-0.230973 4.906119,-1.338035 4.516734,-1.46862 8.777021,-3.695589 6.283986,-3.284812 5.305798,-2.443699 10.393837,-6.00533 6.60959,-4.626713 9.08155,-6.123924 14.3204,-10.855785 0.88882,-0.802807 1.67521,-1.712836 2.54072,-2.540717 2.29342,-2.193708 2.80217,-2.102374 4.15753,-4.619484 0.1505,-0.2795 0.40706,-0.659768 0.23098,-0.923897 -0.81592,-1.223878 -1.79974,-2.387135 -3.00267,-3.233639 -1.79563,-1.263593 -6.65185,-1.696591 -8.31507,-1.847794 -2.11061,-0.191873 -3.48303,0.04228 -5.54338,0.692923 -0.4925,0.155526 -1.04272,0.306905 -1.38585,0.692922 -0.92212,1.037391 -1.9731,2.118073 -2.30974,3.464614 -0.92874,3.71496 2.04774,10.754197 3.23364,13.16553 3.15309,6.411267 8.91827,10.593398 14.3204,15.013323 1.50394,1.23049 3.23905,2.147687 4.85046,3.233637 1.93023,1.300808 3.86748,2.59175 5.77436,3.926562 1.94304,1.360131 3.89893,2.705593 5.77435,4.157536 0.78973,0.611402 1.85367,1.70249 2.07877,2.77169 0.83846,3.982702 -0.39063,6.057366 -3.00267,9.931892 -3.21977,4.776005 -6.93737,9.20255 -10.62481,13.627478 -0.94166,1.129991 -2.10365,2.061004 -3.23364,3.002664 -1.18293,0.985774 -2.39863,1.941639 -3.69559,2.77169 -1.26676,0.810726 -2.91894,1.222561 -4.38851,1.385845 -2.03794,0.226439 -3.15237,-0.188499 -5.08143,-1.385845 -3.48361,-2.162243 -6.75997,-4.642037 -10.162862,-6.929225 -1.803976,-1.212509 -5.400344,-3.518173 -7.391175,-4.619485 -2.441178,-1.350439 -4.907552,-2.655872 -7.391175,-3.926562 -0.828188,-0.423725 -1.685644,-0.788411 -2.540717,-1.154869 -0.15785,-0.06765 -0.968996,-0.276077 -1.154869,-0.46195 -0.05444,-0.05444 -0.01511,-0.155477 0,-0.230973 0.06225,-0.31128 -0.0039,-0.710361 0.230973,-0.923899 0.664367,-0.603969 1.506668,-0.984305 2.309741,-1.385845 C 86.2,73.310998 90.719374,71.265067 95.161371,69.061287 106.72089,63.326329 109.78802,63.02545 117.56587,55.895758 c 1.48977,-1.365623 3.92426,-4.841259 4.38851,-6.698253 0.50556,-2.022226 0.57446,-4.154879 0.46195,-6.236303 -0.0448,-0.828013 -0.40589,-1.662229 -0.9239,-2.309743 -1.05483,-1.318538 -2.29063,-2.527972 -3.69559,-3.464613 -4.54514,-3.030099 -11.9901,-3.527417 -16.63014,-3.92656 -3.145032,-0.270542 -6.317659,-0.165909 -9.469942,0 -10.109985,0.532104 -14.334765,0.750634 -23.55937,4.850458 -1.486048,0.660466 -7.09527,4.51431 -8.546044,6.467277 -3.708524,4.992243 -3.708492,7.618288 -4.850458,14.089427 -0.174453,0.988568 -0.153982,2.001777 -0.230973,3.002664 -0.307967,1.616818 -0.592,3.238381 -0.923899,4.850458 -0.207137,1.006091 -0.28829,2.058524 -0.692922,3.002666 -0.605282,1.412325 -2.246868,5.153692 -4.157536,6.467277 -0.709327,0.487661 -1.498026,0.868383 -2.309741,1.154871 -0.975325,0.344231 -4.073398,0.282983 -4.619485,0.230974 -2.661311,-0.253458 -5.772628,-2.654848 -7.391175,-3.926562 -4.095763,-3.218098 -6.869813,-7.678817 -9.238967,-12.241633 -0.628686,-1.210803 -0.870506,-2.592234 -1.154871,-3.92656 -0.717672,-3.367537 -1.337034,-6.7578 -1.847794,-10.162865 -0.414012,-2.760083 -0.184104,-5.553514 0,-8.315071 0.05147,-0.772041 0.10377,-1.546516 0.230975,-2.309744 0.258159,-1.548955 0.615931,-3.079655 0.923896,-4.619482 0.153983,-0.769916 0.307966,-1.53983 0.461949,-2.309744 0.07699,-0.384955 0.123124,-0.777396 0.230974,-1.154871 0.200658,-0.7023 0.416367,-1.402745 0.692923,-2.078767 2.22151,-5.43036 0.930638,-1.184087 1.616819,-4.157536 0.480622,-2.082693 0.461948,-1.193478 0.461948,-2.078768 0,-0.153982 0,-0.307965 0,-0.461948 0,-0.07699 0.05444,-0.176533 0,-0.230974 -0.121735,-0.121734 -0.307964,-0.153983 -0.461948,-0.230974"
       id="path1" />
    <path
       style="fill:none;fill-rule:evenodd;stroke:#000000;stroke-width:0.264583px;stroke-linecap:butt;stroke-linejoin:miter;stroke-opacity:1"
       d="m 12.241633,12.934555 c 10.720862,37.838338 -0.822486,-2.583452 6.236303,21.4806 0.905453,3.086772 2.792375,9.396564 3.695587,13.396505 0.259411,1.148818 0.461949,2.309741 0.692923,3.464613 0.07699,0.384956 0.135759,0.774012 0.230974,1.154872 0.279668,1.118669 0.230974,0.272576 0.230974,1.154869 0,0.07699 0.05444,0.176533 0,0.230976 -0.19629,0.196289 -0.476156,0.288534 -0.692922,0.461947 -0.170046,0.136038 -0.255359,0.393086 -0.461949,0.461949 -0.516474,0.172159 -1.081189,0.133586 -1.616819,0.230973 -0.312323,0.05679 -0.60755,0.204613 -0.923897,0.230976 -0.613803,0.05115 -1.231862,0 -1.847793,0 -0.461949,0 -0.925794,-0.04182 -1.385846,0 -0.390968,0.03554 -0.763288,0.203005 -1.154871,0.230974 -0.691161,0.04937 -1.385845,0 -2.078768,0 -0.692922,0 -1.385845,0 -2.078767,0 -1.3858454,0 -2.772892,0.05769 -4.157536,0 C 4.6710724,55.339717 6.2205009,55.35155 5.0814324,54.971859 4.7802789,54.871476 4.4522747,54.858782 4.1575357,54.740886 4.0564411,54.700447 4.0035527,54.586904 3.9265613,54.509913 3.84957,54.432919 3.6955872,54.170055 3.6955872,54.278937 c 0,0.172159 0.1397307,0.31596 0.2309741,0.461949 0.2942519,0.470802 0.6626297,0.895969 0.923897,1.385845 0.3568364,0.669068 0.6061345,1.390282 0.9238967,2.078768 0.1442884,0.312624 0.3340727,0.604208 0.4619484,0.923896 0.1808438,0.452109 0.2604527,0.942554 0.4619485,1.385845 0.1857698,0.408694 0.5395029,0.732967 0.6929226,1.154872 0.4662371,1.282152 0.7728696,2.616843 1.154871,3.926562 0.1569416,0.538086 0.3037925,1.07909 0.4619485,1.616818 0.226809,0.771152 0.5067427,1.527787 0.6929226,2.309744 0.1993765,0.83738 0.2298536,1.711804 0.4619484,2.540714 0.308607,1.10217 0.821619,2.13867 1.154871,3.23364 1.180988,3.880387 -0.459182,0.237889 1.385845,4.850458 0.103097,0.257741 0.324222,0.4519 0.461948,0.692923 1.922519,3.364407 -0.602721,-0.974469 0.692923,1.616818 0.124145,0.24829 0.324222,0.451903 0.461948,0.692923 0.170829,0.29895 0.307966,0.615931 0.461949,0.923898 0.153983,0.307965 0.241522,0.659384 0.461948,0.923896 0.177713,0.213257 0.482156,0.281292 0.692923,0.461949 0.330678,0.283438 0.580111,0.656508 0.923897,0.923896 0.354366,0.275619 0.759598,0.480084 1.154871,0.692923 1.365966,0.73552 1.721788,0.893201 3.002664,1.385845 3.105385,1.194379 0.746176,0.345178 2.771691,0.923898 0.2341,0.06688 0.451901,0.196541 0.692922,0.230974 0.304871,0.04355 0.615931,0 0.923897,0 0.384957,0 0.769914,0 1.154872,0 1.000887,0 2.001776,0 3.002663,0 0.307967,0 0.620123,-0.05063 0.923899,0 0.626248,0.104375 1.220287,0.365408 1.847792,0.461949 0.380481,0.05853 0.772268,-0.04251 1.154872,0 0.315502,0.03505 0.612616,0.168717 0.923895,0.230973 0.459227,0.09185 0.926622,0.139129 1.385846,0.230974 1.097782,0.219556 0.868579,0.30059 2.078767,0.461949 3.602458,0.480327 0.995773,0.06942 4.388512,0.230973 3.431204,0.163391 1.824341,0.195744 4.619482,0.461949 0.999323,0.09517 2.002943,0.140089 3.002666,0.230974 5.674482,0.515863 -1.775492,-0.128945 4.388509,0.692922 0.381582,0.05088 0.771496,-0.03485 1.154872,0 0.466397,0.0424 0.919847,0.184375 1.385845,0.230976 0.306438,0.03064 0.615931,0 0.923896,0 0.846907,0 1.693812,0 2.540717,0"
       id="path2" />
    <path
       style="fill:none;fill-rule:evenodd;stroke:#000000;stroke-width:0.264583px;stroke-linecap:butt;stroke-linejoin:miter;stroke-opacity:1"
       d="m 69.061287,13.858452 c 7.810172,5.577724 15.530483,11.314399 22.635471,17.785013 5.717858,5.207336 11.259562,10.604974 16.861112,15.937219 2.40567,2.290014 4.88987,4.504976 7.16021,6.929229 2.27763,2.432055 4.30771,5.084662 6.46727,7.622148 2.97714,3.49813 1.82493,2.286876 3.92656,4.388509 0.23098,0.230973 0.46195,0.461949 0.69293,0.692922 0.077,0.07699 0.13358,0.182282 0.23097,0.230974 0.13804,0.06902 0.46195,-0.152048 0.46195,0.230976 0,0.172156 -0.13548,0.318703 -0.23097,0.461946 -0.52131,0.781963 -0.98813,1.611196 -1.61683,2.309744 -0.80278,0.891987 -3.30127,3.114024 -4.61948,3.695586 -1.87166,0.825733 -3.81346,1.495801 -5.77435,2.078768 -1.12794,0.335333 -6.33539,0.888267 -6.92923,0.923898 -2.4605,0.14763 -4.92683,0.284547 -7.39117,0.230974 -1.088569,-0.02365 -2.157108,-0.298837 -3.233642,-0.46195 -1.464249,-0.221855 -2.922436,-0.483483 -4.388511,-0.692922 -2.827065,-0.403865 -1.408041,-0.06455 -4.388509,-0.461947 -0.389138,-0.05188 -0.765323,-0.182282 -1.154872,-0.230976 -0.84383,-0.105479 -1.696884,-0.125494 -2.540717,-0.230973 -0.389548,-0.04869 -0.76763,-0.166434 -1.154869,-0.230973 -0.537003,-0.0895 -1.079815,-0.141476 -1.616821,-0.230976 -0.387239,-0.06454 -0.763445,-0.200864 -1.154869,-0.230974 -0.614117,-0.04724 -1.231863,0 -1.847795,0 -0.384958,0 -0.771048,0.02952 -1.154871,0 -0.618895,-0.04761 -1.228897,-0.183366 -1.847792,-0.230973 -0.383823,-0.02953 -0.772552,0.04498 -1.154872,0 -0.120221,-0.01416 -3.126872,-0.493001 -3.926562,-0.692922 -0.236199,-0.05905 -0.452766,-0.19095 -0.692923,-0.230976 -0.22783,-0.03797 -0.461946,0 -0.692922,0 -0.384956,0 -0.769914,0 -1.154872,0 -0.769914,0 -1.539828,0 -2.309741,0 -0.230974,0 -0.463733,-0.02865 -0.692923,0 -0.389548,0.04869 -0.764691,0.187621 -1.154872,0.230976 -2.589387,0.287707 1.383327,-0.608246 -2.540714,0.461946 -0.306258,0.08353 -0.639966,0.08901 -0.923898,0.230976 -0.194773,0.09739 -0.307965,0.307964 -0.461947,0.461947 -0.07699,0.07699 -0.153985,0.153982 -0.230976,0.230976"
       id="path3" />
    <path
       style="fill:none;fill-rule:evenodd;stroke:#000000;stroke-width:0.264583px;stroke-linecap:butt;stroke-linejoin:miter;stroke-opacity:1"
       d="m 74.373694,94.237475 c 0.461947,-0.230976 0.964388,-0.394393 1.385845,-0.692922 4.234561,-2.999481 15.467378,-12.831387 16.399169,-13.627478 3.860294,-3.298119 7.699139,-6.621262 11.548712,-9.931892 3.84957,-3.310631 7.78488,-6.524099 11.54871,-9.93189 1.32003,-1.195162 7.25664,-7.218177 9.00799,-9.238969 0.89778,-1.035894 1.78034,-2.093069 2.54072,-3.23364 0.32524,-0.48787 0.45029,-1.083027 0.69292,-1.616818 0.14248,-0.313455 0.32631,-0.60742 0.46195,-0.923896 0.0959,-0.223782 0.15398,-0.461949 0.23097,-0.692923 0.26354,-0.790622 0.50319,-1.5735 0.9239,-2.309743 0.32859,-0.57504 0.76199,-1.083625 1.15487,-1.616819 0.68507,-0.929735 1.31151,-1.908529 2.07877,-2.77169 0.47158,-0.530529 1.07151,-0.931426 1.61682,-1.385845 1.34127,-1.11773 1.23528,-0.859258 2.54071,-2.309741 0.25753,-0.286136 0.45245,-0.623298 0.69293,-0.923899 1.35582,-1.694778 0.87322,-0.973505 2.07876,-2.540714 0.46943,-0.610254 0.91642,-1.237544 1.38585,-1.847794 0.30058,-0.390753 0.62332,-0.76412 0.9239,-1.154872 0.46942,-0.610251 0.91642,-1.237541 1.38584,-1.847794 0.43254,-0.562296 1.24976,-1.630243 1.84779,-2.078767 4.95692,-3.098072 -0.30865,0.385506 2.77169,-2.078768 0.43354,-0.346827 0.9239,-0.615931 1.38585,-0.923897 0.23097,-0.153983 0.45752,-0.314823 0.69292,-0.461949 0.3807,-0.237934 0.78956,-0.431985 1.15487,-0.692922 0.17721,-0.126573 0.30797,-0.307966 0.46195,-0.461948 0.23098,-0.230975 0.46195,-0.461949 0.69293,-0.692923 0.15398,-0.153983 0.3539,-0.272876 0.46194,-0.461948 0.20571,-0.359984 0.29863,-0.773784 0.46195,-1.154871 0.0678,-0.158239 0.10924,-0.340215 0.23098,-0.461949 0.0544,-0.05444 0.15398,0 0.23097,0"
       id="path4" />
    <path
       style="fill:none;fill-rule:evenodd;stroke:#000000;stroke-width:0.264583px;stroke-linecap:butt;stroke-linejoin:miter;stroke-opacity:1"
       d="m 146.20667,8.7770196 c 0.077,0.3849571 0.15398,0.769914 0.23097,1.1548711 1.15487,4.8504583 2.44555,9.6705783 3.46462,14.5513743 0.44507,2.131678 0.63817,4.308457 0.92389,6.467278 0.48862,3.691784 1.7216,13.625194 2.07877,17.55404 0.13262,1.458844 0.15119,2.925823 0.23098,4.388509 0.15119,2.771843 0.27729,5.545256 0.46194,8.315071 0.0464,0.695642 0.2007,1.382238 0.23098,2.078767 0.0468,1.076862 0,2.155762 0,3.23364 0,1.693812 0,3.387622 0,5.081434 0,0.538938 0,1.077878 0,1.616818 0,1.385845 0.0478,2.772513 0,4.157536 -0.0293,0.849892 -0.17039,1.692478 -0.23098,2.540717 -0.37563,5.258861 0.001,2.301078 -0.46194,5.54338 -0.077,0.538941 -0.15399,1.077878 -0.23098,1.616819 -0.077,0.53894 -0.18168,1.074645 -0.23097,1.616818 -0.0279,0.306703 0.0382,0.61831 0,0.923899 -0.1369,1.095166 -0.16268,0.637661 -0.46195,1.385845 -0.57277,0.217974 -0.13059,0.622742 -0.23097,0.923896 -0.0545,0.163324 -0.17654,0.298624 -0.23098,0.461949 -0.0212,0.06366 0,0.594916 0,0.692923 0,0.07699 0.0427,0.166912 0,0.230973 -0.12079,0.181192 -0.30797,0.307967 -0.46195,0.461949 -0.077,0.07699 -0.14595,0.162957 -0.23097,0.230973 -0.3006,0.240483 -0.65169,0.420717 -0.9239,0.692923 -0.12173,0.121735 -0.12343,0.327517 -0.23097,0.461949 -0.20406,0.255069 -0.46195,0.46195 -0.69293,0.692923 -0.077,0.07699 -0.18228,0.133588 -0.23097,0.230973 -0.0344,0.06886 0,0.153985 0,0.230976 -0.077,0.153982 -0.13548,0.318704 -0.23097,0.461947 -0.0604,0.0906 -0.17058,0.14038 -0.23098,0.230976 -0.0955,0.143243 -0.13548,0.318704 -0.23097,0.461946 -0.0604,0.0906 -0.15399,0.153985 -0.23098,0.230976 -0.23097,0.230974 -0.46195,0.461947 -0.69292,0.692923 -0.077,0.07699 -0.15398,0.153982 -0.23097,0.230973 -0.077,0.07699 -0.12535,0.204565 -0.23098,0.230974 -0.22407,0.05602 -0.46195,0 -0.69292,0 -0.23097,0 -0.46195,0 -0.69292,0 -0.61593,0 -1.23186,0 -1.8478,0 -0.76991,0 -1.54178,0.05486 -2.30974,0 -0.31663,-0.02262 -0.61262,-0.168717 -0.9239,-0.230974 -2.71561,-0.452601 -0.24239,-0.0026 -2.30974,-0.461949 -0.38323,-0.08516 -0.76532,-0.182279 -1.15487,-0.230973 -2.74293,-0.342866 2.74192,0.733163 -2.07877,-0.230974 -0.31128,-0.06226 -0.61261,-0.168719 -0.92389,-0.230976 -0.45923,-0.09184 -0.92662,-0.139128 -1.38585,-0.230973 -0.31128,-0.06226 -0.60803,-0.199387 -0.9239,-0.230973 -0.45965,-0.04597 -0.92389,0 -1.38584,0 -0.30797,0 -0.61593,0 -0.9239,0 -1.61682,0 -3.23364,0 -4.85045,0 -0.61594,0 -1.23187,0 -1.8478,0 -0.23097,0 -0.46195,0 -0.69292,0 -0.077,0 -0.16211,-0.03443 -0.23097,0 -0.0974,0.04869 -0.15399,0.153982 -0.23098,0.230973"
       id="path5" />
    <path
       style="fill:none;fill-rule:evenodd;stroke:#000000;stroke-width:0.264583px;stroke-linecap:butt;stroke-linejoin:miter;stroke-opacity:1"
       d="m 7.3911745,9.7009166 c 1.3505018,6.7263734 2.361512,13.5231404 3.2336385,20.3257304 0.285442,2.226442 0.483404,4.463386 0.692923,6.698252 0.252447,2.69277 0.434061,5.391933 0.692922,8.084095 1.27547,13.264888 -0.487271,-7.934465 0.923897,9.469943 0.08113,1.000561 0.14761,2.002287 0.230974,3.002666 0.205296,2.463541 0.351981,3.366095 0.461949,6.005327 0.02885,0.692322 0,1.385845 0,2.078768 0,1.924785 0,3.849571 0,5.774357 0,0.461949 0,0.923895 0,1.385845 0,0.06347 -0.02304,0.808701 0,0.923896 0.06226,0.311279 0.181465,0.610338 0.230974,0.923898 0.634682,4.019653 0.253797,3.513603 1.385845,7.853122 0.08691,0.333166 0.307966,0.615931 0.461949,0.923896 0.07699,0.153984 0.230974,0.28979 0.230974,0.461949 0,0.172159 -0.199248,0.29274 -0.230974,0.461949 -0.200658,1.070174 -0.341708,2.151475 -0.461949,3.233637 -0.221712,1.995411 -0.262175,4.007604 -0.461948,6.00533 -0.05417,0.54171 -0.181686,1.074645 -0.230974,1.616821 -0.02788,0.3067 0,0.615931 0,0.923896 0,0.923896 0,1.847794 0,2.77169 0,0.846905 0,1.693806 0,2.540716 0,0.077 0,0.15398 0,0.23097 0,0.15399 -0.108883,0.35307 0,0.46195 0.108882,0.10889 0.307965,0 0.461948,0 0.07699,0 0.153983,0 0.230974,0 2.921492,0 0.315317,0.0762 3.233639,-0.23097 2.740924,-0.28852 2.383694,-0.23098 4.850458,-0.23098 2.986296,0 -0.458509,0.046 3.695586,-0.23097 0.384107,-0.0256 0.771827,0.0383 1.154872,0 1.159309,-0.11593 2.309307,-0.31126 3.464613,-0.46195 0.615511,-0.0803 1.229215,-0.17942 1.847795,-0.23097 0.3069,-0.0256 0.616995,0.0256 0.923895,0 0.61858,-0.0516 1.229215,-0.17943 1.847795,-0.23098 0.306901,-0.0256 0.615931,0 0.923896,0 0.384958,0 0.769913,0 1.154872,0 0.53894,0 1.079468,0.0413 1.616818,0 0.466942,-0.0359 0.918334,-0.20347 1.385845,-0.23097 0.845444,-0.04973 1.693812,0 2.540717,0 2.001777,0 4.003553,0 6.00533,0 0.53894,0 1.078709,0.0299 1.616818,0 5.914097,-0.32856 -1.224838,-0.230974 5.774357,-0.230974 1.539827,0 3.079655,0 4.619482,0 0.307967,0 0.617461,0.03064 0.923899,0 0.465994,-0.0466 0.919448,-0.188576 1.385845,-0.230976 0.383376,-0.03485 0.77329,0.05088 1.154869,0 0.778274,-0.10377 1.538031,-0.317251 2.309744,-0.461947 1.762148,-0.330403 1.383966,-0.201869 3.464613,-0.461949 0.540207,-0.06753 1.074859,-0.179358 1.616818,-0.230973 1.075759,-0.102455 2.154507,-0.174178 3.23364,-0.230976 0.384423,-0.02024 0.769913,0 1.154871,0 1.385846,0 2.771691,0 4.157536,0 1.077878,0 2.155759,0 3.233637,0 0.307967,0 0.615931,0 0.923898,0 0.384956,0 0.771824,-0.0383 1.154869,0 0.390634,0.03906 0.764694,0.187621 1.154872,0.230976 0.306084,0.03401 0.615932,0 0.923896,0 0.230976,0 0.461949,0 0.692925,0 0.307965,0 0.617813,-0.03401 0.923896,0 0.390179,0.04335 0.766236,0.175453 1.154872,0.230973 0.665967,0.09514 0.285792,-0.176154 0.692923,0.230974"
       id="path6" />
    <path
       style="fill:none;fill-rule:evenodd;stroke:#000000;stroke-width:0.264583px;stroke-linecap:butt;stroke-linejoin:miter;stroke-opacity:1"
       d="m 12.703581,4.8504583 c 2.96386,0.3293176 5.71837,0.6406885 8.77702,0.9238967 1.92271,0.1780288 3.852545,0.2744549 5.774355,0.4619484 11.485031,1.1204911 -6.427701,-0.2812314 9.238967,0.923897 3.753988,0.2887681 4.180311,0.191739 8.315071,0.6929226 0.929836,0.1127072 1.843836,0.3339681 2.77169,0.4619482 1.305521,0.1800719 2.616743,0.316413 3.926562,0.4619484 2.488065,0.2764518 6.259145,0.5719858 8.315071,0.6929226 0.614871,0.036169 1.231863,0 1.847795,0 1.077881,0 2.155759,0 3.233639,0 1.770801,0 3.541604,0 5.312408,0 0.846904,0 1.694487,0.033849 2.540714,0 1.079762,-0.04319 2.153952,-0.185987 3.23364,-0.2309741 0.769246,-0.032052 1.539827,0 2.309741,0 1.07788,0 2.155758,0 3.233639,0 0.692923,0 1.386184,0.021643 2.078768,0 1.77161,-0.055363 3.543384,-0.1204103 5.312407,-0.2309741 0.695828,-0.04349 1.384721,-0.1648746 2.078768,-0.2309744 0.922922,-0.087897 1.849683,-0.1339209 2.77169,-0.2309741 0.54142,-0.056992 1.073613,-0.1947606 1.616819,-0.2309743 0.614568,-0.040971 1.231863,0 1.847794,0 1.539827,0 3.079651,0 4.619481,0 2.54072,0 5.08144,0 7.62215,0 0.76992,0 1.53983,0 2.30974,0 1.00089,0 2.00272,0.043476 3.00267,0 0.77302,-0.03361 1.53648,-0.2033577 2.30974,-0.2309741 1.38496,-0.049463 2.7728,0.055389 4.15754,0 0.54397,-0.021759 1.07661,-0.1634482 1.61681,-0.2309741 1.30771,-0.1634631 2.61675,-0.3164129 3.92657,-0.4619485 0.76902,-0.085447 1.54072,-0.1455275 2.30974,-0.2309741 0.61693,-0.068548 1.23217,-0.1515393 1.84779,-0.2309744 1.77112,-0.2285315 3.54129,-0.4643911 5.31241,-0.6929226 0.61562,-0.079435 1.23551,-0.1289277 1.84779,-0.2309741 0.77448,-0.1290799 1.53147,-0.3581786 2.30974,-0.4619484 0.38158,-0.050877 0.76992,0 1.15488,0 0.8469,0 1.69381,0 2.54071,0"
       id="path7" />
  </g>
</svg>
