<?xml version="1.0" encoding="UTF-8" standalone="no"?>
<!-- Created with Inkscape (http://www.inkscape.org/) -->

<svg
   version="1.1"
   id="svg1"
   width="800"
   height="800"
   viewBox="0 0 800 800"
   sodipodi:docname="prop-motivate.svg"
   inkscape:version="1.3.2 (091e20ef0f, 2023-11-25, custom)"
   xmlns:inkscape="http://www.inkscape.org/namespaces/inkscape"
   xmlns:sodipodi="http://sodipodi.sourceforge.net/DTD/sodipodi-0.dtd"
   xmlns="http://www.w3.org/2000/svg"
   xmlns:svg="http://www.w3.org/2000/svg">
  <defs
     id="defs1" />
  <sodipodi:namedview
     id="namedview1"
     pagecolor="#ffffff"
     bordercolor="#cccccc"
     borderopacity="1"
     inkscape:showpageshadow="0"
     inkscape:pageopacity="1"
     inkscape:pagecheckerboard="0"
     inkscape:deskcolor="#d1d1d1"
     inkscape:zoom="2.0522069"
     inkscape:cx="420.03562"
     inkscape:cy="453.17068"
     inkscape:window-width="2238"
     inkscape:window-height="1358"
     inkscape:window-x="0"
     inkscape:window-y="20"
     inkscape:window-maximized="1"
     inkscape:current-layer="g1" />
  <g
     inkscape:groupmode="layer"
     inkscape:label="Image"
     id="g1">
    <path
       style="fill:#000000"
       d="M 74.896562,767.98011 C 52.745567,762.17657 35.41822,745.84069 30.921416,726.52123 28.663267,716.81962 30.038093,705.22376 35.007229,692.05977 78.99661,575.52529 175.59934,452.53827 277.57308,383.24397 c 12.49504,-8.49076 13.72348,-9.09314 15.46667,-7.58424 3.82488,3.31083 17.07302,10.3443 25.89358,13.74698 4.98667,1.92368 9.15143,3.5389 9.25502,3.58936 0.1036,0.0505 -5.60315,6.08699 -12.68165,13.4145 -15.44243,15.98569 -30.41449,33.6989 -45.02112,53.26377 C 203.30709,549.65668 139.54044,689.47498 131.69238,764 l -0.64589,6.13333 -24.18991,-0.0587 c -20.246375,-0.0492 -25.456627,-0.39061 -31.960018,-2.09449 z m 113.221928,-5.28704 c 1.52382,-16.39569 13.17065,-54.10011 27.81702,-90.05234 31.38283,-77.03498 73.92051,-150.47925 117.75222,-203.3074 13.59167,-16.38135 36.67421,-39.16765 49.92324,-49.28255 14.92952,-11.39784 17.70119,-12.91993 21.96358,-12.06149 7.53456,1.51746 7.51859,0.95955 0.32966,11.51687 -20.45919,30.04542 -43.54049,75.90617 -60.50924,120.22717 -27.72855,72.42476 -47.80821,154.52526 -52.24102,213.6 l -1.26063,16.8 h -52.23317 -52.23316 z m 159.61484,7.14526 c 0,-4.89577 2.72673,-31.39834 4.30455,-41.83833 11.7114,-77.4909 41.62204,-170.71971 75.69449,-235.93304 8.16678,-15.6309 19.5544,-34.76804 20.95796,-35.22029 0.50032,-0.16122 2.82849,2.70233 5.17372,6.36344 12.86844,20.0888 28.54104,37.90908 41.42792,47.10496 l 6.87813,4.90814 -2.55791,9.85506 C 489.32837,564.69949 479.48228,627.79141 475.18551,681.6 c -2.4763,31.01079 -6.60565,43.69969 -19.48072,59.8614 -9.2288,11.58465 -22.29083,20.51107 -37.57146,25.67584 -6.38923,2.15953 -9.42362,2.37559 -38.66666,2.7532 -17.45334,0.22537 -31.73334,0.20192 -31.73334,-0.0521 z M 532.28592,467.54315 C 520.7021,461.77069 509.68432,448.01056 485.89067,409.6 c -27.17364,-43.86695 -29.58765,-46.85327 -40.90102,-50.59792 -2.74431,-0.90834 -20.67991,-4.273 -39.85689,-7.47701 -19.17698,-3.20401 -40.05698,-6.99507 -46.4,-8.42457 -30.70063,-6.9189 -43.36273,-16.83603 -43.18715,-33.82477 0.14552,-14.08081 9.25819,-28.96194 40.78898,-66.60906 7.86167,-9.38667 18.45679,-22.05142 23.54472,-28.14388 11.62221,-13.91686 14.92573,-20.24318 15.53914,-29.75789 0.2829,-4.38808 -1.04076,-19.98018 -3.41538,-40.23157 -4.75221,-40.52805 -5.86709,-66.875903 -3.29139,-77.785552 5.10097,-21.605695 20.62056,-29.162624 47.26908,-23.016656 12.6816,2.924765 23.19005,6.536032 60.79781,20.893369 30.62749,11.692517 35.40883,13.174099 42.65082,13.2161 6.893,0.03998 11.94861,-2.040942 50.43728,-20.760261 51.47548,-25.035576 61.77284,-28.801118 76.88378,-28.114894 7.155,0.324926 8.89939,0.813213 12.86689,3.60168 14.82177,10.417127 16.75465,26.727038 11.05643,93.295554 -3.28607,38.38887 -3.23286,47.30299 0.32573,54.57632 1.39916,2.85969 9.09651,12.07283 18.11665,21.68424 34.46458,36.72374 40.19578,43.04582 47.37089,52.25483 10.4177,13.37075 13.85108,20.51282 14.48331,30.12799 0.44674,6.79424 0.16708,8.40019 -2.36351,13.57253 -7.30304,14.92689 -21.57436,21.32151 -88.07351,39.46356 -18.48,5.04164 -36.06792,10.36698 -39.08427,11.83407 -7.60222,3.69758 -12.5642,9.51946 -21.32775,25.02379 -4.14504,7.33333 -13.19645,23.36999 -20.11425,35.63702 C 572.80228,458.27805 561.45188,470.4 543.48609,470.4 c -3.79063,0 -7.2253,-0.87609 -11.20017,-2.85685 z"
       id="path1" />
  </g>
</svg>
