<?xml version="1.0" encoding="UTF-8" standalone="no"?>
<!-- Created with Inkscape (http://www.inkscape.org/) -->

<svg
   width="320mm"
   height="200mm"
   viewBox="0 0 320 200"
   version="1.1"
   id="svg5"
   xml:space="preserve"
   inkscape:version="1.2.2 (b0a8486541, 2022-12-01)"
   sodipodi:docname="prop-adoption.svg"
   xmlns:inkscape="http://www.inkscape.org/namespaces/inkscape"
   xmlns:sodipodi="http://sodipodi.sourceforge.net/DTD/sodipodi-0.dtd"
   xmlns="http://www.w3.org/2000/svg"
   xmlns:svg="http://www.w3.org/2000/svg"><sodipodi:namedview
     id="namedview7"
     pagecolor="#ffffff"
     bordercolor="#cccccc"
     borderopacity="1"
     inkscape:showpageshadow="0"
     inkscape:pageopacity="1"
     inkscape:pagecheckerboard="0"
     inkscape:deskcolor="#d1d1d1"
     inkscape:document-units="mm"
     showgrid="false"
     inkscape:zoom="0.80328458"
     inkscape:cx="262.67154"
     inkscape:cy="431.35398"
     inkscape:window-width="2238"
     inkscape:window-height="1358"
     inkscape:window-x="0"
     inkscape:window-y="20"
     inkscape:window-maximized="1"
     inkscape:current-layer="layer1" /><defs
     id="defs2" /><g
     inkscape:label="Layer 1"
     inkscape:groupmode="layer"
     id="layer1"
     transform="translate(-47.428439,-47.82498)"><path
       id="path425"
       style="fill:#000000;stroke-width:0.947079"
       d="m 283.05873,49.590843 c -5.59489,-0.184838 -11.22309,1.552415 -15.54569,5.151928 -3.78187,2.63508 -5.70853,7.222942 -5.58733,11.755894 -0.16285,6.691854 2.77941,12.865268 5.66773,18.719236 1.21608,1.674328 -0.0581,1.907077 -1.68684,1.640096 -10.15202,-0.73389 -20.13278,-3.067758 -29.97487,-5.434064 C 224.95662,78.62306 214.01668,75.002535 202.76623,73.03009 192.56002,71.213535 182.105,69.557251 171.729,70.748593 c -4.49399,0.50814 -9.63407,2.949939 -10.72657,7.733478 -0.98264,6.731323 3.35629,12.86411 3.18801,19.54222 -0.4236,3.115109 -4.15028,3.739089 -6.68537,4.299599 -6.23781,0.89148 -12.71374,0.87123 -18.86508,-0.57318 -2.59188,-0.51092 -4.80948,-2.789107 -4.37376,-5.566858 0.3137,-6.1644 4.69446,-11.927782 3.03594,-18.20516 -1.91957,-5.213758 -7.8471,-7.313083 -12.9565,-7.713038 -11.85593,-0.899462 -23.62818,1.50963 -35.247337,3.548586 -3.512274,0.835189 -7.261208,1.166791 -10.517216,2.790701 -1.403063,1.402158 -0.181676,3.680751 -0.05243,5.405943 2.556847,10.79711 5.755245,21.403956 7.688754,32.318536 0.85875,5.15557 1.987171,10.25589 1.723185,15.50671 -5.657429,-2.0421 -11.000493,-5.29482 -17.145979,-5.67862 -3.740464,-0.21237 -8.18417,-1.08873 -11.143565,1.86043 -4.743319,3.5267 -7.843814,8.99846 -8.481637,14.86852 -0.799193,7.36149 -0.56878,15.12642 2.332406,22.04088 2.134792,5.26142 7.223091,9.27731 12.982994,9.48495 6.996243,0.53601 13.384795,-2.83196 19.606993,-5.50856 1.037738,-0.45202 2.489238,-1.26896 1.969386,0.67975 -0.424053,9.34629 -2.650618,18.44616 -4.708752,27.4964 -1.626629,7.49282 -4.323132,14.74735 -5.441212,22.34299 -0.463763,2.42082 2.512172,2.65026 4.126126,3.31199 13.46991,4.04814 27.114964,7.78204 41.087784,9.60324 4.36738,0.34449 9.12739,1.10858 13.2315,-0.82982 2.54937,-1.19261 3.8685,-4.21708 2.84885,-6.87411 -2.14443,-6.7716 -7.19847,-12.90672 -6.60146,-20.34449 0.58551,-4.77997 5.62173,-7.05437 9.78425,-8.00671 6.11088,-1.18914 12.8984,-1.24173 18.5064,1.7737 3.42928,1.69652 5.68365,5.49412 5.00105,9.33852 -0.72664,7.03239 -5.78668,12.59559 -7.26336,19.37827 0.21326,3.94856 4.61801,5.66205 8.00144,6.009 6.08981,0.3389 12.07353,-1.3307 18.02242,-2.40417 17.76386,-3.64916 34.87336,-9.64254 52.45608,-13.90316 9.63486,-2.29512 19.41893,-4.92602 29.3929,-5.52104 2.16486,-0.48178 1.72339,0.93822 0.89271,2.311 -3.13906,6.15769 -6.07205,12.88397 -5.38571,19.96322 0.35244,6.9864 6.38723,12.24585 12.74991,14.09203 6.85338,2.00279 14.1896,1.3831 21.12211,0.13363 6.6633,-1.25833 13.37468,-6.03306 14.38242,-13.13071 0.98755,-6.79796 -1.64754,-13.5035 -4.5721,-19.50475 -0.59749,-1.19818 -1.42689,-2.51242 -1.78279,-3.7071 8.10923,0.0994 15.9521,1.95615 23.86282,3.53407 8.35807,1.72914 16.4784,4.21719 24.74601,6.36517 1.67558,0.21908 4.02572,1.39763 5.28354,-0.17865 1.97309,-5.34954 2.58393,-11.09983 3.65131,-16.67764 1.66812,-10.80719 3.56899,-21.85457 1.92718,-32.78304 -0.59953,-4.07056 -3.05891,-8.45066 -7.46616,-9.15193 -6.40816,-1.27049 -12.36187,2.33266 -18.59359,2.96995 -3.54367,0.30467 -5.0556,-3.69255 -5.3577,-6.57616 -0.85146,-6.47146 -0.96599,-13.17658 0.51282,-19.56335 0.55719,-2.50298 2.81108,-4.83051 5.56318,-4.1727 6.18022,0.95353 12.3172,4.43048 18.68759,2.70562 4.75742,-1.34512 6.53381,-6.62352 6.98183,-11.04657 1.34574,-11.76927 -0.82465,-23.57454 -3.01481,-35.105234 -1.05642,-4.162769 -1.60919,-8.648429 -3.89889,-12.354271 -1.50109,-1.726762 -3.78997,0.05126 -5.60752,0.273725 -14.3406,4.1781 -28.82964,7.814812 -43.69709,9.415123 -1.19955,0.09586 -2.42319,0.18314 -3.61724,0.11109 2.20318,-4.364588 4.42416,-8.762471 5.65404,-13.527712 1.5868,-5.345478 1.81197,-11.817009 -2.18058,-16.205799 -4.00069,-4.79187 -10.2054,-7.156669 -16.33636,-7.390703 -2.64378,-0.196994 -5.30294,-0.187567 -7.95344,-0.161699 z m 3.85916,7.125802 c 5.67403,-0.05507 12.15101,0.917664 15.78425,5.77922 1.49471,2.330551 0.56687,5.334496 0.27096,7.906112 -1.12196,5.913099 -4.87463,10.829231 -6.68511,16.480143 -0.89835,3.463031 2.79691,6.086161 5.89352,6.316799 8.33828,0.919966 16.69208,-0.801338 24.85721,-2.338359 8.34583,-1.55532 16.41134,-4.284746 24.71917,-5.986768 1.39721,-0.380022 0.87485,2.10185 1.38942,2.927087 1.84193,9.257884 3.48326,18.707171 3.9264,28.025301 -0.0257,4.36679 0.22193,9.20387 -2.27466,12.99795 -1.57644,1.58054 -3.90001,-0.0624 -5.72431,-0.31514 -5.29341,-1.63556 -11.24742,-4.18964 -16.68986,-1.70342 -5.3438,2.69461 -7.37717,8.98306 -7.7082,14.5862 -0.35788,7.14734 -0.78869,14.62833 1.76093,21.45228 1.47761,4.27396 5.6516,7.39844 10.21592,7.32169 5.66628,0.30616 10.75212,-2.67199 16.21015,-3.53754 2.62873,-0.0441 3.63666,3.19761 3.86913,5.35963 0.82041,10.94026 -1.03341,21.85981 -2.77506,32.62554 -0.43975,2.21659 -0.78219,4.46665 -1.49725,6.61635 -7.54932,-1.28458 -14.79654,-3.92815 -22.31021,-5.40912 -8.91896,-1.84736 -18.02045,-3.79068 -27.17719,-3.12192 -2.9969,0.13013 -6.31445,1.90284 -6.8112,5.09134 0.13728,3.57526 2.57029,6.55916 3.89548,9.77378 2.21735,4.64531 4.05344,9.89173 3.17791,15.08527 -2.56114,4.16751 -7.53728,6.38026 -12.33342,6.42738 -4.94882,0.20414 -10.09393,0.62556 -14.90091,-0.80642 -3.7024,-1.08674 -7.2884,-4.09792 -7.24684,-8.24872 -0.21447,-7.12877 4.46942,-13.00018 6.49705,-19.54138 0.97672,-2.6506 0.37994,-6.31171 -2.6466,-7.26851 -5.0692,-1.54851 -10.49157,-0.55968 -15.64972,-0.01 -12.54182,1.59438 -24.70513,5.59608 -37.02701,7.86328 -1.08215,-0.42717 -0.90078,-2.6808 -1.50309,-3.79194 -3.59343,-12.90327 -6.64269,-25.96928 -7.77775,-39.42432 0.10442,-1.00251 -0.72825,-3.82176 1.06285,-2.22592 6.91826,4.10714 15.17027,7.34841 23.31069,5.54802 6.57443,-1.4796 10.91593,-7.91141 11.62777,-14.35428 0.74654,-6.23083 0.82856,-12.61038 -0.13219,-18.82068 -0.89434,-4.68076 -3.74553,-9.04475 -7.70485,-11.69144 -6.13269,-3.48384 -13.6381,-1.78823 -19.83791,0.62989 -2.79972,1.15097 -5.47912,2.55984 -8.2112,3.85916 -0.1268,-10.33553 2.5178,-20.41481 4.60667,-30.46135 1.24084,-5.229784 2.31538,-10.392551 4.09215,-15.40284 12.24634,2.134541 24.29524,6.134184 36.72867,7.766298 5.34559,0.625117 10.91828,1.627575 16.21415,0.203691 2.9397,-0.832411 3.87316,-4.292729 2.95405,-6.940394 -1.64464,-5.892769 -5.4904,-10.795317 -6.39185,-16.94664 -0.84692,-3.73774 0.42495,-8.172299 4.13174,-9.859751 4.35797,-2.196435 9.20191,-2.336709 13.81983,-2.438039 z m -109.60843,20.80066 c 10.61028,0.07697 21.09202,1.736983 31.57983,3.812011 1.23255,0.266949 2.47498,0.520329 3.66643,0.938502 -1.39351,6.706153 -3.44692,13.269555 -4.82869,19.982802 -1.69608,8.30183 -3.83921,16.58364 -4.36663,25.06444 -0.0328,3.82398 0.19356,8.67112 3.85751,10.86857 2.65509,1.1514 5.44149,-0.67571 7.91368,-1.55884 5.39876,-2.49259 11.13338,-5.94811 17.32708,-4.84896 4.73674,1.13602 7.39519,6.23579 7.8382,10.76022 0.25635,6.11785 0.64131,12.78334 -2.557,18.26772 -2.33991,3.97096 -7.55997,4.30882 -11.56368,3.14172 -6.08866,-1.27921 -11.09173,-5.6392 -17.27511,-6.51327 -3.38806,0.17054 -4.71551,4.0161 -5.16315,6.86163 -1.15762,7.88985 1.1968,15.71491 2.60502,23.41551 1.6587,8.08555 3.69669,16.08949 6.01995,24.00476 0.77298,2.25539 -2.18916,2.71466 -3.67116,3.2796 -11.88333,3.31873 -23.81688,6.82739 -36.11708,8.191 -1.91952,0.14076 -3.84676,0.11363 -5.76778,0.02 2.46102,-5.52011 5.75631,-11.02086 5.54584,-17.28332 -0.0833,-3.93438 0.68079,-8.6111 -2.46114,-11.64374 -4.56749,-5.68 -12.09152,-7.83717 -19.13878,-7.77109 -7.58506,-0.0394 -16.12613,1.12707 -21.45733,7.10431 -4.41099,4.54694 -4.3581,11.51604 -2.6787,17.23227 1.14269,4.53846 3.6152,8.55827 5.38431,12.84399 -3.41996,1.02575 -6.80326,-0.38531 -10.22633,-0.66124 -11.68101,-1.97091 -23.212267,-4.83448 -34.578694,-8.15817 -2.201856,-0.0424 -0.771906,-1.85922 -0.659271,-3.18999 3.336511,-14.0864 7.612154,-28.10422 8.487694,-42.62703 0.104281,-3.51624 -0.264229,-7.69944 -3.167025,-10.08833 -3.292139,-1.70549 -6.841722,0.62098 -9.857784,1.90672 -5.094719,2.37925 -10.203425,4.7689 -15.855941,4.52693 -3.811755,-0.95838 -6.457226,-4.67664 -7.372248,-8.36323 -1.050353,-4.31962 -1.029175,-8.97308 -0.692129,-13.64338 0.465139,-4.56033 1.716506,-10.21112 6.50708,-12.04937 4.359354,-1.36475 8.754146,0.18335 12.731023,1.76703 4.104541,1.60167 7.936675,4.51919 12.484577,4.58799 3.712547,-0.5209 4.955095,-4.82344 5.166253,-8.03306 0.407873,-8.60767 -1.718428,-17.08363 -3.521541,-25.43713 -1.575897,-7.368656 -4.012151,-14.491633 -5.028581,-21.94845 -0.124277,-1.11396 1.672875,-0.931043 2.40335,-1.346598 9.578398,-2.162187 19.361937,-2.913851 29.108237,-3.286478 3.51757,0.0095 6.96432,-0.254697 10.25935,0.617564 1.60663,0.405064 2.93452,1.785481 2.32949,3.52678 -0.92139,5.56323 -3.79156,10.827946 -3.58267,16.555494 0.58834,4.703388 4.11069,8.762738 8.68408,10.016308 6.61728,2.0165 13.69249,1.82219 20.52048,1.31943 5.54612,-0.45406 11.89231,-2.38156 14.36303,-7.88031 1.59967,-2.571027 1.44986,-5.685554 0.49523,-8.452085 -1.02512,-4.291538 -2.99161,-8.543989 -2.69716,-13.027014 0.55734,-2.734934 4.0557,-2.519023 6.21072,-2.752708 0.93054,-0.05999 1.86512,-0.03031 2.79716,-0.05047 z" /></g></svg>
