<?xml version="1.0" encoding="UTF-8" standalone="no"?>
<!-- Created with Inkscape (http://www.inkscape.org/) -->

<svg
   version="1.1"
   id="svg1"
   width="800"
   height="800"
   viewBox="0 0 800 800"
   sodipodi:docname="prop-puzzle.svg"
   inkscape:version="1.4.1 (93de688d07, 2025-03-30)"
   xml:space="preserve"
   xmlns:inkscape="http://www.inkscape.org/namespaces/inkscape"
   xmlns:sodipodi="http://sodipodi.sourceforge.net/DTD/sodipodi-0.dtd"
   xmlns="http://www.w3.org/2000/svg"
   xmlns:svg="http://www.w3.org/2000/svg"><defs
     id="defs1" /><sodipodi:namedview
     id="namedview1"
     pagecolor="#ffffff"
     bordercolor="#cccccc"
     borderopacity="1"
     inkscape:showpageshadow="0"
     inkscape:pageopacity="1"
     inkscape:pagecheckerboard="0"
     inkscape:deskcolor="#d1d1d1"
     inkscape:zoom="0.8204153"
     inkscape:cx="356.52675"
     inkscape:cy="480.24458"
     inkscape:window-width="2238"
     inkscape:window-height="1358"
     inkscape:window-x="0"
     inkscape:window-y="20"
     inkscape:window-maximized="1"
     inkscape:current-layer="g1" /><g
     inkscape:groupmode="layer"
     inkscape:label="Image"
     id="g1"><g
       id="g2"
       transform="matrix(1.1324279,0,0,1.1324279,-83.133925,-65.303022)"><path
         id="path7"
         style="fill:#000000;stroke-width:1.01658"
         d="m 547.60156,92.421875 c -7.39728,16.727145 -14.5077,33.580505 -21.49218,50.484375 -1.76258,4.32353 -3.49753,8.65864 -5.17188,13.01758 8.61979,0.0185 17.46608,0.59397 25.518,3.93149 9.05182,3.80124 16.64823,10.50338 22.54536,18.26557 5.33372,7.32043 8.12053,16.3489 8.31354,25.37528 0.39916,12.0969 -3.53713,24.46434 -11.58363,33.60548 -9.66896,11.18119 -24.60376,17.80407 -39.42022,16.81827 -10.83839,-0.84636 -21.20248,-5.25788 -29.9092,-11.66663 -3.73444,-2.84344 -7.11794,-6.14811 -10.04783,-9.81579 -2.64999,5.27035 -4.9785,10.68594 -7.49758,16.02571 -8.07078,17.5847 -15.90846,35.27633 -23.52586,53.06218 21.41249,10.38199 43.4658,19.37751 64.84914,29.81438 4.4135,2.21729 8.83175,4.44898 13.04556,7.02679 3.52052,2.35088 6.40832,5.95751 7.07648,10.22477 0.96588,5.18183 -1.06585,10.65903 -4.81632,14.2878 -3.57017,3.80923 -8.10041,6.59895 -11.41457,10.66739 -4.29197,4.76523 -7.50275,10.7359 -8.06361,17.20209 -0.42949,4.00316 -0.22449,8.09889 0.73266,11.97596 1.53194,6.01329 5.73612,10.97598 10.59459,14.66082 2.45419,1.96249 5.26667,3.36958 8.22733,4.19357 6.10699,1.64413 12.78409,1.47678 18.68866,-0.86998 9.84643,-3.98323 16.89882,-13.73164 18.09751,-24.2236 0.97105,-6.90806 -0.0237,-13.95944 1.23452,-20.83694 0.91368,-4.12301 3.44399,-8.042 7.31452,-9.92914 3.61925,-1.89242 7.9562,-1.98103 11.82578,-0.85828 6.6802,1.48403 12.90027,4.42133 19.24093,6.90974 19.40777,8.0695 38.3816,17.19401 57.96838,24.80736 11.50497,-24.20405 22.4343,-48.67107 33.62166,-73.02436 17.46916,-38.33118 35.06515,-76.63058 52.2099,-115.0902 3.56521,-8.06179 7.0493,-16.15922 10.45555,-24.28973 -27.64874,-12.9328 -55.52366,-25.37859 -83.27832,-38.08981 -44.14118,-20.0605 -88.22652,-40.25446 -132.49707,-60.017614 -0.94727,2.11849 -1.89453,4.236979 -2.8418,6.355469 z" /><path
         id="path6"
         style="fill:#000000;stroke-width:1.01658"
         d="m 545.0332,85.802734 c -8.97846,19.374226 -17.62942,38.935326 -25.96018,58.610276 -1.83162,4.42872 -3.69991,8.81473 -5.09164,13.40974 -0.28692,1.10106 -0.49643,2.24016 -0.4306,3.38233 2.6593,0.40991 5.35924,-0.0247 8.02586,-0.13228 2.72511,-0.19087 5.46385,-0.10141 8.16177,0.33365 9.48553,1.19208 18.76471,4.69534 26.37682,10.5291 8.36273,6.62127 13.92957,16.57336 15.38208,27.12455 1.68139,11.46173 -1.2338,23.68532 -8.53195,32.76874 -5.80153,7.42089 -13.95654,13.26743 -23.25239,15.27526 -6.29767,1.38441 -12.85635,1.36639 -19.21454,0.41173 -6.7681,-1.10521 -13.17331,-4.05075 -18.5746,-8.25216 -5.68977,-4.31172 -10.27827,-9.85093 -15.68945,-14.47851 -0.45683,-0.54619 -0.89812,-0.68794 -1.25391,0.0332 -2.10237,2.58671 -3.24472,5.76575 -4.82479,8.66657 -8.57108,17.18742 -16.37441,34.73009 -24.14145,52.29755 -2.64104,6.06451 -5.18856,12.16969 -7.63532,18.31518 12.91978,6.67222 26.25492,12.49191 39.49071,18.50041 12.53673,5.654 25.13717,11.17874 37.45291,17.30522 3.30276,1.70449 6.73566,3.84666 8.34121,7.35335 1.56861,3.45354 0.87154,7.70735 -1.52038,10.61395 -2.74083,3.74251 -6.59587,6.43775 -9.71867,9.83041 -4.10874,4.16292 -7.91435,8.79724 -10.22148,14.22064 -1.3779,3.56164 -1.05703,7.44578 -1.16149,11.18539 0.0167,3.57532 0.0467,7.16298 0.49842,10.6551 0.52489,3.60781 1.77927,7.10113 4.03867,9.9483 2.91329,3.83069 6.50344,7.15956 10.53926,9.77996 4.77632,3.08966 10.4543,4.6799 16.1331,4.67039 4.614,0.0146 9.14994,-0.77823 13.55365,-2.14439 5.64028,-1.67875 10.24952,-5.71906 13.95221,-10.11566 2.20529,-2.52186 4.15755,-5.41386 5.44851,-8.55695 2.05288,-4.74505 2.82528,-9.93329 2.93345,-15.07316 0.21291,-5.65241 -0.0732,-11.44532 1.5931,-16.91884 1.04249,-2.86343 3.72525,-5.0268 6.75557,-5.40103 3.5725,-0.56008 7.05183,0.80635 10.37653,1.92689 5.44279,1.98373 10.74437,4.32772 16.10003,6.53151 19.89933,8.42311 39.51063,17.5324 59.62953,25.43265 7.355,-15.16001 14.22127,-30.54174 21.27556,-45.84315 25.1008,-54.83773 50.12619,-109.71054 75.09076,-164.61006 1.71383,-3.80531 3.42766,-7.61062 5.14149,-11.41593 -13.71253,-6.35915 -27.40713,-12.74013 -41.15181,-19.02626 -33.18571,-15.2508 -66.41208,-30.41211 -99.63702,-45.57744 -28.31565,-12.89986 -56.65488,-25.740068 -85.05882,-38.437319 -1.07357,2.290364 -2.14714,4.580729 -3.22071,6.871093 z" /><path
         id="path5"
         style="fill:#000000;stroke-width:1.01658"
         d="m 269.53711,226.08984 c -61.39004,0.11607 -122.77997,0.27785 -184.169922,0.42969 -0.210938,79.81576 -0.421875,159.63151 -0.632813,239.44727 25.769685,-0.47535 51.551555,-0.68561 77.298825,-1.95118 0.5782,-0.0373 1.2408,-0.0806 1.85157,-0.1289 -2.95688,-6.11736 -5.88455,-12.48421 -6.34193,-19.36337 -0.54668,-6.40381 -0.26684,-12.88354 0.80805,-19.21704 1.57708,-8.24818 5.69503,-15.93149 11.46312,-22.00878 6.77809,-7.48233 15.94152,-13.02021 25.99362,-14.584 7.05024,-1.22531 14.32673,-1.22705 21.37026,0.0379 7.59544,1.63551 14.58528,5.51799 20.47341,10.52418 6.23449,5.42138 10.79994,12.55406 13.8775,20.1739 1.74368,4.40295 2.68798,9.13695 2.5373,13.88096 -0.0125,4.78327 -0.33975,9.56364 -0.83758,14.31798 -0.70796,5.3144 -2.37246,10.48469 -4.76563,15.27344 -0.505,0.61302 0.38768,0.39192 0.79614,0.47958 5.47982,0.35591 11.05909,0.31102 16.58042,0.35729 19.57186,-0.026 39.13428,-0.71085 58.70157,-1.05172 0.0797,-24.26922 -0.21612,-48.5454 0.48711,-72.80791 0.33477,-6.43983 0.7335,-13.05184 3.22502,-19.08155 1.88496,-4.033 5.93082,-7.27988 10.49939,-7.35376 4.67074,-0.27602 8.99859,1.8622 13.10744,3.79942 3.68176,1.79951 7.48083,3.77084 11.67236,3.87308 5.4073,0.39026 10.93299,0.32876 16.38382,0.10157 2.20436,-0.1159 4.32314,-0.87327 6.17434,-2.05943 6.48427,-3.8011 11.58885,-10.08224 13.68576,-17.24981 1.70603,-5.54319 1.61347,-11.74336 -0.70715,-17.06209 -2.74614,-6.65828 -7.77059,-12.42613 -14.15114,-15.81186 -1.77328,-0.89847 -3.90289,-1.54161 -5.97517,-1.54262 -3.92665,-0.16562 -7.86038,-0.11053 -11.78907,-0.0732 -3.06502,0.10249 -6.12096,0.48698 -9.02049,1.70727 -5.64317,2.31836 -10.91644,5.76991 -17.02582,6.77381 -4.14325,0.74024 -8.69215,-0.67424 -11.41466,-3.95065 -2.86858,-3.30224 -3.88594,-7.72544 -4.55799,-11.93607 -1.04014,-7.61647 -1.32095,-15.31115 -1.57146,-22.98707 -0.27473,-9.87127 -0.39247,-19.74621 -0.6466,-29.61804 -0.21259,-10.42938 -0.42105,-20.85888 -0.67062,-31.28747 -17.5696,-0.0671 -35.13929,-0.0574 -52.70898,-0.0508 z" /><path
         id="path4"
         style="fill:#000000;stroke-width:1.01658"
         d="m 571.04297,480.82812 c -21.40073,0.34752 -42.82882,0.59314 -64.17578,2.16602 2.12248,4.45366 3.86585,9.10886 4.83388,13.95512 2.35391,10.50198 2.25845,21.7459 -1.44765,31.92951 -3.08429,7.871 -8.87717,14.35722 -15.31976,19.6839 -5.91131,4.83617 -12.93014,8.72178 -20.61729,9.60439 -5.5502,0.63878 -11.15374,0.3914 -16.7241,0.22659 -4.99857,-0.31404 -9.95312,-1.66242 -14.30911,-4.16149 -9.50814,-4.9587 -17.7584,-12.67272 -22.47669,-22.38097 -4.78356,-9.7964 -5.74145,-21.16412 -3.75659,-31.80538 0.99439,-5.50503 2.79859,-10.83031 5.00285,-15.96183 -18.63824,-0.59169 -37.28797,-0.25467 -55.93117,-0.19223 -6.69742,0.0446 -13.39484,0.0891 -20.09226,0.13364 -0.19401,26.12835 -0.006,52.26597 -0.89484,78.38367 -0.28586,4.31787 -0.3503,8.80041 -2.09149,12.83703 -2.38073,4.85937 -7.79996,8.28911 -13.2755,7.6731 -5.58271,-0.3547 -10.48633,-3.29391 -15.55854,-5.34107 -6.64741,-2.66002 -13.93919,-3.956 -21.08198,-3.07617 -4.98076,0.56679 -9.64087,3.07057 -13.42862,6.32127 -6.02841,5.04802 -10.02685,12.63935 -10.15728,20.562 -0.16594,5.98381 1.80288,11.95341 5.36345,16.75123 3.49841,4.80927 8.333,8.76101 13.96073,10.77957 6.65699,2.25823 13.94877,1.47511 20.539,-0.61999 4.89254,-1.48569 9.44714,-3.83974 14.15202,-5.80061 3.6651,-1.47694 7.87508,-2.39639 11.70987,-1.00564 4.46548,1.62249 7.72649,5.58857 9.45515,9.90622 1.55953,3.87797 1.74989,8.10102 1.91829,12.22476 0.63127,13.38429 0.58207,26.78736 0.78744,40.182 0.14735,12.84877 0.29556,25.69837 0.67066,38.54294 12.47563,0.58124 24.96838,0.53182 37.45385,0.67081 36.0482,0.23788 72.09742,0.15625 108.14615,0.19761 29.00703,0.004 58.01406,0.008 87.02109,0.0124 0,-80.82487 0,-161.64974 0,-242.47461 -3.22526,0.0254 -6.45052,0.0508 -9.67578,0.0762 z" /><path
         id="path3"
         style="fill:#000000;stroke-width:1.01658"
         d="m 204.11133,407.61523 c -5.79162,0.57362 -11.19873,3.19801 -15.72134,6.84138 -3.71654,3.01783 -6.85014,6.82271 -8.75327,11.2387 -1.02235,2.33756 -1.76884,4.96842 -2.08203,7.56446 -0.43682,3.72623 -0.17271,7.70696 0.8088,11.39803 1.93112,7.44144 6.36679,13.94782 8.28945,21.38895 1.15523,4.52706 -0.0354,9.83779 -3.72113,12.89323 -3.5202,3.14496 -8.30984,4.16815 -12.84414,4.83995 -8.19459,1.15709 -16.48602,1.28366 -24.74472,1.56884 -16.51209,0.44757 -33.03103,0.54411 -49.545681,0.8639 -3.69284,0.0554 -7.385679,0.11082 -11.078519,0.16624 0,78.94921 0,157.89843 0,236.84765 80.83529,0 161.67057,0 242.50586,0 -0.13449,-25.71371 0.2329,-51.44405 -0.94122,-77.13962 -0.0482,-0.76173 -0.10423,-1.52272 -0.17987,-2.28225 -4.83701,2.25323 -9.84653,4.21198 -15.09498,5.25814 -8.59145,2.05 -17.79328,2.64205 -26.32026,-0.0236 -14.46609,-4.29539 -26.87162,-15.35171 -32.42229,-29.43014 -3.04161,-8.06758 -3.50416,-16.91302 -2.44471,-25.40891 0.85271,-6.32595 3.11234,-12.45774 6.62348,-17.79058 6.1156,-9.59906 15.50546,-17.22915 26.41264,-20.6502 6.02583,-1.6722 12.33845,-1.13433 18.51446,-1.25098 5.9057,0.007 11.96455,0.25531 17.52043,2.46467 2.08127,0.77126 4.10311,1.68885 6.1038,2.64804 0.69611,-15.12147 0.75808,-30.26372 0.70571,-45.39833 -0.0928,-10.28681 -0.41166,-20.57234 -1.02016,-30.8419 -24.60306,0.14748 -49.20785,0.58845 -73.811,0.24337 -5.61722,-0.1496 -11.39551,-0.26482 -16.71258,-2.28917 -5.7856,-2.35358 -9.84512,-8.73609 -9.01744,-15.00498 0.86817,-5.37223 3.99522,-9.95996 5.83008,-14.98047 2.58685,-6.73694 3.53002,-14.29033 2.17233,-21.4513 -0.74738,-3.63343 -2.35944,-7.09464 -4.52926,-10.02014 -3.10872,-4.15694 -7.34993,-7.40328 -11.99072,-9.68286 -3.87715,-1.82379 -8.20302,-2.97233 -12.51172,-2.58008 z" /></g></g></svg>
