<?xml version="1.0" encoding="UTF-8" standalone="no"?>
<!-- Created with Inkscape (http://www.inkscape.org/) -->

<svg
   version="1.1"
   id="svg1"
   width="800"
   height="800"
   viewBox="0 0 800 800"
   sodipodi:docname="prop-verified.svg"
   inkscape:version="1.3.2 (091e20ef0f, 2023-11-25, custom)"
   xmlns:inkscape="http://www.inkscape.org/namespaces/inkscape"
   xmlns:sodipodi="http://sodipodi.sourceforge.net/DTD/sodipodi-0.dtd"
   xmlns="http://www.w3.org/2000/svg"
   xmlns:svg="http://www.w3.org/2000/svg">
  <defs
     id="defs1" />
  <sodipodi:namedview
     id="namedview1"
     pagecolor="#ffffff"
     bordercolor="#cccccc"
     borderopacity="1"
     inkscape:showpageshadow="0"
     inkscape:pageopacity="1"
     inkscape:pagecheckerboard="0"
     inkscape:deskcolor="#d1d1d1"
     inkscape:zoom="1.0390638"
     inkscape:cx="614.97666"
     inkscape:cy="393.62356"
     inkscape:window-width="2238"
     inkscape:window-height="1358"
     inkscape:window-x="0"
     inkscape:window-y="20"
     inkscape:window-maximized="1"
     inkscape:current-layer="g1" />
  <g
     inkscape:groupmode="layer"
     inkscape:label="Image"
     id="g1">
    <path
       style="fill:#000000"
       d="M 376,775.42294 C 230.26894,765.52287 103.2634,673.0887 50.304664,538.38307 32.025033,491.88707 24.107471,449.37767 24.232203,398.4 24.483065,295.87374 64.945114,201.00179 138.90985,129.51367 269.54831,3.2494579 473.42327,-11.476035 619.73333,94.784723 734.01778,177.7862 792.17431,314.76552 772.18671,453.86667 750.53821,604.52661 639.57265,727.4763 491.50965,764.85647 456.32575,773.73904 411.53118,777.83671 376,775.42294 Z m 66.13333,-88.97348 c 62.69941,-10.10817 115.61386,-36.41186 159.83691,-79.45468 45.70889,-44.48899 74.09493,-100.13172 84.64795,-165.92811 2.68622,-16.74815 2.68622,-65.38519 0,-82.13334 -10.61214,-66.165 -39.11886,-121.88478 -85.15366,-166.44294 -44.6145,-43.18342 -96.76022,-68.9018 -160.39786,-79.10858 -16.74815,-2.68622 -65.38519,-2.68622 -82.13334,0 -66.00013,10.58569 -121.39476,38.84774 -165.91306,84.64795 -43.56943,44.82402 -69.32511,96.85548 -79.6476,160.90357 -2.70191,16.76455 -2.70191,65.36879 0,82.13334 7.48769,46.45894 21.87303,83.53855 46.74822,120.498 48.60473,72.21674 124.99087,117.54173 213.74578,126.82963 10.27627,1.07538 57.95883,-0.28304 68.26666,-1.94484 z M 340.8,548.86932 C 337.99804,547.60215 227.50426,437.58246 215.68435,424.2905 211.86898,419.99996 211.2,418.55191 211.2,414.58387 c 0,-6.14565 2.48957,-9.43416 20.46902,-27.03786 10.16979,-9.95725 15.41946,-14.33396 18.00915,-15.01443 8.18184,-2.14989 8.06677,-2.24285 53.71848,43.39842 l 42.74406,42.73429 85.32965,-85.43904 c 46.9313,-46.99148 87.20166,-86.83094 89.48968,-88.53215 4.70328,-3.49701 10.58615,-4.09679 15.3596,-1.56596 5.31338,2.8171 34.26748,32.87624 35.36975,36.71965 2.33819,8.15277 6.9463,3.10731 -108.61991,118.9289 -63.5503,63.69073 -109.823,109.25926 -111.83522,110.13333 -4.21799,1.83222 -6.31269,1.82425 -10.43426,-0.0397 z"
       id="path1" />
  </g>
</svg>
