<?xml version="1.0" encoding="UTF-8" standalone="no"?>
<!-- Created with Inkscape (http://www.inkscape.org/) -->

<svg
   version="1.1"
   id="svg1"
   width="800"
   height="800"
   viewBox="0 0 800 800"
   sodipodi:docname="prop-adoption.svg"
   inkscape:version="1.4.1 (93de688d07, 2025-03-30)"
   xmlns:inkscape="http://www.inkscape.org/namespaces/inkscape"
   xmlns:sodipodi="http://sodipodi.sourceforge.net/DTD/sodipodi-0.dtd"
   xmlns="http://www.w3.org/2000/svg"
   xmlns:svg="http://www.w3.org/2000/svg">
  <defs
     id="defs1" />
  <sodipodi:namedview
     id="namedview1"
     pagecolor="#ffffff"
     bordercolor="#cccccc"
     borderopacity="1"
     inkscape:showpageshadow="0"
     inkscape:pageopacity="1"
     inkscape:pagecheckerboard="0"
     inkscape:deskcolor="#d1d1d1"
     inkscape:zoom="1.2767803"
     inkscape:cx="843.13647"
     inkscape:cy="590.54798"
     inkscape:window-width="2238"
     inkscape:window-height="1358"
     inkscape:window-x="0"
     inkscape:window-y="20"
     inkscape:window-maximized="1"
     inkscape:current-layer="g1" />
  <g
     inkscape:groupmode="layer"
     inkscape:label="Image"
     id="g1">
    <path
       id="path1"
       style="fill:#020202;stroke:none;stroke-width:1.5251"
       d="m 196.5,44.476562 c -15.2902,0.641639 -30.63187,6.085825 -42.4605,16.032779 -13.3952,11.182854 -21.3518,28.860661 -20.45664,46.378519 0.46371,10.89025 4.30807,21.58353 10.60107,30.50382 5.85719,8.65914 12.77756,16.74205 16.91824,26.4386 2.56672,5.9449 3.62889,12.69202 2.10801,19.05349 -1.7848,7.68606 -6.84145,14.37773 -13.2545,18.86006 -4.72434,3.27439 -10.13631,5.43265 -15.63535,7.01246 -8.6537,2.40569 -17.64209,3.36921 -26.59354,3.75786 -18.774797,0.75227 -37.502053,-1.2958 -56.259823,-1.67757 -5.830765,-0.11042 -11.719745,-0.46088 -17.517748,-0.194 -5.382379,0.29371 -11.016565,1.37781 -15.334486,4.81554 -3.380347,2.60147 -5.594331,6.46021 -6.691087,10.539 -1.66863,6.065 -1.335351,12.36969 -1.175521,18.60131 0.225611,6.03458 0.44913,12.08009 0.08856,18.11418 -0.583512,17.28861 -2.1938058,34.59244 -1.0945015,51.89481 0.5798555,8.2176 1.7385545,16.50985 4.6500865,24.29363 2.269758,6.07923 5.728071,11.96523 10.998387,15.90421 4.757327,3.54628 10.91012,4.63828 16.729582,4.26555 6.627013,-0.39205 12.961914,-2.83628 18.661,-6.1406 11.076977,-6.23542 20.635428,-15.00387 32.353899,-20.11999 11.911458,-5.22467 25.818368,-6.20589 38.153918,-1.85905 10.9294,3.86129 20.25276,11.46882 27.22109,20.63124 9.50296,12.52914 15.2729,27.78245 16.82051,43.40762 0.86619,8.16102 0.40478,16.52743 -1.99747,24.40402 -2.94537,9.65667 -7.9751,18.66545 -14.5578,26.31298 -9.19698,10.66566 -21.77361,18.62859 -35.65388,21.41942 -11.22634,2.27284 -23.203562,0.69303 -33.416365,-4.51034 -13.016828,-6.3185 -24.843559,-14.96787 -38.385203,-20.2211 -5.403632,-2.03348 -11.212334,-3.56491 -17.026973,-2.89696 -4.490797,0.56937 -8.738069,2.74095 -11.823018,6.05509 -3.987798,4.09249 -6.468326,9.34423 -8.403545,14.691 -2.572453,7.49381 -3.34256,15.44141 -3.423856,23.30413 -0.07127,11.64892 0.8991,23.32267 -0.172051,34.95111 -0.8698015,13.07632 -2.2314087,26.15976 -1.4763584,39.28187 0.4264567,6.6003 1.2092304,13.42871 4.0709314,19.50357 1.525038,3.37628 3.993444,6.32713 7.148276,8.2905 1.761946,1.12683 3.88229,2.01502 5.984708,2.52339 7.607402,2.04305 15.542986,1.13094 23.345371,1.10969 11.946619,-0.18862 23.895085,-0.016 35.84251,-0.079 14.574045,0.0148 29.151293,-0.0712 43.722563,0.22044 7.09485,0.39681 14.36525,1.81775 20.4252,5.71302 6.39174,4.04646 11.52409,10.31104 13.62077,17.63441 1.64246,6.13265 0.6228,12.70637 -1.83321,18.47758 -4.42737,10.82425 -12.33035,19.72289 -18.26297,29.63192 -3.21059,5.28788 -5.81067,10.98564 -7.3088,16.99373 -2.41285,9.35137 -2.5064,19.3026 -0.0709,28.71792 2.9182,11.21904 9.56051,21.50962 18.36189,29.1313 7.6416,6.68959 16.9884,11.30489 26.7679,14.01744 7.53477,2.04128 15.34064,2.99655 23.14086,2.51835 9.8971,-0.61428 19.60588,-3.2746 28.6036,-7.53779 10.74473,-5.11787 20.17835,-13.29765 26.04874,-23.72003 4.38568,-7.6431 6.91173,-16.48338 7.36315,-25.25761 0.63149,-11.61778 -2.38124,-23.34206 -7.99493,-33.52711 -5.06627,-8.99358 -11.2374,-17.35114 -15.70898,-26.6791 -2.78662,-5.78602 -4.93358,-12.10716 -4.6373,-18.61115 0.14698,-5.6164 2.67736,-10.94265 6.30304,-15.15069 4.9662,-5.75857 11.80781,-9.93653 19.29244,-11.41624 6.68175,-1.43627 13.56242,-1.16252 20.35368,-1.17017 23.64881,0.0948 47.29967,-0.13586 70.94695,0.20628 7.14545,0.2108 14.50607,0.64635 21.40282,-1.61106 5.70536,-1.95487 10.36607,-6.74994 12.04751,-12.55385 2.07008,-6.28725 1.9429,-12.92436 1.75621,-19.46026 -0.28766,-7.49596 -0.48424,-14.99507 -0.69925,-22.49319 -0.66237,-17.50693 -2.20742,-35.04607 -0.97702,-52.56354 0.83478,-11.29625 2.79371,-22.7251 7.79159,-32.98736 2.16482,-4.40201 4.86123,-8.63074 8.46712,-11.99448 3.47972,-3.14753 8.09775,-4.95249 12.78454,-5.04867 6.69686,-0.15919 13.1055,2.32364 19.02935,5.21644 11.35944,5.66613 21.33472,13.91952 33.25745,18.48826 10.33724,4.02145 21.60294,5.95799 32.6728,4.5471 10.76749,-1.34157 21.16158,-6.28933 29.06266,-13.87693 5.71242,-5.50156 10.28181,-12.19321 13.45509,-19.44984 3.01028,-6.85653 4.77837,-14.31032 5.32796,-21.82362 0.55138,-7.34036 -0.0513,-14.87952 -1.79832,-22.01092 -2.3548,-9.4823 -6.68472,-18.64276 -13.2699,-25.96707 -6.05472,-6.76168 -13.93267,-11.93907 -22.63681,-14.48269 -8.25997,-2.52813 -17.09445,-2.89495 -25.51177,-1.24635 -6.35589,1.20524 -12.32453,3.82649 -18.11592,6.62938 -11.03336,5.40838 -21.47957,12.19808 -33.27415,15.90579 -5.01897,1.59646 -10.40551,2.58346 -15.64347,1.53055 -6.19918,-1.10697 -11.8873,-4.43729 -16.15949,-9.02728 -6.39515,-6.68819 -10.27074,-15.39065 -12.5556,-24.26417 -3.00609,-11.74547 -3.44015,-23.96063 -3.27992,-36.02922 0.24368,-13.62929 1.31398,-27.22749 1.64288,-40.8543 0.0928,-5.57222 0.35993,-11.13999 0.45003,-16.71184 0.0155,-5.00034 -0.31862,-10.10648 -2.0177,-14.84892 -1.63442,-4.27244 -4.9114,-7.95959 -9.13064,-9.8007 -3.29725,-1.41374 -7.02746,-2.00031 -10.64063,-2.21093 -5.92903,-0.29382 -11.94207,0.25542 -17.90073,0.40159 -8.45301,0.25331 -16.90864,0.44838 -25.35332,0.91954 -15.59643,0.75067 -31.34626,1.59207 -46.84272,-0.82898 -9.9477,-1.58163 -19.88415,-4.6776 -28.15152,-10.58488 -5.03877,-3.59126 -9.43281,-8.51371 -11.17668,-14.55838 -1.79586,-6.2428 -0.7582,-12.93502 1.45138,-18.93205 3.84494,-10.50664 10.35622,-19.7245 16.05372,-29.24807 3.02943,-5.00261 5.84979,-10.18343 7.76173,-15.65602 4.41608,-12.6495 3.60042,-26.87183 -1.8348,-39.078675 C 257.14319,71.853276 249.0922,62.47626 239.16042,55.864648 233.83642,52.293294 227.86529,49.503663 221.67887,47.666183 213.53526,45.204534 205.00833,44.240886 196.5,44.476562 Z m 402.14062,3.19336 c -10.3173,0.376403 -20.54011,2.938625 -29.91959,7.047886 -7.60989,3.349524 -14.55429,8.29345 -20.19369,14.377895 -10.22557,11.079472 -15.84019,26.122584 -15.16765,41.212887 0.17046,4.04587 0.85198,8.12215 1.9107,11.99308 1.82875,6.60487 4.99209,12.85909 8.96784,18.50705 5.79739,8.58544 12.6416,16.60588 16.73761,26.21849 2.37173,5.58331 3.71482,11.80761 2.58944,17.85269 -1.3922,8.10609 -6.3851,15.3883 -13.13811,20.00645 -7.43773,5.27145 -16.41679,7.7613 -25.29979,9.26537 -11.68593,1.90073 -23.5812,1.91826 -35.38583,1.54574 -14.91722,-0.52928 -29.80381,-1.8199 -44.73538,-1.955 -7.00034,-0.16666 -14.21668,-0.52387 -20.95248,1.74369 -4.99035,1.71751 -9.25313,5.57015 -11.20898,10.50385 -0.91277,2.12578 -1.53407,4.53707 -1.88573,6.83031 -0.93722,6.37715 -0.39413,12.83661 -0.40167,19.25197 0.10038,10.66074 -0.33988,21.31671 -0.58678,31.97283 -0.31514,13.16338 -0.45941,26.37544 0.84262,39.48243 0.47399,4.50999 2.00924,8.93221 4.68884,12.61184 2.54294,3.58783 6.35575,6.51844 10.81562,7.0771 5.35522,0.76232 10.68595,-0.8823 15.61989,-2.81804 8.19999,-3.39642 15.79193,-8.04368 23.49736,-12.40377 5.23336,-2.94779 10.55216,-5.82656 16.22139,-7.85405 8.94604,-2.99043 18.58884,-3.55603 27.91114,-2.38359 12.86021,1.67347 25.05064,7.30818 35.08415,15.45738 14.45141,11.69272 24.84163,28.20609 29.53125,46.16182 3.17699,12.186 3.65598,25.13317 0.8836,37.44545 -3.67767,16.75966 -12.40272,32.31813 -24.48436,44.46738 -10.09125,10.10759 -22.885,17.86679 -36.99304,20.66098 -11.05534,2.18987 -22.85049,1.40421 -33.22591,-3.16473 -9.06054,-4.0037 -17.5663,-9.12745 -26.47283,-13.44999 -6.83868,-3.38457 -14.03231,-6.4224 -21.66245,-7.49131 -4.06163,-0.47387 -8.51938,0.0849 -11.92702,2.33568 -4.22136,2.78983 -6.66201,7.4979 -8.13324,12.20638 -2.97186,9.44391 -2.48287,19.41576 -2.13561,29.18493 0.39453,8.97371 0.91365,17.98104 0.11176,26.94831 -0.80789,12.23564 -2.00171,24.54772 -0.8729,36.78315 0.54514,5.74658 1.66841,11.59714 4.51011,16.71358 2.79878,5.21464 8.23194,8.72464 14.01631,9.67267 7.58258,1.54341 15.37596,0.64162 23.10084,0.55886 9.11012,-0.22322 18.19803,-0.6949 27.27721,-1.3791 14.07649,-0.91138 28.24477,-1.81375 42.32829,-0.49647 8.98612,0.88229 18.06028,2.6263 26.17044,6.74766 6.84979,3.54515 12.83499,9.25215 15.63745,16.54244 1.9542,4.99309 2.30585,10.59694 0.90759,15.77956 -2.00043,8.17271 -6.67673,15.32641 -11.42822,22.14447 -5.47916,7.81457 -11.56802,15.40598 -15.03881,24.39617 -3.16549,8.221 -4.24439,17.18566 -3.13677,25.90832 2.24171,17.40043 12.84458,33.25646 27.5,42.80462 8.90951,5.89032 19.33529,9.264 29.92312,10.37429 11.6636,1.28225 23.62959,0.10024 34.64341,-3.94277 10.97743,-4.00051 21.06331,-10.89308 28.31732,-20.16593 7.12693,-9.05214 11.58652,-20.32045 12.29734,-31.90942 0.622,-9.40217 -1.28101,-18.98204 -5.33451,-27.48761 -3.32132,-7.05037 -8.33197,-13.30476 -12.86035,-19.69661 -4.45636,-6.36589 -8.86773,-12.99636 -10.97625,-20.56171 -1.64076,-5.97549 -1.57138,-12.53231 0.88557,-18.28026 3.07176,-7.41587 9.24291,-13.20955 16.2638,-16.90151 5.66205,-2.94968 12.03455,-4.08697 18.32131,-4.76488 16.07081,-1.86693 32.28174,-1.00624 48.39239,-0.2091 11.4057,0.56963 22.818,1.0371 34.23811,1.16894 6.38932,0.0929 12.87614,0.40712 19.08992,-1.32453 3.78244,-1.06314 7.32359,-3.15397 9.78683,-6.25236 2.69002,-3.22674 4.14283,-7.3084 4.70589,-11.43346 1.13876,-7.10574 0.31111,-14.38431 0.18561,-21.57083 -0.347,-11.42824 0.59742,-22.83879 1.06075,-34.25 0.65912,-14.12492 1.05239,-28.35278 -1.23514,-42.34251 -1.35727,-7.96762 -3.78501,-15.86464 -8.49613,-22.4985 -3.19797,-4.44478 -7.75773,-8.14796 -13.14447,-9.37428 -4.91435,-1.27449 -10.27759,-1.06658 -15.07819,0.0364 -3.4099,0.78408 -6.50944,1.97488 -9.66305,3.48419 -11.00659,5.29028 -20.37305,13.37399 -31.30793,18.78938 -11.21868,5.70728 -24.39832,7.65171 -36.72959,4.96677 -11.16876,-2.38918 -21.18329,-8.8348 -28.8931,-17.14817 -8.14542,-8.77357 -13.9455,-19.58051 -17.48563,-30.97867 -2.87636,-9.38584 -4.2227,-19.27202 -3.71681,-29.08535 0.37717,-6.46695 2.08295,-12.79877 4.61549,-18.74436 2.76126,-6.55057 6.24533,-12.83195 10.61031,-18.45566 9.27413,-11.79856 22.77897,-20.41038 37.62657,-23.02359 13.15044,-2.30446 27.09059,0.33547 38.49015,7.28684 10.25319,5.98921 19.54302,13.54058 30.30515,18.64105 4.38469,2.0772 9.30581,3.79926 14.2229,3.99014 3.88077,0.22995 7.80083,-0.70377 11.15951,-2.66134 6.58554,-3.75715 11.06863,-10.2578 13.80329,-17.20162 2.54846,-6.48095 3.87943,-13.36056 4.82018,-20.207 2.14672,-16.56698 1.11213,-33.32895 0.27338,-49.96918 -0.64712,-12.11324 -1.32788,-24.2293 -1.52614,-36.35969 -0.31713,-5.2975 -1.52631,-10.79516 -4.58905,-15.16944 -2.90869,-4.23326 -7.86022,-6.5317 -12.76758,-7.52344 -11.88314,-2.9214 -24.18089,-2.88756 -36.33984,-2.52929 -16.59166,0.62111 -33.1405,2.59441 -49.77094,2.422 -9.53555,-0.1885 -19.22632,-1.31725 -28.10517,-4.98104 -7.32386,-3.03991 -13.9885,-8.16892 -17.89101,-15.16748 -2.59751,-4.56244 -3.82433,-9.92215 -3.22195,-15.15563 0.67199,-6.56861 3.56716,-12.66095 6.86428,-18.29318 5.93387,-10.01002 13.77889,-18.88951 18.43274,-29.64382 5.22093,-12.13699 6.3055,-26.05226 2.51279,-38.748519 -2.77967,-9.27832 -8.08101,-17.8471 -14.99395,-24.669436 -8.28084,-8.283692 -18.90227,-13.919837 -30.18515,-16.984494 -6.52259,-1.755945 -13.24504,-2.611702 -20.01079,-2.518639 z" />
  </g>
</svg>
