<?xml version="1.0" encoding="UTF-8" standalone="no"?>
<!-- Uploaded to: SVG Repo, www.svgrepo.com, Generator: SVG Repo Mixer Tools -->

<svg
   version="1.1"
   id="Capa_1"
   width="270"
   height="200"
   viewBox="0 0 110.57783 81.9095"
   xml:space="preserve"
   sodipodi:docname="prop-free.svg"
   inkscape:version="1.3.2 (091e20ef0f, 2023-11-25, custom)"
   xmlns:inkscape="http://www.inkscape.org/namespaces/inkscape"
   xmlns:sodipodi="http://sodipodi.sourceforge.net/DTD/sodipodi-0.dtd"
   xmlns="http://www.w3.org/2000/svg"
   xmlns:svg="http://www.w3.org/2000/svg"><defs
   id="defs434" /><sodipodi:namedview
   id="namedview432"
   pagecolor="#ffffff"
   bordercolor="#cccccc"
   borderopacity="1"
   inkscape:showpageshadow="0"
   inkscape:pageopacity="1"
   inkscape:pagecheckerboard="0"
   inkscape:deskcolor="#d1d1d1"
   showgrid="false"
   inkscape:zoom="3.3550433"
   inkscape:cx="201.48771"
   inkscape:cy="116.54097"
   inkscape:window-width="2238"
   inkscape:window-height="1358"
   inkscape:window-x="0"
   inkscape:window-y="20"
   inkscape:window-maximized="1"
   inkscape:current-layer="g429" />
<g
   id="g429"
   transform="matrix(0.24022417,0,0,0.24022417,1.5078067,11.944017)">
	<path
   id="path427"
   style="fill:#030303;stroke-width:1.32759"
   d="m 82.942314,-46.102189 c -4.155275,-0.05172 -7.910564,2.372488 -10.596509,5.378177 -5.922253,6.037013 -11.955909,11.962434 -17.922113,17.956629 -16.62549,16.6144959 -33.263402,33.218639 -49.79459,49.926308 -3.96736611,4.704999 -3.2212913,12.413317 1.3181793,16.479334 2.5980397,2.521188 6.3791297,3.387452 9.9062297,3.156732 8.086267,0.08104 16.173177,0.004 24.259725,0.03994 10.189448,0 20.378895,0 30.568343,0 0.0099,28.701619 -0.01891,57.404659 0.08463,86.105329 0.423434,4.16101 3.215728,7.6432 6.422779,10.12593 27.093662,23.75439 54.187302,47.50877 81.280962,71.26317 1.68089,3.7434 5.13768,6.16943 7.83974,9.11663 20.58576,20.58174 41.14496,41.18885 61.81137,61.68911 4.75644,3.91928 12.40916,3.06253 16.50582,-1.41691 2.23404,-2.35892 3.05611,-5.67361 3.11846,-8.84445 0.0229,-5.58145 -0.0112,-11.16465 0.003,-16.74686 5.6e-4,-34.29471 9.7e-4,-68.58941 0.002,-102.88411 64.79511,-53.15893 129.59027,-106.318104 194.37214,-159.4929794 4.61881,-4.2662897 4.73897,-12.2167616 0.55798,-16.8209566 -2.65808,-3.108859 -6.95653,-4.260468 -10.92168,-4.044848 -64.40441,0.01303 -128.80928,-0.0025 -193.21338,0.0564 -3.80573,0.258358 -7.00705,2.698654 -9.56154,5.349455 -19.87335,18.3430066 -39.7465,36.686013 -59.61966,55.029022 -26.20529,-26.1943519 -52.38721,-52.410249 -78.664903,-78.530753 -2.177215,-1.771734 -4.936062,-2.867543 -7.756983,-2.890299 z M 70.664655,22.507153 c -9.038845,0 -18.077689,0 -27.116534,0 9.038845,-9.041351 18.077689,-18.0827027 27.116534,-27.1240543 0,9.0413516 0,18.0827033 0,27.1240543 z m 77.855665,26.415114 c -17.84514,17.841374 -35.69028,35.682749 -53.535408,53.524133 0,-35.687773 1e-6,-71.375538 0,-107.0633013 C 112.83004,13.229487 130.67518,31.075877 148.52032,48.922267 Z M 399.59646,-0.78636193 C 322.16579,62.721234 244.73512,126.22883 167.30443,189.73643 145.21067,170.35995 123.11689,150.98348 101.02314,131.60701 148.79925,87.475883 196.57537,43.34476 244.35149,-0.78636193 c 51.74834,0 103.49665,0 155.24497,0 z M 223.41234,246.13769 c -12.06453,-12.06768 -24.12907,-24.13534 -36.19361,-36.20302 12.06454,-10.66734 24.12908,-21.33467 36.19361,-32.00202 0,22.73501 0,45.47003 0,68.20504 z" />
</g>
</svg>
