<?xml version="1.0" encoding="UTF-8" standalone="no"?>
<!-- Uploaded to: SVG Repo, www.svgrepo.com, Generator: SVG Repo Mixer Tools -->

<svg
   version="1.1"
   id="Capa_1"
   width="800.00018"
   height="799.99915"
   viewBox="0 0 327.63809 327.63765"
   xml:space="preserve"
   sodipodi:docname="prop-free.svg"
   inkscape:version="1.4.1 (93de688d07, 2025-03-30)"
   xmlns:inkscape="http://www.inkscape.org/namespaces/inkscape"
   xmlns:sodipodi="http://sodipodi.sourceforge.net/DTD/sodipodi-0.dtd"
   xmlns="http://www.w3.org/2000/svg"
   xmlns:svg="http://www.w3.org/2000/svg"><defs
   id="defs434" /><sodipodi:namedview
   id="namedview432"
   pagecolor="#ffffff"
   bordercolor="#cccccc"
   borderopacity="1"
   inkscape:showpageshadow="0"
   inkscape:pageopacity="1"
   inkscape:pagecheckerboard="0"
   inkscape:deskcolor="#d1d1d1"
   showgrid="false"
   inkscape:zoom="0.65850534"
   inkscape:cx="295.36587"
   inkscape:cy="151.85906"
   inkscape:window-width="2238"
   inkscape:window-height="1358"
   inkscape:window-x="0"
   inkscape:window-y="20"
   inkscape:window-maximized="1"
   inkscape:current-layer="g429" />
<g
   id="g429"
   transform="matrix(0.24022417,0,0,0.24022417,-0.49278893,11.075055)">
	<path
   id="path427"
   style="fill:#030303;stroke-width:4.39431"
   d="m 255.50714,34.515482 c -12.63321,-0.186373 -24.05034,8.549486 -32.21637,19.380782 -18.00532,21.75497 -36.34933,43.10781 -54.48826,64.708456 -50.54617,59.87195 -101.130084,119.70659 -151.389552,179.9143 -12.0619079,16.95492 -9.7936319,44.7326 4.007635,59.38487 7.898772,9.08535 19.394347,12.20702 30.117722,11.37561 24.584526,0.292 49.171005,0.0143 73.756385,0.1439 30.97878,0 61.95757,0 92.93635,0 0.03,103.42909 -0.0574,206.86328 0.2573,310.28894 1.28736,14.99459 9.77671,27.543 19.52705,36.48976 82.37234,85.60125 164.74463,171.20245 247.11699,256.8037 5.11039,13.48979 15.62,22.23219 23.83503,32.8527 62.58649,74.1683 125.09226,148.428 187.92395,222.3026 14.4609,14.1236 37.72733,11.0361 50.18231,-5.1058 6.79214,-8.5006 9.29146,-20.4455 9.48101,-31.8719 0.0695,-20.1133 -0.0339,-40.2329 0.009,-60.349 0.002,-123.5842 0.003,-247.16852 0.006,-370.75283 196.99554,-191.56337 393.99101,-383.12759 590.94611,-574.74842 14.0425,-15.374 14.4078,-44.02429 1.6964,-60.61595 -8.0813,-11.20308 -21.1498,-15.35301 -33.2049,-14.57601 -195.8076,0.047 -391.61647,-0.008 -587.42304,0.20326 -11.57048,0.93101 -21.3034,9.72485 -29.06977,19.27728 -60.42184,66.1008 -120.84181,132.2016 -181.26183,198.30243 C 438.58251,233.53026 358.98209,139.05872 279.09055,44.930967 272.47121,38.546339 264.08353,34.597496 255.50714,34.515482 Z M 218.1796,281.75591 c -27.48064,0 -54.96127,0 -82.44189,0 27.48062,-32.58139 54.96125,-65.16277 82.44189,-97.74416 0,32.58139 0,65.16277 0,97.74416 z m 236.70313,95.18942 c -54.25424,64.29314 -108.5085,128.58627 -162.76271,192.87941 0,-128.60435 10e-6,-257.20868 0,-385.81299 54.25421,64.31119 108.50847,128.62238 162.76271,192.93358 z M 1218.2249,197.81547 C 982.81375,426.67125 747.4028,655.52706 511.99171,884.38286 444.82044,814.55783 377.64917,744.73283 310.47792,674.90785 455.73076,515.87703 600.98361,356.84625 746.23644,197.81547 c 157.32949,0 314.65896,0 471.98846,0 z M 682.57552,1087.6302 c -36.67956,-43.4869 -73.35917,-86.9741 -110.03874,-130.461 36.67957,-38.4408 73.35918,-76.88158 110.03874,-115.32244 0,81.92789 0,163.85564 0,245.78344 z" />
</g>
</svg>
