<?xml version="1.0" encoding="UTF-8" standalone="no"?>
<!-- Created with Inkscape (http://www.inkscape.org/) -->

<svg
   width="320mm"
   height="200mm"
   viewBox="0 0 320 200"
   version="1.1"
   id="svg5"
   xml:space="preserve"
   inkscape:version="1.3.2 (091e20ef0f, 2023-11-25, custom)"
   sodipodi:docname="prop-adoption.svg"
   xmlns:inkscape="http://www.inkscape.org/namespaces/inkscape"
   xmlns:sodipodi="http://sodipodi.sourceforge.net/DTD/sodipodi-0.dtd"
   xmlns="http://www.w3.org/2000/svg"
   xmlns:svg="http://www.w3.org/2000/svg"><sodipodi:namedview
     id="namedview7"
     pagecolor="#ffffff"
     bordercolor="#cccccc"
     borderopacity="1"
     inkscape:showpageshadow="0"
     inkscape:pageopacity="1"
     inkscape:pagecheckerboard="0"
     inkscape:deskcolor="#d1d1d1"
     inkscape:document-units="mm"
     showgrid="false"
     inkscape:zoom="0.89309198"
     inkscape:cx="389.65751"
     inkscape:cy="368.38311"
     inkscape:window-width="2238"
     inkscape:window-height="1358"
     inkscape:window-x="0"
     inkscape:window-y="20"
     inkscape:window-maximized="1"
     inkscape:current-layer="layer1" /><defs
     id="defs2" /><g
     inkscape:label="Layer 1"
     inkscape:groupmode="layer"
     id="layer1"
     transform="translate(-47.428439,-47.82498)"><path
       id="path425"
       style="fill:#000000;stroke-width:0.911006"
       d="m 279.82433,48.97237 c -7.39407,0.04099 -14.98445,2.89872 -19.86686,8.584016 -3.68648,4.293017 -4.79163,10.329443 -3.90488,15.820365 0.51402,3.811974 1.80107,7.471053 3.34914,10.976797 -18.44585,-2.353108 -36.06713,-8.646299 -54.23478,-12.38259 -10.61467,-2.123098 -21.51209,-3.540988 -32.34108,-2.49818 -4.38606,0.545589 -8.92097,2.260401 -11.68144,5.873769 -2.65433,3.462975 -3.13118,8.19906 -1.99786,12.326851 0.7881,3.728488 2.29855,7.338148 2.44655,11.158948 -0.89962,0.788646 -2.18704,0.513403 -3.27659,0.874216 -5.59405,0.882488 -11.39201,0.735658 -16.86631,-0.808174 -0.70996,-1.134772 0.13311,-2.450331 0.29818,-3.60158 1.17013,-4.623666 3.14073,-9.278664 2.53388,-14.152137 -0.88381,-5.385781 -5.43267,-9.66941 -10.61206,-11.005049 -6.98083,-2.074079 -14.37071,-1.415242 -21.50694,-0.700852 -10.01782,1.095461 -19.995646,2.820134 -29.6774,5.626557 -2.94378,1.369837 -4.392365,5.080518 -3.365173,8.123441 1.034815,5.166563 2.491717,10.235761 3.676039,15.368257 2.080114,8.408795 4.12138,16.842245 5.209738,25.443255 -6.125349,-2.5179 -12.846059,-4.21006 -19.494223,-3.24619 -4.513075,0.85072 -8.111129,4.14107 -10.716301,7.75735 -3.988462,5.4958 -5.502162,12.48396 -5.081199,19.19333 0.04335,6.94123 1.367546,14.09528 5.14795,20.01987 4.642813,6.54368 13.665018,9.27583 21.257796,6.93188 3.071576,-0.70879 6.026638,-1.84227 8.92094,-3.07278 -1.772537,14.36344 -6.440919,28.15407 -9.140558,42.34277 -0.300792,2.43621 0.765186,5.16641 3.058555,6.27753 2.611042,1.52648 5.68984,1.80538 8.496297,2.81541 13.822929,3.99765 27.888549,7.64858 42.316139,8.44107 4.0736,0.0457 8.4598,-1.04011 11.29523,-4.14251 2.68599,-3.28024 2.66329,-8.19133 0.6153,-11.78702 -1.98165,-4.76928 -4.82895,-9.36744 -5.1105,-14.64196 0.20276,-2.12385 2.2699,-3.39607 4.16134,-3.86884 5.0555,-1.70725 10.64368,-1.71124 15.69019,0.0268 1.89591,0.74006 3.79393,2.28518 3.96991,4.4641 0.19589,3.22708 -1.57078,6.06117 -2.76887,8.94983 -1.75771,3.8161 -3.90767,7.67055 -4.06185,11.96537 0.46754,4.18557 4.10555,7.48949 8.10896,8.35602 5.04488,1.45032 10.32568,0.38805 15.36926,-0.49806 25.87417,-4.75392 50.59622,-14.35502 76.5442,-18.75178 0.94885,-0.15472 1.89931,-0.29879 2.84971,-0.44373 -2.64602,5.88619 -4.33031,12.46969 -3.30331,18.93885 1.36035,7.03321 7.07764,12.76943 13.84344,14.83368 7.15162,2.45195 14.93025,2.11706 22.27845,0.80726 5.4336,-1.01863 10.87586,-3.44013 14.38106,-7.85095 3.32096,-4.05008 4.54073,-9.55283 3.80594,-14.68723 -0.43409,-4.13729 -1.77958,-8.12401 -3.50177,-11.89205 14.42125,1.80626 28.30415,6.33332 42.48073,9.37412 2.1379,0.35848 4.48047,-0.41206 5.7724,-2.20716 1.79159,-2.28902 1.86983,-5.32405 2.58232,-8.02975 2.04683,-9.54234 3.32771,-19.24377 4.18213,-28.96214 0.42417,-6.16586 0.202,-12.52534 -1.89923,-18.39399 -1.30431,-3.45204 -4.42372,-6.01124 -7.86764,-7.1692 -2.04926,-0.71864 -4.26052,-0.79074 -6.39183,-0.5364 -4.56971,0.35985 -8.8363,2.24453 -13.37238,2.80711 -0.9711,-0.4919 -0.80433,-1.77301 -1.03963,-2.67407 -0.70724,-5.96676 -1.01202,-12.14948 0.75214,-17.97191 1.12262,-0.50277 2.21059,0.41985 3.32754,0.52417 5.03048,1.28687 10.21951,2.9402 15.46551,2.0773 5.51951,-1.09926 9.76351,-6.17955 10.3887,-11.69265 1.59923,-7.9327 0.72551,-16.07348 -0.14314,-24.0362 -1.09404,-8.423297 -2.7324,-16.809469 -5.44893,-24.865806 -1.06025,-2.396942 -3.2735,-4.617925 -6.04612,-4.620722 -3.20958,-0.03968 -6.13183,1.571017 -9.21184,2.165083 -11.00725,3.022808 -22.13945,5.732211 -33.47051,7.240114 2.51003,-5.748284 4.30216,-12.084456 3.4768,-18.404816 -1.28844,-6.926846 -6.83421,-12.630662 -13.4492,-14.776801 -5.46223,-2.118522 -11.4278,-2.134702 -17.20206,-2.112152 z m 4.96677,15.115912 c 3.64297,0.03236 7.54347,0.726609 10.38223,3.195281 1.10412,1.520324 0.40829,3.417961 0.091,5.075198 -1.31278,5.886111 -5.19888,10.891423 -6.40991,16.823243 -0.41391,3.968331 2.36768,7.877681 6.11667,9.092159 3.92885,1.520259 8.23083,1.067679 12.341,0.869526 11.4832,-0.834953 22.61393,-3.961134 33.7769,-6.589709 0.8868,-0.217396 1.77361,-0.434792 2.6604,-0.652188 1.96553,10.385738 4.0061,20.911398 3.20549,31.526658 -0.10316,0.71613 -0.23759,1.38679 -0.49193,2.06555 -5.17009,-1.46899 -10.39261,-3.54974 -15.86745,-3.05257 -5.9445,0.567 -11.01629,5.2007 -12.79458,10.79813 -2.05415,5.89284 -1.9195,12.23873 -1.77954,18.39511 0.18513,5.45303 1.08461,11.15641 4.28764,15.71637 2.60277,3.73994 7.15573,5.741 11.62816,5.90988 2.54809,0.14793 5.06202,-0.4123 7.47349,-1.18205 2.42029,-0.65329 4.81073,-1.4028 7.2543,-1.94418 0.39987,1.67286 0.21727,3.40405 0.35724,5.11668 0.17111,9.56135 -1.52291,19.01494 -3.21454,28.39201 -12.604,-2.94282 -25.14638,-6.68098 -38.14226,-7.36271 -3.48321,-0.12525 -7.0764,-0.15354 -10.41833,0.95795 -2.41219,0.78834 -4.50059,2.53775 -5.55119,4.8639 -1.05416,2.1932 -1.10754,4.81611 -0.14676,7.05223 1.65857,5.10238 5.16722,9.51608 5.8494,14.94206 0.15983,1.17028 0.32421,2.37234 0.15499,3.52871 -1.9395,2.6185 -5.35438,3.52895 -8.44538,3.63003 -4.46582,0.19173 -9.05957,0.44666 -13.36356,-0.96022 -1.70067,-0.70809 -3.28407,-2.31326 -3.14325,-4.31137 -0.0105,-3.0253 1.44172,-5.83892 2.54879,-8.60503 1.80694,-4.10683 4.04903,-8.27844 4.0019,-12.88498 -0.30433,-4.15034 -3.93108,-7.79338 -8.1082,-8.00557 -6.03323,-1.07285 -12.13686,0.13042 -18.12057,0.95529 -9.73211,1.6228 -19.27695,4.17197 -28.91114,6.2774 -2.89247,-10.70625 -5.50482,-21.52557 -6.85091,-32.55106 6.11635,2.78527 13.08268,4.27302 19.75161,2.86535 7.3209,-1.77023 12.97355,-8.44021 14.00274,-15.83398 1.2125,-6.02857 0.97982,-12.2358 0.465,-18.32737 -0.75457,-5.74082 -3.25454,-11.53009 -7.9151,-15.14921 -4.49675,-3.47682 -10.57213,-4.48218 -16.08021,-3.3623 -3.53679,0.55179 -6.94314,1.75492 -10.20656,3.20108 1.19231,-11.08152 4.02212,-21.87867 6.67027,-32.681212 13.79626,2.861822 27.44312,6.946582 41.59109,7.645364 3.69502,0.1301 7.65365,-0.339652 10.70673,-2.59527 2.47871,-2.092337 3.34195,-5.617612 2.88788,-8.739796 -0.30121,-2.183245 -1.38188,-4.136963 -2.17553,-6.164989 -1.75794,-4.1247 -3.98208,-8.176792 -4.32078,-12.716621 0.13511,-2.389458 2.43889,-4.126485 4.70509,-4.305044 3.0953,-0.81733 6.35402,-0.780954 9.54769,-0.91773 z M 178.78159,84.106861 c 9.6285,0.245283 19.2136,1.559454 28.6371,3.500241 -3.16849,13.595198 -6.95835,27.156218 -7.90809,41.138898 -0.0782,4.16045 0.833,8.65424 3.85572,11.70771 2.75922,2.5873 7.13096,2.86325 10.43276,1.19684 5.04455,-1.83936 9.66878,-5.06183 15.13811,-5.5232 2.35607,-0.11462 4.54522,1.51702 5.22998,3.75925 1.09643,2.92858 0.89471,6.10091 0.84936,9.17346 -0.16369,2.75933 -0.45751,5.57733 -1.54999,8.13617 -0.859,1.56344 -2.61567,2.55865 -4.41229,2.28968 -3.43671,-0.10122 -6.56623,-1.86791 -9.6876,-3.17194 -3.54813,-1.61464 -7.21687,-3.42084 -11.20169,-3.41751 -4.02665,0.44543 -7.17247,4.05446 -7.79925,7.94524 -1.59629,6.44457 -0.47569,13.14516 0.80645,19.5374 1.83236,9.31994 3.97707,18.57997 6.4835,27.74156 -10.75855,3.11688 -21.57403,6.22387 -32.722,7.56961 2.82901,-6.40575 3.73484,-13.70319 2.34256,-20.57994 -0.76947,-3.10707 -2.70387,-5.82355 -5.13942,-7.85312 -4.93439,-4.37029 -11.61621,-6.31094 -18.12088,-6.45548 -7.28138,-0.33477 -14.87835,0.93569 -21.08624,4.92004 -5.10637,3.41098 -8.5138,9.45325 -8.24407,15.66024 -0.0493,5.19247 1.55235,10.25527 3.75623,14.90458 -9.84448,-1.5461 -19.54329,-3.86339 -29.175998,-6.4113 -1.258627,-0.36493 -2.599943,-0.58906 -3.819891,-0.99903 -0.04393,-0.507 0.282778,-1.0288 0.341961,-1.56078 3.281816,-13.28223 6.896868,-26.6165 7.594768,-40.34499 0.10068,-4.04482 -0.98075,-8.38711 -3.997501,-11.25049 -2.763202,-2.38938 -6.896853,-2.54167 -10.143696,-1.10982 -3.522856,1.48091 -6.956897,3.20521 -10.55006,4.48792 -2.010214,0.6582 -4.091033,1.2458 -6.224299,1.17298 -2.100532,-0.42157 -3.29804,-2.51618 -3.784645,-4.44242 -1.32109,-4.17105 -0.885551,-8.64256 -0.576432,-12.95445 0.299242,-2.37095 0.729859,-4.97392 2.561353,-6.67303 1.807533,-1.27794 4.096136,-0.74993 6.089199,-0.27684 5.58452,1.43549 10.387502,5.22308 16.21608,5.85987 3.787119,0.48267 7.544071,-2.00829 8.959461,-5.48459 1.70065,-3.92009 1.59524,-8.32996 1.21731,-12.50375 -1.17436,-12.47374 -4.86119,-24.498988 -7.43933,-36.715164 10.97275,-2.259609 22.23668,-3.102953 33.43293,-2.546512 -1.22256,5.287167 -3.48598,10.511699 -3.05542,16.050216 0.64353,6.51044 6.02631,12.00567 12.33565,13.36164 3.75639,0.8607 7.62168,1.11579 11.45935,1.3371 6.08433,0.18481 12.28839,-0.47463 17.98977,-2.69178 4.80044,-2.27026 8.68592,-6.91027 9.19008,-12.30424 0.45889,-5.186794 -2.2018,-9.926999 -2.93493,-14.94489 -0.0625,-0.512547 -0.28341,-1.220727 0.47983,-1.064988 1.38756,-0.136366 2.78549,-0.05506 4.17421,-0.170391 z" /></g></svg>
