<?xml version="1.0" encoding="UTF-8" standalone="no"?>
<!-- Uploaded to: SVG Repo, www.svgrepo.com, Generator: SVG Repo Mixer Tools -->

<svg
   version="1.1"
   id="Capa_1"
   width="270"
   height="200"
   viewBox="0 0 110.57783 81.9095"
   xml:space="preserve"
   sodipodi:docname="prop-free.svg"
   inkscape:version="1.2.2 (b0a8486541, 2022-12-01)"
   xmlns:inkscape="http://www.inkscape.org/namespaces/inkscape"
   xmlns:sodipodi="http://sodipodi.sourceforge.net/DTD/sodipodi-0.dtd"
   xmlns="http://www.w3.org/2000/svg"
   xmlns:svg="http://www.w3.org/2000/svg"><defs
   id="defs434" /><sodipodi:namedview
   id="namedview432"
   pagecolor="#ffffff"
   bordercolor="#cccccc"
   borderopacity="1"
   inkscape:showpageshadow="0"
   inkscape:pageopacity="1"
   inkscape:pagecheckerboard="0"
   inkscape:deskcolor="#d1d1d1"
   showgrid="false"
   inkscape:zoom="4.0854723"
   inkscape:cx="169.62543"
   inkscape:cy="86.036563"
   inkscape:window-width="2238"
   inkscape:window-height="1358"
   inkscape:window-x="0"
   inkscape:window-y="20"
   inkscape:window-maximized="1"
   inkscape:current-layer="g429" />
<g
   id="g429"
   transform="matrix(0.24022417,0,0,0.24022417,1.5078067,11.944017)">
	<path
   id="path427"
   style="fill:#030303;stroke-width:1.40475"
   d="m 75.201172,-47.880859 c -2.425236,0.04327 -4.19617,1.940979 -5.712891,3.607421 C 50.552016,-25.416842 31.67703,-6.4951921 12.780578,12.401303 7.998333,17.210808 3.174143,21.98482 -1.5686534,26.829717 -3.7019064,29.503039 -2.1000277,34.1183 1.265625,34.820312 4.7343668,35.205895 8.2280431,34.898787 11.708203,35 c 19.465755,0 38.931511,0 58.397266,0 0.0085,32.629323 -0.02834,65.26038 0.03682,97.88861 0.163369,2.44063 2.177771,4.12043 3.917267,5.57771 28.90709,25.35059 57.81533,50.69986 86.72169,76.05126 0.42562,0.32949 1.20159,0.48431 1.12574,1.16347 0.42582,1.89774 1.86047,3.2997 3.23868,4.56637 22.83466,22.83221 45.64281,45.69152 68.52035,68.47914 2.56364,2.22401 7.19711,0.87701 8.08398,-2.42187 0.53128,-2.79409 0.12862,-5.64866 0.25781,-8.46992 0,-41.35573 0,-82.71146 0,-124.06719 69.3388,-56.874632 138.68616,-113.73994 208.00451,-170.638805 2.54815,-2.306844 1.66487,-7.112153 -1.54162,-8.355337 -2.36481,-0.831603 -4.89741,-0.278185 -7.33984,-0.441416 -66.79682,0.0026 -133.59411,-0.01518 -200.39063,0.02149 -2.42912,0.116057 -3.99315,2.21646 -5.65544,3.687119 -22.85238,21.06120644 -45.66706,42.163275 -68.50276,63.242568 -29.26338,-29.256526 -58.49473,-58.546284 -87.803232,-87.755606 -0.982523,-0.857538 -2.259585,-1.426975 -3.577626,-1.408456 z m -5.113281,24.933593 c 0,15.8873702 0,31.77474 0,47.66211 -18.367188,0 -36.734375,0 -55.101563,0 18.367188,-18.3697919 36.734375,-36.739584 55.101563,-55.109375 0,2.482422 0,4.964843 0,7.447265 z M 85.630859,-25.125 c 23.354171,23.3541667 46.708331,46.708333 70.062501,70.0625 -25.10938,25.105469 -50.21875,50.210937 -75.328126,75.31641 0,-50.21615 0,-100.432295 0,-150.648441 1.755209,1.75651 3.510417,3.513021 5.265625,5.269531 z m 158.685551,9.736328 c 62.56575,0 125.13151,0 187.69726,0 C 342.82161,57.764974 253.62956,130.91862 164.4375,204.07227 137.26107,180.23763 110.08464,156.40299 82.908203,132.56836 136.30859,83.249349 189.70898,33.930339 243.10938,-15.388672 c 0.40234,0 0.80468,0 1.20703,0 z M 231.71289,171.13477 c 0,33.72005 0,67.4401 0,101.16015 -19.10547,-19.10807 -38.21094,-38.21614 -57.31641,-57.32422 19.10547,-16.89453 38.21094,-33.78906 57.31641,-50.68359 0,2.28255 0,4.5651 0,6.84766 z" />
</g>
</svg>
