<?xml version="1.0" encoding="UTF-8" standalone="no"?>
<!-- Created with Inkscape (http://www.inkscape.org/) -->

<svg
   version="1.1"
   id="svg1"
   width="800"
   height="800"
   viewBox="0 0 800 800"
   sodipodi:docname="prop-process.svg"
   inkscape:version="1.3.2 (091e20ef0f, 2023-11-25, custom)"
   xmlns:inkscape="http://www.inkscape.org/namespaces/inkscape"
   xmlns:sodipodi="http://sodipodi.sourceforge.net/DTD/sodipodi-0.dtd"
   xmlns="http://www.w3.org/2000/svg"
   xmlns:svg="http://www.w3.org/2000/svg">
  <defs
     id="defs1" />
  <sodipodi:namedview
     id="namedview1"
     pagecolor="#ffffff"
     bordercolor="#cccccc"
     borderopacity="1"
     inkscape:showpageshadow="0"
     inkscape:pageopacity="1"
     inkscape:pagecheckerboard="0"
     inkscape:deskcolor="#d1d1d1"
     inkscape:zoom="0.48114125"
     inkscape:cx="-37.411051"
     inkscape:cy="85.214061"
     inkscape:window-width="2238"
     inkscape:window-height="1358"
     inkscape:window-x="0"
     inkscape:window-y="20"
     inkscape:window-maximized="1"
     inkscape:current-layer="g1" />
  <g
     inkscape:groupmode="layer"
     inkscape:label="Image"
     id="g1">
    <path
       style="fill:#000000"
       d="m 230.85919,748.76483 c -33.88489,-4.50141 -65.03554,-20.4434 -89.14175,-45.62013 -19.50614,-20.37239 -31.93493,-43.69985 -38.47396,-72.21137 -1.91747,-8.36058 -2.26434,-14.17894 -2.6867,-45.06666 L 100.07181,550.4 h 49.58542 49.58542 l 0.45007,29.06667 c 0.41465,26.77893 0.63978,29.60783 2.86045,35.94243 4.93085,14.06555 13.13367,23.18999 26.78016,29.78901 l 8,3.86856 H 400 562.66667 l 8,-3.86856 c 13.64649,-6.59902 21.84931,-15.72346 26.78016,-29.78901 2.22067,-6.3346 2.4458,-9.1635 2.86045,-35.94243 L 600.75735,550.4 h -50.86757 c -30.02466,0 -50.72187,-0.39684 -50.512,-0.96851 0.67437,-1.83693 148.62381,-198.42229 149.36043,-198.46018 0.82514,-0.0425 148.98232,195.67338 149.86364,197.97008 0.46849,1.22084 -7.54408,1.45861 -49.1544,1.45861 h -49.71412 l -0.006,30.66667 c -0.007,32.3308 -1.01481,43.44184 -5.33743,58.82342 -9.65877,34.36972 -31.56573,64.75607 -60.72469,84.22905 C 616.62402,735.49942 603.72112,741.123 582.4,746.46237 l -11.2,2.80477 -166.93333,0.17887 c -91.81334,0.0984 -169.8467,-0.20815 -173.40748,-0.68118 z M 76.240724,350.79194 C 35.385152,296.74085 1.7059919,251.86085 1.3981452,251.05861 0.9296727,249.83779 8.9272075,249.6 50.455118,249.6 h 49.616692 l 0.48497,-35.46667 c 0.42236,-30.88772 0.76923,-36.70608 2.6867,-45.06666 6.53903,-28.51152 18.96782,-51.83898 38.47396,-72.211369 21.18286,-22.123568 45.57691,-35.981024 76.31225,-43.350469 l 11.83698,-2.838165 h 169.6 169.6 l 11.07253,2.47913 c 31.15946,6.976572 53.97294,19.496526 75.87354,41.639115 21.43438,21.671218 33.8828,44.366478 40.74378,74.281758 1.91747,8.36058 2.26434,14.17894 2.6867,45.06666 L 699.92819,249.6 h -49.58542 -49.58542 l -0.45007,-29.06667 c -0.41465,-26.77893 -0.63978,-29.60783 -2.86045,-35.94243 -4.93085,-14.06555 -13.13367,-23.18999 -26.78016,-29.78901 l -8,-3.86856 H 400 237.33333 l -8,3.86856 c -13.64649,6.59902 -21.84931,15.72346 -26.78016,29.78901 -2.22067,6.3346 -2.4458,9.1635 -2.86045,35.94243 l -0.45007,29.06667 50.86757,0 c 30.02466,0 50.72187,0.39684 50.512,0.96851 -0.67437,1.83693 -148.62381,198.42229 -149.36043,198.46018 -0.40602,0.0209 -34.1655,-44.18565 -75.021066,-98.23675 z"
       id="path1" />
  </g>
</svg>
