<?xml version="1.0" encoding="UTF-8" standalone="no"?>
<!-- Created with Inkscape (http://www.inkscape.org/) -->

<svg
   width="200mm"
   height="200mm"
   viewBox="0 0 199.99999 200"
   version="1.1"
   id="svg5"
   xml:space="preserve"
   inkscape:version="1.2.2 (b0a8486541, 2022-12-01)"
   sodipodi:docname="prop-automatic.svg"
   xmlns:inkscape="http://www.inkscape.org/namespaces/inkscape"
   xmlns:sodipodi="http://sodipodi.sourceforge.net/DTD/sodipodi-0.dtd"
   xmlns="http://www.w3.org/2000/svg"
   xmlns:svg="http://www.w3.org/2000/svg"><sodipodi:namedview
     id="namedview7"
     pagecolor="#ffffff"
     bordercolor="#cccccc"
     borderopacity="1"
     inkscape:showpageshadow="0"
     inkscape:pageopacity="1"
     inkscape:pagecheckerboard="0"
     inkscape:deskcolor="#d1d1d1"
     inkscape:document-units="mm"
     showgrid="false"
     inkscape:zoom="1.2120179"
     inkscape:cx="288.77461"
     inkscape:cy="389.84573"
     inkscape:window-width="2238"
     inkscape:window-height="1358"
     inkscape:window-x="0"
     inkscape:window-y="20"
     inkscape:window-maximized="1"
     inkscape:current-layer="layer1" /><defs
     id="defs2" /><g
     inkscape:label="Layer 1"
     inkscape:groupmode="layer"
     id="layer1"
     transform="translate(-47.658785,-72.90696)"><path
       id="path259"
       style="fill:#000000;stroke-width:0.39464"
       d="M 135.22266,78.796875 C 113.61133,78.833984 92,78.871094 70.388672,78.908203 c -4.923333,1.420451 -9.389173,4.601617 -11.993954,9.05643 -1.02141,1.660589 -1.583839,3.70539 -1.666824,5.711205 -0.314337,5.788967 -0.301787,11.688232 -0.387178,17.522912 -0.149042,20.89154 -0.07163,41.78394 -0.08837,62.67586 0.02142,21.50114 -0.02781,43.00302 0.182002,64.50338 0.04309,3.21469 0.07197,6.53711 0.182842,9.68451 0.339061,3.6184 2.422202,6.84055 4.910156,9.38672 3.064826,3.0723 7.321188,5.05065 11.70487,4.92263 12.772191,0.40515 25.552572,0.20557 38.328716,0.29171 8.42761,0.0125 16.85521,0.0251 25.28282,0.0376 0,-2.52864 0,-5.05729 0,-7.58594 -20.58011,-0.0635 -41.164195,0.16601 -61.741125,-0.24192 -2.773455,-0.15224 -5.819496,-0.46487 -7.985437,-2.39089 -1.346801,-1.31975 -2.123328,-3.03789 -3.28125,-4.47461 -10e-7,-51.47916 0,-102.95833 0,-154.437498 1.599184,-2.840495 3.813876,-5.72389 7.110388,-6.606449 5.465604,-0.661971 10.996514,-0.5459 16.49625,-0.576158 33.813214,-0.100193 67.627104,-0.116703 101.440144,0.04418 4.10467,0.06483 8.22865,-0.05999 12.31559,0.375501 2.33976,0.277151 4.62916,1.359291 6.06681,3.270944 1.7495,2.128689 2.40303,4.961684 2.24175,7.67108 0.40258,11.361693 0.14713,22.732133 0.24427,34.097863 0.005,10.20455 0.01,20.40911 0.0145,30.61367 2.52865,0 5.0573,0 7.58594,0 -0.0779,-22.72958 0.17637,-45.46397 -0.32396,-68.189485 -0.32024,-4.254014 -2.75793,-8.066149 -5.83241,-10.899579 -2.82207,-2.59601 -6.60234,-4.337369 -10.42761,-4.358204 -7.26808,-0.205135 -14.54156,-0.152199 -21.81211,-0.205769 -14.5776,-0.0393 -29.15518,-0.01465 -43.73281,-0.01103 z m -11.21485,43.304685 c -1.56907,-0.0949 -2.68614,1.15011 -3.64223,2.21277 -5.75915,6.03066 -10.95745,12.55362 -16.64488,18.64661 -2.14274,1.69552 -5.390683,0.98972 -7.175778,-0.89649 -2.306543,-1.90222 -4.050168,-4.58442 -6.861148,-5.80357 -2.074341,-0.54176 -4.671829,1.09542 -4.476743,3.37779 0.06043,2.01337 1.773999,3.31201 3.019799,4.66951 3.190488,3.3534 6.577623,6.52711 9.529029,10.10002 2.522551,1.09079 5.564891,-0.0244 7.166271,-2.16208 5.10772,-5.46806 10.05289,-11.09397 15.00841,-16.69213 2.48289,-2.83828 4.9914,-5.66809 7.30777,-8.64037 0.95856,-2.1085 -0.9163,-4.90584 -3.2305,-4.81206 z m 44.47852,12.72071 c -6.99776,0.0902 -14.03433,-0.0859 -21.00195,0.38867 -2.49407,0.82741 -3.17453,4.42895 -1.4336,6.29492 0.91284,1.09333 2.40698,1.52495 3.78787,1.33877 10.6121,0.15992 21.23908,0.30024 31.84218,-0.15667 2.58544,-0.68261 3.67583,-4.39164 1.79964,-6.33444 -0.95865,-1.19871 -2.57233,-1.58349 -4.04014,-1.42352 -3.65028,-0.10951 -7.3024,-0.11376 -10.954,-0.10773 z m -44.89844,45.7832 c -1.24499,0.0692 -2.13654,1.02454 -2.84519,1.94658 -6.79426,7.32649 -13.28179,14.92838 -19.86184,22.446 -3.624008,-2.96575 -6.588476,-6.75734 -10.265626,-9.58008 -0.662703,-0.70918 -1.860232,-0.831 -2.80394,-0.53599 -1.546354,0.3674 -2.832062,1.86317 -2.591388,3.50132 0.08382,1.47183 1.218368,2.51951 2.209735,3.47275 3.409094,3.63236 7.032559,7.0738 10.166062,10.95645 2.07427,0.98997 4.833007,0.66465 6.385287,-1.11787 4.61553,-4.90799 9.17873,-9.83578 13.62963,-14.89492 3.13783,-3.56677 6.28829,-7.12866 9.33875,-10.76776 1.17545,-1.51371 0.32279,-3.78742 -1.15141,-4.76897 -0.63961,-0.44905 -1.42479,-0.70806 -2.21007,-0.65751 z m 72.68164,2.73047 c -1.17859,0.0567 -2.40066,-0.10571 -3.54297,0.22461 -0.41584,1.61007 -0.16953,3.29622 -0.39048,4.93313 -0.0882,2.05288 -0.17451,4.10584 -0.26381,6.15866 -4.26368,1.59635 -8.52667,3.19453 -12.79102,4.78907 -2.74142,-2.26541 -4.95581,-5.14795 -7.80469,-7.26368 -0.92979,0.72793 -1.69571,1.64208 -2.60925,2.39324 -1.39295,1.29698 -2.86547,2.65603 -3.84778,4.23762 0.69673,1.07108 1.70634,1.89353 2.55006,2.84499 1.62191,1.62404 3.28779,3.20251 4.89525,4.84056 -1.60986,4.44595 -3.09641,8.99059 -5.57422,13.04883 -3.40276,0.21787 -6.85444,-0.17487 -10.22851,0.23437 -0.77844,1.08677 -0.35136,2.50309 -0.51423,3.74552 -0.0796,2.38396 -0.15719,4.79932 0.32673,7.14902 0.91406,0.14096 1.84605,-0.072 2.76794,0.0466 2.76084,0.0317 5.5219,0.0147 8.28284,0.0159 1.12729,4.57146 3.14335,8.87101 5.08789,13.1621 -2.26364,2.85862 -5.32488,4.98299 -7.47461,7.93946 2.06306,2.20659 4.06539,4.50288 6.47461,6.3457 2.6378,-2.35901 5.10446,-4.90497 7.62891,-7.38476 4.28234,1.61339 8.56455,3.22718 12.8457,4.84374 0.14712,3.73281 0.28927,7.46776 0.43945,11.19922 0.39239,0.45867 1.05757,0.0846 1.57969,0.20163 2.76186,-0.009 5.524,0.0311 8.28555,-0.0278 0.47548,-0.20764 0.1345,-0.81382 0.25704,-1.21759 0.093,-3.07929 -0.1317,-6.33335 1.20594,-9.19615 1.19599,-1.94952 3.65714,-2.18853 5.56841,-3.05704 2.16527,-0.86232 4.32502,-1.73666 6.48619,-2.6093 2.68581,2.49864 4.98044,5.38647 7.73046,7.81836 2.19957,-2.10757 4.38198,-4.24197 6.39844,-6.53125 -1.48835,-1.87553 -3.28511,-3.47639 -4.90578,-5.23486 -0.83882,-0.86234 -1.67651,-1.7258 -2.51609,-2.5874 1.61124,-4.21553 3.2245,-8.43029 4.83398,-12.64649 3.71776,-0.37402 7.48807,-0.025 11.15039,-0.59765 0.62322,-1.01585 0.223,-2.27156 0.39926,-3.39168 0.0808,-2.47956 0.1462,-4.98579 -0.30746,-7.43645 -1.54801,-0.19903 -3.11744,-0.23095 -4.67805,-0.31433 -2.25869,-0.0792 -4.51993,-0.16171 -6.76336,-0.45129 -1.52881,-4.30728 -3.06138,-8.61322 -4.59179,-12.91993 2.30992,-2.82226 5.44732,-4.91715 7.48046,-7.96093 -0.6872,-0.9705 -1.62921,-1.81127 -2.43404,-2.71118 -1.29712,-1.36106 -2.65264,-2.68679 -4.17142,-3.79468 -1.03839,0.82882 -1.90785,1.84858 -2.90916,2.72288 -1.52284,1.47068 -3.02925,2.95816 -4.53811,4.44313 -4.5897,-1.1071 -8.97744,-2.90509 -13.22851,-4.93554 -0.35424,-3.26265 0.13652,-6.62168 -0.23633,-9.83203 -0.12625,-0.3187 0.0877,-1.19889 -0.57189,-1.1003 -1.92278,-0.11095 -3.85407,-0.24409 -5.78163,-0.13603 z m 0.82031,16.72851 c 9.98964,-0.0783 19.47919,6.5909 23.2459,15.76649 2.08394,4.81338 2.12976,10.24666 1.3638,15.35672 -1.88515,9.98094 -10.48871,18.15681 -20.45002,19.87504 -7.35132,1.39307 -15.17073,-1.08922 -20.68331,-6.07153 -5.03652,-4.4466 -8.28422,-10.92461 -8.55476,-17.66419 -0.47045,-8.36338 3.29901,-16.92386 10.04072,-21.96557 4.27925,-3.3003 9.61856,-5.25779 15.03767,-5.29696 z" /></g></svg>
